<svg width="27" height="27" viewBox="0 0 27 27" fill="none" xmlns="http://www.w3.org/2000/svg">
<path d="M21.2541 20.4103C21.2541 21.3669 20.8567 22.2398 20.217 22.8722C19.579 23.5056 18.6969 23.8976 17.7259 23.8976H9.39255C8.42324 23.8976 7.54206 23.5047 6.90143 22.8722C6.26169 22.2389 5.86426 21.3677 5.86426 20.4094V5.97384C5.86426 5.01379 6.26167 4.14175 6.89964 3.51011L6.94106 3.47178C7.57727 2.86282 8.44259 2.4856 9.39158 2.4856H17.7249C18.696 2.4856 19.578 2.87849 20.2169 3.50922C20.8558 4.14082 21.2532 5.01375 21.2532 5.97295V20.4085L21.2541 20.4103ZM16.7549 17.2828C16.7549 16.9135 17.058 16.6138 17.4316 16.6138C17.8052 16.6138 18.1084 16.9135 18.1084 17.2828V19.9747C18.1084 20.3441 17.8052 20.6438 17.4316 20.6438C17.058 20.6438 16.7549 20.3441 16.7549 19.9747V17.2828ZM12.8608 20.6438C12.4872 20.6438 12.1841 20.3441 12.1841 19.9747C12.1841 19.6054 12.4872 19.3057 12.8608 19.3057H14.2584C14.632 19.3057 14.9352 19.6054 14.9352 19.9747C14.9352 20.3441 14.632 20.6438 14.2584 20.6438H12.8608ZM8.98891 20.6438C8.6153 20.6438 8.31216 20.3441 8.31216 19.9747C8.31216 19.6054 8.6153 19.3057 8.98891 19.3057H10.3865C10.7601 19.3057 11.0632 19.6054 11.0632 19.9747C11.0632 20.3441 10.7601 20.6438 10.3865 20.6438H8.98891ZM16.7328 15.2598C16.3592 15.2598 16.056 14.9601 16.056 14.5907C16.056 14.2214 16.3592 13.9217 16.7328 13.9217H18.1303C18.5039 13.9217 18.8071 14.2214 18.8071 14.5907C18.8071 14.9601 18.5039 15.2598 18.1303 15.2598H16.7328ZM12.8608 15.2598C12.4872 15.2598 12.1841 14.9601 12.1841 14.5907C12.1841 14.2214 12.4872 13.9217 12.8608 13.9217H14.2584C14.632 13.9217 14.9352 14.2214 14.9352 14.5907C14.9352 14.9601 14.632 15.2598 14.2584 15.2598H12.8608ZM8.98891 15.2598C8.6153 15.2598 8.31216 14.9601 8.31216 14.5907C8.31216 14.2214 8.6153 13.9217 8.98891 13.9217H10.3865C10.7601 13.9217 11.0632 14.2214 11.0632 14.5907C11.0632 14.9601 10.7601 15.2598 10.3865 15.2598H8.98891ZM12.8608 17.9517C12.4872 17.9517 12.1841 17.652 12.1841 17.2826C12.1841 16.9133 12.4872 16.6136 12.8608 16.6136H14.2584C14.632 16.6136 14.9352 16.9133 14.9352 17.2826C14.9352 17.652 14.632 17.9517 14.2584 17.9517H12.8608ZM8.98891 17.9517C8.6153 17.9517 8.31216 17.652 8.31216 17.2826C8.31216 16.9133 8.6153 16.6136 8.98891 16.6136H10.3865C10.7601 16.6136 11.0632 16.9133 11.0632 17.2826C11.0632 17.652 10.7601 17.9517 10.3865 17.9517H8.98891ZM16.7328 12.5686C16.3592 12.5686 16.056 12.2689 16.056 11.8995C16.056 11.5302 16.3592 11.2305 16.7328 11.2305H18.1303C18.5039 11.2305 18.8071 11.5302 18.8071 11.8995C18.8071 12.2689 18.5039 12.5686 18.1303 12.5686H16.7328ZM12.8608 12.5686C12.4872 12.5686 12.1841 12.2689 12.1841 11.8995C12.1841 11.5302 12.4872 11.2305 12.8608 11.2305H14.2584C14.632 11.2305 14.9352 11.5302 14.9352 11.8995C14.9352 12.2689 14.632 12.5686 14.2584 12.5686H12.8608ZM8.98891 12.5686C8.6153 12.5686 8.31216 12.2689 8.31216 11.8995C8.31216 11.5302 8.6153 11.2305 8.98891 11.2305H10.3865C10.7601 11.2305 11.0632 11.5302 11.0632 11.8995C11.0632 12.2689 10.7601 12.5686 10.3865 12.5686H8.98891ZM8.98891 5.10249H18.1303C18.5039 5.10249 18.807 5.40219 18.807 5.77156V9.20833C18.807 9.5777 18.5039 9.87739 18.1303 9.87739H8.98891C8.6153 9.87739 8.31216 9.5777 8.31216 9.20833V5.77156C8.31216 5.40219 8.6153 5.10249 8.98891 5.10249ZM19.2627 21.9275C19.6566 21.5398 19.9007 21.0023 19.9007 20.4099V5.97435C19.9007 5.38457 19.6557 4.84704 19.2609 4.45675C18.867 4.06733 18.3234 3.82515 17.7259 3.82515H9.3926C8.80926 3.82515 8.2779 4.05513 7.88664 4.42626L7.85756 4.45676C7.46367 4.84617 7.21871 5.38368 7.21871 5.97435V20.4099C7.21871 21.0014 7.46367 21.539 7.85668 21.9284C8.25057 22.3169 8.79516 22.5591 9.39347 22.5591H17.7268C18.3233 22.5591 18.867 22.3169 19.2627 21.9266L19.2627 21.9275Z" fill="white"/>
</svg>
