<svg width="20" height="20" viewBox="0 0 20 20" fill="none" xmlns="http://www.w3.org/2000/svg">
<path d="M9.48242 2.9248C11.8838 2.92489 13.5713 4.63818 13.5713 6.8291V8.55176H13.9932C15.13 8.55176 16.0749 9.41249 16.0752 10.4912V16.1201C16.0566 17.2131 15.1318 18.0752 13.9932 18.0752H5.00586C3.85185 18.058 2.92502 17.1976 2.9248 16.1191V10.4902C2.94341 9.39726 3.86826 8.53516 5.00684 8.53516H5.42871V6.8291C5.42871 4.67272 7.07962 2.9248 9.48242 2.9248ZM5.00684 9.63477C4.49324 9.63477 4.08718 10.0212 4.08691 10.4912V16.1191C4.08713 16.5891 4.49321 16.9756 5.00684 16.9756H13.9932C14.5068 16.9756 14.9129 16.5891 14.9131 16.1191V10.4912C14.9128 10.0212 14.5068 9.63477 13.9932 9.63477H5.00684ZM9.5 11.3652C10.0893 11.3486 10.5693 11.7963 10.5693 12.373C10.5693 12.7365 10.373 13.0461 10.0723 13.2285V14.7207C10.072 15.0345 9.80124 15.2617 9.5 15.2617C9.17742 15.2617 8.92796 15.0145 8.92773 14.7207V13.2285C8.62701 13.0461 8.43071 12.7365 8.43066 12.373C8.43066 11.8117 8.9116 11.3662 9.49805 11.3652H9.5ZM9.48242 4.00684C7.71304 4.00684 6.57324 5.27163 6.57324 6.8291V8.53516H12.4268V6.8291C12.4268 5.24044 11.236 4.00692 9.48242 4.00684Z" fill="#5B616E" stroke="#5B616E" stroke-width="0.15"/>
</svg>
