<svg width="20" height="20" viewBox="0 0 20 20" fill="none" xmlns="http://www.w3.org/2000/svg">
<path d="M11.1621 10.087C11.4617 10.087 11.7061 10.3314 11.7061 10.631C11.7061 10.9316 11.4616 11.1749 11.1621 11.1749H7.21973C5.44895 11.1777 4.01451 12.6115 4.0127 14.381V15.9474C4.0127 16.521 4.47789 16.9864 5.05273 16.9874H7.59863C7.89904 16.9876 8.14258 17.2309 8.14258 17.5314C8.1425 17.8317 7.899 18.0752 7.59863 18.0753H5.05273C3.87782 18.0743 2.92575 17.1212 2.9248 15.9474V14.381C2.92574 13.2433 3.37849 12.1509 4.18359 11.3468C4.98883 10.5418 6.08097 10.0889 7.21973 10.087H11.1621Z" fill="#5B616E" stroke="#5B616E" stroke-width="0.15"/>
<path d="M9.21826 2.9248C10.5543 2.9248 11.7584 3.72946 12.27 4.96387L12.3569 5.19727C12.7441 6.37355 12.4396 7.67814 11.5542 8.56348C10.6087 9.50867 9.1884 9.79075 7.95361 9.28027C6.71984 8.76881 5.91474 7.56417 5.91455 6.22852V6.22754C5.91646 4.40489 7.39426 2.92668 9.21826 2.9248ZM8.9917 4.02441C7.87436 4.13923 7.00352 5.08132 7.00244 6.22754C7.00244 7.12363 7.54159 7.93175 8.36963 8.27539C9.19749 8.61802 10.1505 8.42867 10.7847 7.79492C11.4178 7.16196 11.6077 6.20786 11.2651 5.38086C10.9224 4.55287 10.1145 4.0127 9.21826 4.0127L8.9917 4.02441Z" fill="#5B616E" stroke="#5B616E" stroke-width="0.15"/>
<path d="M14.2915 10.0455C15.1577 9.18163 16.5601 9.1826 17.4253 10.0475C18.2364 10.8585 18.2881 12.1417 17.5796 13.0133L17.4272 13.1823L12.6938 17.9156C12.5919 18.0176 12.4525 18.0748 12.3091 18.0748H9.94092C9.79647 18.0748 9.65811 18.0176 9.55615 17.9156C9.45428 17.8137 9.39697 17.6753 9.39697 17.5309V15.1637C9.39697 15.0203 9.45424 14.8809 9.55615 14.7789L14.2915 10.0455ZM10.4849 15.3893V16.9869H12.0845L15.5864 13.484L13.9878 11.8864L10.4849 15.3893ZM16.5728 10.7408C16.1245 10.3902 15.4792 10.4154 15.0591 10.816L14.7563 11.1178L16.355 12.7164L16.6587 12.4137C17.0996 11.9719 17.0996 11.2574 16.6597 10.816L16.5728 10.7408Z" fill="#5B616E" stroke="#5B616E" stroke-width="0.15"/>
</svg>
