<svg width="16" height="16" viewBox="0 0 16 16" fill="none" xmlns="http://www.w3.org/2000/svg">
<path d="M8.00016 14.6663C4.31826 14.6663 1.3335 11.6815 1.3335 7.99967C1.3335 4.31777 4.31826 1.33301 8.00016 1.33301C11.682 1.33301 14.6668 4.31777 14.6668 7.99967C14.6668 11.6815 11.682 14.6663 8.00016 14.6663ZM6.47351 13.1113C5.83178 11.7503 5.43838 10.2491 5.3517 8.66634H2.70809C2.97216 10.784 4.47776 12.5161 6.47351 13.1113ZM6.6873 8.66634C6.78756 10.2922 7.25203 11.8195 8.00016 13.1677C8.7483 11.8195 9.21276 10.2922 9.31303 8.66634H6.6873ZM13.2922 8.66634H10.6486C10.562 10.2491 10.1686 11.7503 9.52683 13.1113C11.5226 12.5161 13.0282 10.784 13.2922 8.66634ZM2.70809 7.33301H5.3517C5.43838 5.75019 5.83178 4.24905 6.47351 2.88805C4.47776 3.48323 2.97216 5.21534 2.70809 7.33301ZM6.6873 7.33301H9.31303C9.21276 5.70715 8.7483 4.17984 8.00016 2.83167C7.25203 4.17984 6.78756 5.70715 6.6873 7.33301ZM9.52683 2.88805C10.1686 4.24905 10.562 5.75019 10.6486 7.33301H13.2922C13.0282 5.21534 11.5226 3.48323 9.52683 2.88805Z" fill="#272835"/>
</svg>
