<svg width="36" height="36" viewBox="0 0 36 36" fill="none" xmlns="http://www.w3.org/2000/svg">
<path d="M29 27.8504C29 29.1557 28.4577 30.3468 27.5847 31.2098C26.7142 32.074 25.5106 32.609 24.1855 32.609H12.8145C11.4918 32.609 10.2894 32.0729 9.41525 31.2098C8.54231 30.3456 8 29.1568 8 27.8492V8.15142C8 6.84141 8.54228 5.65148 9.41282 4.78958L9.46933 4.73728C10.3375 3.90633 11.5182 3.3916 12.8131 3.3916H24.1842C25.5093 3.3916 26.7129 3.92772 27.5847 4.78837C28.4564 5.65021 28.9987 6.84135 28.9987 8.15021V27.848L29 27.8504ZM22.8606 23.5829C22.8606 23.0789 23.2742 22.67 23.784 22.67C24.2939 22.67 24.7075 23.0789 24.7075 23.5829V27.2561C24.7075 27.7601 24.2939 28.169 23.784 28.169C23.2742 28.169 22.8606 27.7601 22.8606 27.2561V23.5829ZM17.5471 28.169C17.0373 28.169 16.6236 27.7601 16.6236 27.2561C16.6236 26.7521 17.0373 26.3431 17.5471 26.3431H19.4541C19.9639 26.3431 20.3775 26.7521 20.3775 27.2561C20.3775 27.7601 19.9639 28.169 19.4541 28.169H17.5471ZM12.2637 28.169C11.7539 28.169 11.3402 27.7601 11.3402 27.2561C11.3402 26.7521 11.7539 26.3431 12.2637 26.3431H14.1707C14.6805 26.3431 15.0942 26.7521 15.0942 27.2561C15.0942 27.7601 14.6805 28.169 14.1707 28.169H12.2637ZM22.8304 20.8224C22.3206 20.8224 21.907 20.4135 21.907 19.9095C21.907 19.4055 22.3206 18.9965 22.8304 18.9965H24.7374C25.2473 18.9965 25.6609 19.4055 25.6609 19.9095C25.6609 20.4135 25.2473 20.8224 24.7374 20.8224H22.8304ZM17.5471 20.8224C17.0373 20.8224 16.6236 20.4135 16.6236 19.9095C16.6236 19.4055 17.0373 18.9965 17.5471 18.9965H19.4541C19.9639 18.9965 20.3775 19.4055 20.3775 19.9095C20.3775 20.4135 19.9639 20.8224 19.4541 20.8224H17.5471ZM12.2637 20.8224C11.7539 20.8224 11.3402 20.4135 11.3402 19.9095C11.3402 19.4055 11.7539 18.9965 12.2637 18.9965H14.1707C14.6805 18.9965 15.0942 19.4055 15.0942 19.9095C15.0942 20.4135 14.6805 20.8224 14.1707 20.8224H12.2637ZM17.5471 24.4956C17.0373 24.4956 16.6236 24.0866 16.6236 23.5826C16.6236 23.0786 17.0373 22.6697 17.5471 22.6697H19.4541C19.9639 22.6697 20.3775 23.0786 20.3775 23.5826C20.3775 24.0866 19.9639 24.4956 19.4541 24.4956H17.5471ZM12.2637 24.4956C11.7539 24.4956 11.3402 24.0866 11.3402 23.5826C11.3402 23.0786 11.7539 22.6697 12.2637 22.6697H14.1707C14.6805 22.6697 15.0942 23.0786 15.0942 23.5826C15.0942 24.0866 14.6805 24.4956 14.1707 24.4956H12.2637ZM22.8304 17.1502C22.3206 17.1502 21.907 16.7412 21.907 16.2372C21.907 15.7332 22.3206 15.3243 22.8304 15.3243H24.7374C25.2473 15.3243 25.6609 15.7332 25.6609 16.2372C25.6609 16.7412 25.2473 17.1502 24.7374 17.1502H22.8304ZM17.5471 17.1502C17.0373 17.1502 16.6236 16.7412 16.6236 16.2372C16.6236 15.7332 17.0373 15.3243 17.5471 15.3243H19.4541C19.9639 15.3243 20.3775 15.7332 20.3775 16.2372C20.3775 16.7412 19.9639 17.1502 19.4541 17.1502H17.5471ZM12.2637 17.1502C11.7539 17.1502 11.3402 16.7412 11.3402 16.2372C11.3402 15.7332 11.7539 15.3243 12.2637 15.3243H14.1707C14.6805 15.3243 15.0942 15.7332 15.0942 16.2372C15.0942 16.7412 14.6805 17.1502 14.1707 17.1502H12.2637ZM12.2637 6.96244H24.7374C25.2472 6.96244 25.6608 7.37138 25.6608 7.8754V12.565C25.6608 13.069 25.2472 13.4779 24.7374 13.4779H12.2637C11.7539 13.4779 11.3402 13.069 11.3402 12.565V7.8754C11.3402 7.37138 11.7539 6.96244 12.2637 6.96244ZM26.2826 29.9207C26.8201 29.3917 27.1531 28.6583 27.1531 27.8499V8.15212C27.1531 7.34734 26.8189 6.61387 26.2802 6.08131C25.7427 5.54993 25.0008 5.21947 24.1856 5.21947H12.8145C12.0185 5.21947 11.2935 5.53328 10.7596 6.0397L10.7199 6.08131C10.1824 6.61269 9.84819 7.34613 9.84819 8.15212V27.8499C9.84819 28.6571 10.1824 29.3905 10.7187 29.9219C11.2562 30.4521 11.9993 30.7826 12.8157 30.7826H24.1868C25.0008 30.7826 25.7427 30.4521 26.2826 29.9195L26.2826 29.9207Z" fill="#4880FF"/>
</svg>
