<svg width="25" height="25" viewBox="0 0 25 25" fill="none" xmlns="http://www.w3.org/2000/svg">
<g clip-path="url(#clip0_987_53514)">
<path d="M22.8406 3.11426H7.26745C6.55109 3.11426 5.99045 3.47763 5.6167 4.02788L0 12.4581L5.6167 20.878C5.99045 21.4282 6.55109 21.802 7.26745 21.802H22.8406C23.9826 21.802 24.917 20.8676 24.917 19.7256V5.19067C24.917 4.04864 23.9826 3.11426 22.8406 3.11426ZM22.8406 19.7256H7.34012L2.4917 12.4581L7.32974 5.19067H22.8406V19.7256ZM10.8077 17.6492L14.5349 13.922L18.2621 17.6492L19.7259 16.1853L15.9988 12.4581L19.7259 8.73096L18.2621 7.26709L14.5349 10.9942L10.8077 7.26709L9.34386 8.73096L13.071 12.4581L9.34386 16.1853L10.8077 17.6492Z" fill="#46384E"/>
</g>
<defs>
<clipPath id="clip0_987_53514">
<rect width="24.917" height="24.917" fill="white"/>
</clipPath>
</defs>
</svg>
