<svg width="80" height="80" viewBox="0 0 80 80" fill="none" xmlns="http://www.w3.org/2000/svg">
<rect width="80" height="80" rx="40" fill="#8E44AD"/>
<rect x="0.5" y="0.5" width="79" height="79" rx="39.5" stroke="white" stroke-opacity="0.4" stroke-dasharray="3 2"/>
<path d="M41.667 21.667C42.1089 21.6671 42.5322 21.8428 42.8447 22.1553L54.5117 33.8213C54.8243 34.1338 55 34.558 55 35V53.333C55 54.6591 54.4728 55.9315 53.5352 56.8691C52.5975 57.8066 51.3259 58.333 50 58.333H30C28.6741 58.333 27.4025 57.8066 26.4648 56.8691C25.5272 55.9315 25 54.6591 25 53.333V26.667C25 25.3409 25.5272 24.0685 26.4648 23.1309C27.4025 22.1934 28.6741 21.667 30 21.667H41.667ZM30 25C29.558 25 29.1338 25.1757 28.8213 25.4883C28.5088 25.8008 28.333 26.225 28.333 26.667V53.333C28.333 53.775 28.5088 54.1992 28.8213 54.5117C29.1339 54.8243 29.558 55 30 55H50C50.442 55 50.8661 54.8243 51.1787 54.5117C51.4912 54.1992 51.667 53.775 51.667 53.333V36.667H41.667C40.7465 36.667 40 35.9205 40 35V25H30ZM46.667 46.667C47.5872 46.6672 48.3328 47.4128 48.333 48.333C48.333 49.2534 47.5873 49.9998 46.667 50H33.333C32.4127 49.9998 31.667 49.2534 31.667 48.333C31.6672 47.4128 32.4128 46.6672 33.333 46.667H46.667ZM46.667 40C47.5873 40.0002 48.333 40.7466 48.333 41.667C48.3328 42.5872 47.5872 43.3328 46.667 43.333H33.333C32.4128 43.3328 31.6672 42.5872 31.667 41.667C31.667 40.7466 32.4127 40.0002 33.333 40H46.667ZM36.667 33.333C37.5873 33.3332 38.333 34.0796 38.333 35C38.333 35.9204 37.5873 36.6668 36.667 36.667H33.333C32.4127 36.6668 31.667 35.9204 31.667 35C31.667 34.0796 32.4127 33.3332 33.333 33.333H36.667ZM43.333 33.333H49.3096L43.333 27.3574V33.333Z" fill="white"/>
</svg>
