<svg width="22" height="21" viewBox="0 0 22 21" fill="none" xmlns="http://www.w3.org/2000/svg">
<path d="M10.4531 0.155273C10.6091 0.0829133 10.7896 0.0823015 10.9463 0.154297L20.6504 4.52344L20.792 4.59961C21.1057 4.79867 21.2988 5.14579 21.2988 5.52539V6.69922C21.2988 7.30466 20.8046 7.79967 20.1992 7.7998H20.0762L20.0771 7.79492H19.7998V16.5947H20.2002C20.8056 16.5949 21.2998 17.0899 21.2998 17.6953V19.1953C21.2997 19.8006 20.8055 20.2948 20.2002 20.2949H1.2002C0.594872 20.2948 0.100708 19.8006 0.100586 19.1953V17.6953C0.100586 17.0899 0.594797 16.5949 1.2002 16.5947H1.60059V7.79492H1.2002C0.594895 7.79477 0.100746 7.30061 0.100586 6.69531V5.52051C0.100586 5.09154 0.352543 4.69513 0.749023 4.51855L10.4531 0.155273ZM1.30078 19.0996H20.0996V17.7998H1.30078V19.0996ZM17.2988 16.5996H18.5986V7.7998H17.2988V16.5996ZM5.2998 16.5996H16.0986V7.7998H5.2998V16.5996ZM2.80078 16.5996H4.10059V7.7998H2.80078V16.5996ZM1.2998 5.58984V6.59961H20.0986V5.58887L10.6992 1.36035L1.2998 5.58984Z" fill="#515151" stroke="#515151" stroke-width="0.2"/>
<path d="M10.7002 8.60156C11.0301 8.60156 11.2998 8.87128 11.2998 9.20117V9.60059H12.7002C13.03 9.6007 13.2998 9.87037 13.2998 10.2002C13.2998 10.53 13.03 10.7997 12.7002 10.7998H9.30078V11.5996H12.2002C12.8057 11.5996 13.3007 12.0947 13.3008 12.7002V13.7002C13.3008 14.3057 12.8057 14.8008 12.2002 14.8008H11.2998V15.2002C11.2998 15.5301 11.0301 15.7998 10.7002 15.7998C10.3704 15.7997 10.1006 15.53 10.1006 15.2002V14.8008H8.70117C8.37128 14.8008 8.10156 14.5311 8.10156 14.2012C8.1016 13.8713 8.3713 13.6016 8.70117 13.6016H12.1006V12.8018H9.2002C8.59484 12.8016 8.10066 12.3065 8.10059 11.7012V10.7012C8.10059 10.0957 8.5948 9.60074 9.2002 9.60059H10.1006V9.20117C10.1006 8.87134 10.3704 8.60167 10.7002 8.60156Z" fill="#515151" stroke="#515151" stroke-width="0.2"/>
<path d="M10.7002 3.60059C10.909 3.60059 11.1211 3.67018 11.2822 3.81348C11.4451 3.95838 11.5498 4.17324 11.5498 4.4502C11.5498 4.72707 11.4451 4.9421 11.2822 5.08691C11.1211 5.23008 10.909 5.2998 10.7002 5.2998C10.4914 5.2998 10.2793 5.23009 10.1182 5.08691C9.95525 4.9421 9.85059 4.72709 9.85059 4.4502C9.85064 4.17321 9.95531 3.95838 10.1182 3.81348C10.2793 3.67017 10.4914 3.60059 10.7002 3.60059Z" fill="#515151" stroke="#515151" stroke-width="0.2"/>
</svg>
