<svg width="80" height="80" viewBox="0 0 80 80" fill="none" xmlns="http://www.w3.org/2000/svg">
<rect width="80" height="80" rx="40" fill="#082E53"/>
<rect x="0.5" y="0.5" width="79" height="79" rx="39.5" stroke="white" stroke-opacity="0.4" stroke-dasharray="3 2"/>
<path d="M38.2041 18.9004C40.4287 18.9004 42.6202 19.2449 44.7178 19.9248C46.7474 20.582 48.6625 21.546 50.4102 22.7861C50.8347 23.088 50.9345 23.6779 50.6328 24.1025C50.331 24.5274 49.7402 24.6268 49.3154 24.3252C46.3132 22.1938 42.8155 20.9884 39.1465 20.8115V39.0557H42.7217C43.2427 39.0557 43.666 39.4791 43.666 40C43.666 40.5209 43.2427 40.9443 42.7217 40.9443H39.1465V46.6025C39.1465 47.1235 38.7231 47.5469 38.2021 47.5469C37.6814 47.5466 37.2588 47.1233 37.2588 46.6025V40.9443H28.3848C28.507 45.8233 29.5734 50.3597 31.416 53.8076C33.0532 56.8691 35.1027 58.7046 37.2588 59.1201V52.2207C37.259 51.7001 37.6815 51.2776 38.2021 51.2773C38.723 51.2773 39.1463 51.7 39.1465 52.2207V59.1875C39.9919 59.1456 40.8339 59.0511 41.6592 58.9014C42.1396 58.8145 42.6026 59.1083 42.7363 59.5674L42.7578 59.6621L42.7705 59.7578C42.8076 60.2343 42.4786 60.6728 41.998 60.7598C40.9088 60.9572 39.7952 61.0696 38.6807 61.0947L38.2021 61.0996H38.1221C35.3025 61.089 32.566 60.5316 29.9883 59.4414C28.7373 58.9129 27.5315 58.2576 26.4033 57.4961C25.2856 56.742 24.2345 55.8755 23.2803 54.9199C22.3263 53.9646 21.4584 52.9154 20.7041 51.7979C19.9424 50.6699 19.2864 49.4647 18.7578 48.2139C17.6567 45.6122 17.0996 42.8481 17.0996 40C17.0996 37.1519 17.6567 34.3878 18.7578 31.7861C19.2864 30.5353 19.9424 29.3301 20.7041 28.2021C21.4583 27.0846 22.3262 26.034 23.2803 25.0801L23.6426 24.7266C24.499 23.911 25.4251 23.1639 26.4033 22.5039C27.5315 21.7424 28.7373 21.0871 29.9883 20.5586C32.566 19.4683 35.3014 18.911 38.1211 18.9004H38.2041ZM19.0117 40.9443C19.4061 49.063 24.8656 55.8709 32.29 58.2773C31.3558 57.3066 30.5041 56.1078 29.75 54.6973C28.7203 52.7698 27.9144 50.5354 27.3535 48.0537C26.8417 45.7892 26.5544 43.4012 26.4961 40.9443H19.0117ZM37.2588 20.8789C35.1027 21.2944 33.0532 23.1308 31.416 26.1924C29.5734 29.6403 28.507 34.1767 28.3848 39.0557H37.2588V20.8789ZM32.29 21.7217C24.8654 24.1281 19.4061 30.9369 19.0117 39.0557H26.4961C26.5544 36.5988 26.8417 34.2108 27.3535 31.9463C27.9144 29.4646 28.7203 27.2302 29.75 25.3027C30.5043 23.892 31.3556 22.6925 32.29 21.7217Z" fill="white" stroke="white" stroke-width="0.2"/>
<path d="M55.8052 23.6973C56.3019 23.5012 56.8601 23.6288 57.2241 24.0205L60.481 27.5273L60.6021 27.6709C60.8666 28.0169 61.0111 28.4388 61.0112 28.8789C61.0112 29.3188 60.8676 29.7422 60.6021 30.0879L60.481 30.2314L57.2241 33.7383C56.9744 34.0076 56.6323 34.1514 56.2808 34.1514C56.1223 34.1514 55.961 34.1218 55.8062 34.0615H55.8052C55.3075 33.8656 54.9858 33.3932 54.9858 32.8594V32.2559H46.1978C45.6769 32.2557 45.2544 31.8323 45.2544 31.3115V31.2822L43.0308 33.6777L43.0298 33.6787C42.9954 33.7155 42.9953 33.7747 43.0298 33.8115H43.0308L45.2544 36.207V36.1787C45.2544 35.9276 45.3538 35.6877 45.5308 35.5107C45.7077 35.3339 45.9468 35.2345 46.1978 35.2344H56.9722C57.4932 35.2344 57.9165 35.6578 57.9165 36.1787C57.9162 36.6994 57.493 37.1221 56.9722 37.1221H47.1421V37.7256C47.1421 38.2596 46.8197 38.7328 46.3218 38.9287C46.1671 38.9889 46.0056 39.0185 45.8472 39.0186C45.4956 39.0186 45.1536 38.8738 44.9038 38.6045L41.647 35.0977H41.646C41.3052 34.7283 41.1168 34.249 41.1167 33.7461C41.1167 33.2433 41.304 32.7619 41.647 32.3936L44.9048 28.8867C45.2674 28.4947 45.8257 28.3676 46.3237 28.5635C46.8215 28.7594 47.144 29.2317 47.144 29.7656V30.3691H55.9312C56.4521 30.3692 56.8755 30.7926 56.8755 31.3135V31.3408L59.0981 28.9473L59.0991 28.9463C59.1336 28.9094 59.1337 28.8503 59.0991 28.8135H59.0981L56.8755 26.418V26.4473C56.8753 26.968 56.452 27.3906 55.9312 27.3906H45.5034C44.9826 27.3906 44.5593 26.968 44.5591 26.4473C44.5591 25.9263 44.9824 25.5029 45.5034 25.5029H54.9858V24.8994C54.9858 24.3656 55.3075 23.8932 55.8052 23.6973Z" fill="white" stroke="white" stroke-width="0.2"/>
<path d="M51.0649 39.0566C52.5523 39.0566 53.9961 39.348 55.356 39.9229C56.6687 40.478 57.8475 41.274 58.8589 42.2852C59.8703 43.2964 60.666 44.4755 61.2212 45.7881C61.7962 47.1478 62.0884 48.591 62.0884 50.0781C62.0884 51.5654 61.7962 53.0094 61.2212 54.3691C60.666 55.6815 59.8702 56.8599 58.8589 57.8711C57.8475 58.8823 56.6687 59.6783 55.356 60.2334C53.996 60.8083 52.5524 61.1006 51.0649 61.1006C49.5775 61.1006 48.1338 60.8083 46.7739 60.2334C45.4612 59.6783 44.2824 58.8823 43.271 57.8711C42.2597 56.86 41.4639 55.6815 40.9087 54.3691H40.9077C40.3327 53.0094 40.0415 51.5654 40.0415 50.0781C40.0415 48.5911 40.3328 47.1477 40.9077 45.7881H40.9087C41.4639 44.4755 42.2596 43.2964 43.271 42.2852C44.2824 41.274 45.4612 40.478 46.7739 39.9229C48.1338 39.348 49.5776 39.0566 51.0649 39.0566ZM51.063 40.9443C46.0266 40.9445 41.9283 45.0425 41.9282 50.0781C41.9282 55.1138 46.0265 59.2117 51.063 59.2119C56.1011 59.2119 60.1987 55.1139 60.1987 50.0781C60.1987 45.0424 56.0996 40.9443 51.063 40.9443Z" fill="white" stroke="white" stroke-width="0.2"/>
<path d="M51.0635 42.5312C51.5844 42.5312 52.0077 42.9538 52.0078 43.4746V44.2686H52.4531C53.9312 44.2686 55.1357 45.4707 55.1357 46.9502V47.6445C55.1357 48.1655 54.7124 48.5889 54.1914 48.5889C53.6704 48.5889 53.2471 48.1655 53.2471 47.6445V46.9502C53.2471 46.5126 52.8908 46.1562 52.4531 46.1562H49.6729C49.2352 46.1562 48.8789 46.5126 48.8789 46.9502V48.3398C48.8789 48.7774 49.2352 49.1338 49.6729 49.1338H52.4531C53.9328 49.1338 55.1357 50.336 55.1357 51.8154V53.2051C55.1355 54.6844 53.9327 55.8867 52.4531 55.8867H52.0078V56.6797C52.0078 57.2006 51.5845 57.624 51.0635 57.624C50.5426 57.6239 50.1191 57.2006 50.1191 56.6797V55.8867H49.6738C48.1943 55.8867 46.9924 54.6843 46.9922 53.2051V52.5098C46.9923 51.989 47.4148 51.5666 47.9355 51.5664C48.4565 51.5664 48.8798 51.9889 48.8799 52.5098V53.2051C48.8801 53.6425 49.2363 53.998 49.6738 53.998H52.4551C52.8926 53.998 53.2488 53.6424 53.249 53.2051V51.8154C53.249 51.3779 52.8927 51.0216 52.4551 51.0215H49.6738C48.1942 51.0215 46.9922 49.8192 46.9922 48.3398V46.9502C46.9922 45.4708 48.1942 44.2686 49.6738 44.2686H50.1191V43.4746C50.1193 42.9538 50.5427 42.5314 51.0635 42.5312Z" fill="white" stroke="white" stroke-width="0.2"/>
</svg>
