<svg width="20" height="20" viewBox="0 0 20 20" fill="none" xmlns="http://www.w3.org/2000/svg">
<path d="M15 6.66634H16.6667C17.1269 6.66634 17.5 7.03944 17.5 7.49967V17.4997C17.5 17.9599 17.1269 18.333 16.6667 18.333H3.33333C2.8731 18.333 2.5 17.9599 2.5 17.4997V7.49967C2.5 7.03944 2.8731 6.66634 3.33333 6.66634H5V5.83301C5 3.07158 7.23857 0.833008 10 0.833008C12.7614 0.833008 15 3.07158 15 5.83301V6.66634ZM4.16667 8.33301V16.6663H15.8333V8.33301H4.16667ZM9.16667 11.6663H10.8333V13.333H9.16667V11.6663ZM5.83333 11.6663H7.5V13.333H5.83333V11.6663ZM12.5 11.6663H14.1667V13.333H12.5V11.6663ZM13.3333 6.66634V5.83301C13.3333 3.99206 11.8409 2.49967 10 2.49967C8.15905 2.49967 6.66667 3.99206 6.66667 5.83301V6.66634H13.3333Z" fill="#818898"/>
</svg>
