<svg width="60" height="60" viewBox="0 0 60 60" fill="none" xmlns="http://www.w3.org/2000/svg">
<rect width="60" height="60" rx="30" fill="white"/>
<rect x="0.375" y="0.375" width="59.25" height="59.25" rx="29.625" stroke="white" stroke-opacity="0.4" stroke-width="0.75" stroke-dasharray="2.25 1.5"/>
<mask id="path-3-outside-1_987_53343" maskUnits="userSpaceOnUse" x="11.5996" y="12" width="36" height="36" fill="black">
<rect fill="white" x="11.5996" y="12" width="36" height="36"/>
<path d="M46.2705 35.2936C45.95 34.7525 45.4286 34.3584 44.8186 34.1962C44.2086 34.034 43.559 34.1166 43.0097 34.4264C43.0436 33.3396 42.75 32.2675 42.1667 31.3479L36.8259 22.1467L39.2515 23.5114C39.4035 23.6058 39.5731 23.6686 39.7502 23.6961C39.9272 23.7236 40.108 23.7151 40.2817 23.6712C40.4554 23.6273 40.6184 23.5489 40.7607 23.4407C40.9031 23.3325 41.022 23.1967 41.1103 23.0416C41.1985 22.8865 41.2543 22.7152 41.2742 22.5381C41.2941 22.3609 41.2777 22.1816 41.226 22.011C41.1744 21.8403 41.0886 21.6818 40.9737 21.545C40.8588 21.4082 40.7172 21.296 40.5576 21.2151L36.1226 18.7191L36.8723 17.4275C37.1395 16.9811 37.2805 16.4712 37.2805 15.9517C37.2805 15.4322 37.1395 14.9224 36.8723 14.476C36.6171 14.0226 36.2435 13.6462 35.791 13.3864C35.3385 13.1267 34.8239 12.9933 34.3015 13.0003H29.104C28.5816 12.9932 28.067 13.1266 27.6146 13.3864C27.1621 13.6461 26.7886 14.0226 26.5335 14.476C26.2663 14.9224 26.1252 15.4322 26.1252 15.9517C26.1252 16.4712 26.2663 16.9811 26.5335 17.4275L27.3273 18.7952C27.1985 18.9346 27.1015 19.1001 27.0428 19.2802C26.9842 19.4603 26.9654 19.6509 26.9876 19.839C27.0098 20.027 27.0726 20.2081 27.1717 20.3698C27.2708 20.5315 27.4038 20.67 27.5616 20.7758C27.2404 21.1151 26.9603 21.4908 26.7272 21.8951L21.2395 31.3467C20.7147 32.1953 20.3911 33.1515 20.293 34.1429C19.7136 34.3401 19.1216 34.5759 18.4699 34.8477V34.0291C18.4699 33.9679 18.4578 33.9073 18.4343 33.8507C18.4107 33.7942 18.3762 33.7428 18.3327 33.6996C18.2892 33.6563 18.2375 33.622 18.1807 33.5985C18.1238 33.5751 18.0629 33.5631 18.0014 33.5631H13.0682C13.0066 33.5631 12.9457 33.5751 12.8889 33.5985C12.832 33.622 12.7804 33.6563 12.7368 33.6996C12.6933 33.7428 12.6588 33.7942 12.6353 33.8507C12.6117 33.9073 12.5996 33.9679 12.5996 34.0291V46.534C12.5996 46.6576 12.649 46.7761 12.7368 46.8635C12.8247 46.9509 12.9439 47 13.0682 47H18.0021C18.1264 47 18.2456 46.9509 18.3335 46.8635C18.4213 46.7761 18.4707 46.6576 18.4707 46.534V45.226C19.9535 44.5853 21.5267 44.1756 23.1349 44.0113C25.1208 43.8586 27.685 44.3584 28.9173 44.5984C30.0138 44.7247 31.1173 44.7815 32.2211 44.7685C34.8485 44.7845 35.0453 44.6384 35.1758 44.5425C35.1871 44.5344 35.198 44.5254 35.2082 44.5165L45.4139 38.5623C45.9628 38.2414 46.3613 37.7169 46.5219 37.1041C46.6825 36.4913 46.5921 35.8402 46.2705 35.2936ZM17.5347 44.9355V46.0691H13.536V34.4963H17.5347V44.9355ZM28.3058 20.0717C28.2023 20.0717 28.103 20.0308 28.0297 19.958C27.9565 19.8852 27.9154 19.7864 27.9154 19.6834C27.9154 19.5804 27.9565 19.4816 28.0297 19.4088C28.103 19.336 28.2023 19.295 28.3058 19.295H35.1C35.2036 19.295 35.3029 19.336 35.3761 19.4088C35.4493 19.4816 35.4905 19.5804 35.4905 19.6834C35.4905 19.7864 35.4493 19.8852 35.3761 19.958C35.3029 20.0308 35.2036 20.0717 35.1 20.0717H28.3058ZM40.2452 22.5549C40.22 22.5995 40.1862 22.6386 40.1457 22.6702C40.1052 22.7017 40.0588 22.725 40.0093 22.7387C39.9597 22.7524 39.9079 22.7562 39.8569 22.7499C39.8058 22.7436 39.7565 22.7273 39.7118 22.702L36.0246 20.6267C36.2159 20.4419 36.3468 20.2042 36.4003 19.9444L40.0972 22.0248C40.142 22.0498 40.1814 22.0835 40.2131 22.1237C40.2447 22.1639 40.2681 22.21 40.2819 22.2593C40.2956 22.3085 40.2995 22.36 40.2932 22.4107C40.2869 22.4614 40.2706 22.5104 40.2452 22.5549ZM27.3433 14.9401C27.5182 14.6297 27.7741 14.372 28.084 14.1943C28.3939 14.0166 28.7463 13.9254 29.104 13.9304H34.3023C34.6591 13.9304 35.0097 14.0239 35.3187 14.2014C35.6277 14.3788 35.8844 14.6341 36.0628 14.9415C36.2412 15.2488 36.3352 15.5975 36.3352 15.9524C36.3352 16.3073 36.2413 16.656 36.0629 16.9634L35.2449 18.3727C35.1969 18.3674 35.1487 18.3647 35.1004 18.3646H28.3062C28.258 18.3647 28.2097 18.3674 28.1618 18.3727L27.3418 16.9634C27.1587 16.6573 27.0623 16.3077 27.0625 15.9515C27.0628 15.5954 27.1598 15.2459 27.3433 14.9401ZM22.0494 31.8116L27.5358 22.3603C27.8339 21.8407 28.2254 21.38 28.6908 21.0011H34.7169C35.1817 21.3801 35.5726 21.8408 35.87 22.3603L41.3565 31.8116C42.0406 32.9895 42.2405 34.0768 41.9555 35.04L38.0004 37.3472C37.9511 36.855 37.7355 36.3939 37.3888 36.0393C37.0421 35.6848 36.5847 35.4576 36.0914 35.3949C35.4085 35.2737 34.4124 35.071 33.2605 34.8365C30.1129 34.1961 26.1957 33.3972 24.6331 33.4213C23.4976 33.4217 22.3668 33.5652 21.2676 33.8485C21.4024 33.1282 21.6673 32.4381 22.0494 31.8116ZM44.9406 37.7604L34.6744 43.7503L34.6619 43.758C32.8086 43.8878 30.9477 43.8635 29.0985 43.6854C27.8252 43.4377 25.1758 42.9219 23.0642 43.0839C21.4872 43.2445 19.9407 43.6245 18.4699 44.2128V35.859C20.7596 34.8932 22.1286 34.3871 24.6468 34.3514C26.1114 34.3312 30.1336 35.1499 33.0731 35.7495C34.2316 35.9852 35.2328 36.1891 35.9266 36.3122C36.779 36.4637 37.1265 36.9864 37.1265 38.1169V38.1277C37.1214 38.2751 37.0837 38.4196 37.0162 38.5509C36.9488 38.6822 36.8531 38.7972 36.7361 38.8877C36.5507 39.0354 36.3362 39.1426 36.1065 39.2024C35.8767 39.2623 35.6369 39.2733 35.4026 39.2349L28.8142 38.0629C28.7521 38.0478 28.6875 38.0456 28.6245 38.0564C28.5614 38.0671 28.5013 38.0905 28.4477 38.1253C28.3941 38.16 28.3482 38.2053 28.3129 38.2583C28.2776 38.3113 28.2535 38.371 28.2423 38.4336C28.231 38.4962 28.2327 38.5605 28.2474 38.6224C28.262 38.6843 28.2893 38.7426 28.3274 38.7937C28.3655 38.8447 28.4138 38.8875 28.4692 38.9193C28.5246 38.9511 28.5859 38.9713 28.6494 38.9786L35.2371 40.1495C35.606 40.2117 35.9841 40.1948 36.346 40.0999C36.7078 40.0051 37.0452 39.8345 37.3354 39.5996C37.7089 39.2995 37.9589 38.8737 38.0383 38.4027L43.4537 35.2419C43.7893 35.0458 44.1894 34.9903 44.5662 35.0876C44.9429 35.185 45.2653 35.4272 45.4625 35.7609C45.6596 36.0947 45.7154 36.4927 45.6176 36.8674C45.5197 37.242 45.2762 37.5627 44.9406 37.7588V37.7604ZM32.5303 29.3914C32.5303 28.7623 32.2449 28.6694 31.5413 28.5028C30.8611 28.3417 29.8337 28.0986 29.8337 26.7094C29.8341 26.3115 29.9665 25.9249 30.2102 25.6094C30.454 25.2938 30.7956 25.0671 31.182 24.9642V24.5308C31.182 24.4072 31.2314 24.2887 31.3193 24.2013C31.4071 24.1139 31.5263 24.0648 31.6506 24.0648C31.7749 24.0648 31.894 24.1139 31.9819 24.2013C32.0698 24.2887 32.1192 24.4072 32.1192 24.5308V24.9642C32.5056 25.0671 32.8472 25.2938 33.091 25.6094C33.3347 25.9249 33.467 26.3115 33.4674 26.7094C33.4598 26.8276 33.4072 26.9384 33.3203 27.0194C33.2335 27.1003 33.1189 27.1454 32.9999 27.1454C32.8808 27.1454 32.7662 27.1003 32.6794 27.0194C32.5926 26.9384 32.54 26.8276 32.5323 26.7094C32.5347 26.5929 32.5138 26.477 32.4706 26.3685C32.4275 26.2601 32.363 26.1614 32.281 26.078C32.199 25.9947 32.101 25.9285 31.993 25.8833C31.8849 25.8382 31.7688 25.8149 31.6516 25.8149C31.5343 25.8149 31.4183 25.8382 31.3102 25.8833C31.2021 25.9285 31.1042 25.9947 31.0222 26.078C30.9401 26.1614 30.8757 26.2601 30.8325 26.3685C30.7894 26.477 30.7684 26.5929 30.7709 26.7094C30.7709 27.3386 31.0563 27.4314 31.7599 27.598C32.4401 27.7592 33.4674 28.0023 33.4674 29.3914C33.4668 29.7897 33.3339 30.1767 33.0895 30.4923C32.8451 30.8079 32.5027 31.0344 32.1156 31.1366V31.57C32.1156 31.6936 32.0663 31.8122 31.9784 31.8996C31.8905 31.987 31.7714 32.0361 31.6471 32.0361C31.5228 32.0361 31.4036 31.987 31.3158 31.8996C31.2279 31.8122 31.1785 31.6936 31.1785 31.57V31.1366C30.7921 31.0337 30.4505 30.8069 30.2068 30.4914C29.9631 30.1759 29.8307 29.7893 29.8302 29.3914C29.8302 29.2678 29.8796 29.1493 29.9675 29.0619C30.0553 28.9745 30.1745 28.9254 30.2988 28.9254C30.4231 28.9254 30.5422 28.9745 30.6301 29.0619C30.718 29.1493 30.7674 29.2678 30.7674 29.3914C30.7649 29.508 30.7858 29.6239 30.829 29.7323C30.8721 29.8407 30.9366 29.9395 31.0186 30.0228C31.1007 30.1061 31.1986 30.1723 31.3067 30.2175C31.4148 30.2627 31.5308 30.286 31.6481 30.286C31.7653 30.286 31.8814 30.2627 31.9894 30.2175C32.0975 30.1723 32.1954 30.1061 32.2775 30.0228C32.3595 29.9395 32.424 29.8407 32.4671 29.7323C32.5103 29.6239 32.5312 29.508 32.5288 29.3914H32.5303Z"/>
</mask>
<path d="M46.2705 35.2936C45.95 34.7525 45.4286 34.3584 44.8186 34.1962C44.2086 34.034 43.559 34.1166 43.0097 34.4264C43.0436 33.3396 42.75 32.2675 42.1667 31.3479L36.8259 22.1467L39.2515 23.5114C39.4035 23.6058 39.5731 23.6686 39.7502 23.6961C39.9272 23.7236 40.108 23.7151 40.2817 23.6712C40.4554 23.6273 40.6184 23.5489 40.7607 23.4407C40.9031 23.3325 41.022 23.1967 41.1103 23.0416C41.1985 22.8865 41.2543 22.7152 41.2742 22.5381C41.2941 22.3609 41.2777 22.1816 41.226 22.011C41.1744 21.8403 41.0886 21.6818 40.9737 21.545C40.8588 21.4082 40.7172 21.296 40.5576 21.2151L36.1226 18.7191L36.8723 17.4275C37.1395 16.9811 37.2805 16.4712 37.2805 15.9517C37.2805 15.4322 37.1395 14.9224 36.8723 14.476C36.6171 14.0226 36.2435 13.6462 35.791 13.3864C35.3385 13.1267 34.8239 12.9933 34.3015 13.0003H29.104C28.5816 12.9932 28.067 13.1266 27.6146 13.3864C27.1621 13.6461 26.7886 14.0226 26.5335 14.476C26.2663 14.9224 26.1252 15.4322 26.1252 15.9517C26.1252 16.4712 26.2663 16.9811 26.5335 17.4275L27.3273 18.7952C27.1985 18.9346 27.1015 19.1001 27.0428 19.2802C26.9842 19.4603 26.9654 19.6509 26.9876 19.839C27.0098 20.027 27.0726 20.2081 27.1717 20.3698C27.2708 20.5315 27.4038 20.67 27.5616 20.7758C27.2404 21.1151 26.9603 21.4908 26.7272 21.8951L21.2395 31.3467C20.7147 32.1953 20.3911 33.1515 20.293 34.1429C19.7136 34.3401 19.1216 34.5759 18.4699 34.8477V34.0291C18.4699 33.9679 18.4578 33.9073 18.4343 33.8507C18.4107 33.7942 18.3762 33.7428 18.3327 33.6996C18.2892 33.6563 18.2375 33.622 18.1807 33.5985C18.1238 33.5751 18.0629 33.5631 18.0014 33.5631H13.0682C13.0066 33.5631 12.9457 33.5751 12.8889 33.5985C12.832 33.622 12.7804 33.6563 12.7368 33.6996C12.6933 33.7428 12.6588 33.7942 12.6353 33.8507C12.6117 33.9073 12.5996 33.9679 12.5996 34.0291V46.534C12.5996 46.6576 12.649 46.7761 12.7368 46.8635C12.8247 46.9509 12.9439 47 13.0682 47H18.0021C18.1264 47 18.2456 46.9509 18.3335 46.8635C18.4213 46.7761 18.4707 46.6576 18.4707 46.534V45.226C19.9535 44.5853 21.5267 44.1756 23.1349 44.0113C25.1208 43.8586 27.685 44.3584 28.9173 44.5984C30.0138 44.7247 31.1173 44.7815 32.2211 44.7685C34.8485 44.7845 35.0453 44.6384 35.1758 44.5425C35.1871 44.5344 35.198 44.5254 35.2082 44.5165L45.4139 38.5623C45.9628 38.2414 46.3613 37.7169 46.5219 37.1041C46.6825 36.4913 46.5921 35.8402 46.2705 35.2936ZM17.5347 44.9355V46.0691H13.536V34.4963H17.5347V44.9355ZM28.3058 20.0717C28.2023 20.0717 28.103 20.0308 28.0297 19.958C27.9565 19.8852 27.9154 19.7864 27.9154 19.6834C27.9154 19.5804 27.9565 19.4816 28.0297 19.4088C28.103 19.336 28.2023 19.295 28.3058 19.295H35.1C35.2036 19.295 35.3029 19.336 35.3761 19.4088C35.4493 19.4816 35.4905 19.5804 35.4905 19.6834C35.4905 19.7864 35.4493 19.8852 35.3761 19.958C35.3029 20.0308 35.2036 20.0717 35.1 20.0717H28.3058ZM40.2452 22.5549C40.22 22.5995 40.1862 22.6386 40.1457 22.6702C40.1052 22.7017 40.0588 22.725 40.0093 22.7387C39.9597 22.7524 39.9079 22.7562 39.8569 22.7499C39.8058 22.7436 39.7565 22.7273 39.7118 22.702L36.0246 20.6267C36.2159 20.4419 36.3468 20.2042 36.4003 19.9444L40.0972 22.0248C40.142 22.0498 40.1814 22.0835 40.2131 22.1237C40.2447 22.1639 40.2681 22.21 40.2819 22.2593C40.2956 22.3085 40.2995 22.36 40.2932 22.4107C40.2869 22.4614 40.2706 22.5104 40.2452 22.5549ZM27.3433 14.9401C27.5182 14.6297 27.7741 14.372 28.084 14.1943C28.3939 14.0166 28.7463 13.9254 29.104 13.9304H34.3023C34.6591 13.9304 35.0097 14.0239 35.3187 14.2014C35.6277 14.3788 35.8844 14.6341 36.0628 14.9415C36.2412 15.2488 36.3352 15.5975 36.3352 15.9524C36.3352 16.3073 36.2413 16.656 36.0629 16.9634L35.2449 18.3727C35.1969 18.3674 35.1487 18.3647 35.1004 18.3646H28.3062C28.258 18.3647 28.2097 18.3674 28.1618 18.3727L27.3418 16.9634C27.1587 16.6573 27.0623 16.3077 27.0625 15.9515C27.0628 15.5954 27.1598 15.2459 27.3433 14.9401ZM22.0494 31.8116L27.5358 22.3603C27.8339 21.8407 28.2254 21.38 28.6908 21.0011H34.7169C35.1817 21.3801 35.5726 21.8408 35.87 22.3603L41.3565 31.8116C42.0406 32.9895 42.2405 34.0768 41.9555 35.04L38.0004 37.3472C37.9511 36.855 37.7355 36.3939 37.3888 36.0393C37.0421 35.6848 36.5847 35.4576 36.0914 35.3949C35.4085 35.2737 34.4124 35.071 33.2605 34.8365C30.1129 34.1961 26.1957 33.3972 24.6331 33.4213C23.4976 33.4217 22.3668 33.5652 21.2676 33.8485C21.4024 33.1282 21.6673 32.4381 22.0494 31.8116ZM44.9406 37.7604L34.6744 43.7503L34.6619 43.758C32.8086 43.8878 30.9477 43.8635 29.0985 43.6854C27.8252 43.4377 25.1758 42.9219 23.0642 43.0839C21.4872 43.2445 19.9407 43.6245 18.4699 44.2128V35.859C20.7596 34.8932 22.1286 34.3871 24.6468 34.3514C26.1114 34.3312 30.1336 35.1499 33.0731 35.7495C34.2316 35.9852 35.2328 36.1891 35.9266 36.3122C36.779 36.4637 37.1265 36.9864 37.1265 38.1169V38.1277C37.1214 38.2751 37.0837 38.4196 37.0162 38.5509C36.9488 38.6822 36.8531 38.7972 36.7361 38.8877C36.5507 39.0354 36.3362 39.1426 36.1065 39.2024C35.8767 39.2623 35.6369 39.2733 35.4026 39.2349L28.8142 38.0629C28.7521 38.0478 28.6875 38.0456 28.6245 38.0564C28.5614 38.0671 28.5013 38.0905 28.4477 38.1253C28.3941 38.16 28.3482 38.2053 28.3129 38.2583C28.2776 38.3113 28.2535 38.371 28.2423 38.4336C28.231 38.4962 28.2327 38.5605 28.2474 38.6224C28.262 38.6843 28.2893 38.7426 28.3274 38.7937C28.3655 38.8447 28.4138 38.8875 28.4692 38.9193C28.5246 38.9511 28.5859 38.9713 28.6494 38.9786L35.2371 40.1495C35.606 40.2117 35.9841 40.1948 36.346 40.0999C36.7078 40.0051 37.0452 39.8345 37.3354 39.5996C37.7089 39.2995 37.9589 38.8737 38.0383 38.4027L43.4537 35.2419C43.7893 35.0458 44.1894 34.9903 44.5662 35.0876C44.9429 35.185 45.2653 35.4272 45.4625 35.7609C45.6596 36.0947 45.7154 36.4927 45.6176 36.8674C45.5197 37.242 45.2762 37.5627 44.9406 37.7588V37.7604ZM32.5303 29.3914C32.5303 28.7623 32.2449 28.6694 31.5413 28.5028C30.8611 28.3417 29.8337 28.0986 29.8337 26.7094C29.8341 26.3115 29.9665 25.9249 30.2102 25.6094C30.454 25.2938 30.7956 25.0671 31.182 24.9642V24.5308C31.182 24.4072 31.2314 24.2887 31.3193 24.2013C31.4071 24.1139 31.5263 24.0648 31.6506 24.0648C31.7749 24.0648 31.894 24.1139 31.9819 24.2013C32.0698 24.2887 32.1192 24.4072 32.1192 24.5308V24.9642C32.5056 25.0671 32.8472 25.2938 33.091 25.6094C33.3347 25.9249 33.467 26.3115 33.4674 26.7094C33.4598 26.8276 33.4072 26.9384 33.3203 27.0194C33.2335 27.1003 33.1189 27.1454 32.9999 27.1454C32.8808 27.1454 32.7662 27.1003 32.6794 27.0194C32.5926 26.9384 32.54 26.8276 32.5323 26.7094C32.5347 26.5929 32.5138 26.477 32.4706 26.3685C32.4275 26.2601 32.363 26.1614 32.281 26.078C32.199 25.9947 32.101 25.9285 31.993 25.8833C31.8849 25.8382 31.7688 25.8149 31.6516 25.8149C31.5343 25.8149 31.4183 25.8382 31.3102 25.8833C31.2021 25.9285 31.1042 25.9947 31.0222 26.078C30.9401 26.1614 30.8757 26.2601 30.8325 26.3685C30.7894 26.477 30.7684 26.5929 30.7709 26.7094C30.7709 27.3386 31.0563 27.4314 31.7599 27.598C32.4401 27.7592 33.4674 28.0023 33.4674 29.3914C33.4668 29.7897 33.3339 30.1767 33.0895 30.4923C32.8451 30.8079 32.5027 31.0344 32.1156 31.1366V31.57C32.1156 31.6936 32.0663 31.8122 31.9784 31.8996C31.8905 31.987 31.7714 32.0361 31.6471 32.0361C31.5228 32.0361 31.4036 31.987 31.3158 31.8996C31.2279 31.8122 31.1785 31.6936 31.1785 31.57V31.1366C30.7921 31.0337 30.4505 30.8069 30.2068 30.4914C29.9631 30.1759 29.8307 29.7893 29.8302 29.3914C29.8302 29.2678 29.8796 29.1493 29.9675 29.0619C30.0553 28.9745 30.1745 28.9254 30.2988 28.9254C30.4231 28.9254 30.5422 28.9745 30.6301 29.0619C30.718 29.1493 30.7674 29.2678 30.7674 29.3914C30.7649 29.508 30.7858 29.6239 30.829 29.7323C30.8721 29.8407 30.9366 29.9395 31.0186 30.0228C31.1007 30.1061 31.1986 30.1723 31.3067 30.2175C31.4148 30.2627 31.5308 30.286 31.6481 30.286C31.7653 30.286 31.8814 30.2627 31.9894 30.2175C32.0975 30.1723 32.1954 30.1061 32.2775 30.0228C32.3595 29.9395 32.424 29.8407 32.4671 29.7323C32.5103 29.6239 32.5312 29.508 32.5288 29.3914H32.5303Z" fill="#2DBE60"/>
<path d="M46.2705 35.2936C45.95 34.7525 45.4286 34.3584 44.8186 34.1962C44.2086 34.034 43.559 34.1166 43.0097 34.4264C43.0436 33.3396 42.75 32.2675 42.1667 31.3479L36.8259 22.1467L39.2515 23.5114C39.4035 23.6058 39.5731 23.6686 39.7502 23.6961C39.9272 23.7236 40.108 23.7151 40.2817 23.6712C40.4554 23.6273 40.6184 23.5489 40.7607 23.4407C40.9031 23.3325 41.022 23.1967 41.1103 23.0416C41.1985 22.8865 41.2543 22.7152 41.2742 22.5381C41.2941 22.3609 41.2777 22.1816 41.226 22.011C41.1744 21.8403 41.0886 21.6818 40.9737 21.545C40.8588 21.4082 40.7172 21.296 40.5576 21.2151L36.1226 18.7191L36.8723 17.4275C37.1395 16.9811 37.2805 16.4712 37.2805 15.9517C37.2805 15.4322 37.1395 14.9224 36.8723 14.476C36.6171 14.0226 36.2435 13.6462 35.791 13.3864C35.3385 13.1267 34.8239 12.9933 34.3015 13.0003H29.104C28.5816 12.9932 28.067 13.1266 27.6146 13.3864C27.1621 13.6461 26.7886 14.0226 26.5335 14.476C26.2663 14.9224 26.1252 15.4322 26.1252 15.9517C26.1252 16.4712 26.2663 16.9811 26.5335 17.4275L27.3273 18.7952C27.1985 18.9346 27.1015 19.1001 27.0428 19.2802C26.9842 19.4603 26.9654 19.6509 26.9876 19.839C27.0098 20.027 27.0726 20.2081 27.1717 20.3698C27.2708 20.5315 27.4038 20.67 27.5616 20.7758C27.2404 21.1151 26.9603 21.4908 26.7272 21.8951L21.2395 31.3467C20.7147 32.1953 20.3911 33.1515 20.293 34.1429C19.7136 34.3401 19.1216 34.5759 18.4699 34.8477V34.0291C18.4699 33.9679 18.4578 33.9073 18.4343 33.8507C18.4107 33.7942 18.3762 33.7428 18.3327 33.6996C18.2892 33.6563 18.2375 33.622 18.1807 33.5985C18.1238 33.5751 18.0629 33.5631 18.0014 33.5631H13.0682C13.0066 33.5631 12.9457 33.5751 12.8889 33.5985C12.832 33.622 12.7804 33.6563 12.7368 33.6996C12.6933 33.7428 12.6588 33.7942 12.6353 33.8507C12.6117 33.9073 12.5996 33.9679 12.5996 34.0291V46.534C12.5996 46.6576 12.649 46.7761 12.7368 46.8635C12.8247 46.9509 12.9439 47 13.0682 47H18.0021C18.1264 47 18.2456 46.9509 18.3335 46.8635C18.4213 46.7761 18.4707 46.6576 18.4707 46.534V45.226C19.9535 44.5853 21.5267 44.1756 23.1349 44.0113C25.1208 43.8586 27.685 44.3584 28.9173 44.5984C30.0138 44.7247 31.1173 44.7815 32.2211 44.7685C34.8485 44.7845 35.0453 44.6384 35.1758 44.5425C35.1871 44.5344 35.198 44.5254 35.2082 44.5165L45.4139 38.5623C45.9628 38.2414 46.3613 37.7169 46.5219 37.1041C46.6825 36.4913 46.5921 35.8402 46.2705 35.2936ZM17.5347 44.9355V46.0691H13.536V34.4963H17.5347V44.9355ZM28.3058 20.0717C28.2023 20.0717 28.103 20.0308 28.0297 19.958C27.9565 19.8852 27.9154 19.7864 27.9154 19.6834C27.9154 19.5804 27.9565 19.4816 28.0297 19.4088C28.103 19.336 28.2023 19.295 28.3058 19.295H35.1C35.2036 19.295 35.3029 19.336 35.3761 19.4088C35.4493 19.4816 35.4905 19.5804 35.4905 19.6834C35.4905 19.7864 35.4493 19.8852 35.3761 19.958C35.3029 20.0308 35.2036 20.0717 35.1 20.0717H28.3058ZM40.2452 22.5549C40.22 22.5995 40.1862 22.6386 40.1457 22.6702C40.1052 22.7017 40.0588 22.725 40.0093 22.7387C39.9597 22.7524 39.9079 22.7562 39.8569 22.7499C39.8058 22.7436 39.7565 22.7273 39.7118 22.702L36.0246 20.6267C36.2159 20.4419 36.3468 20.2042 36.4003 19.9444L40.0972 22.0248C40.142 22.0498 40.1814 22.0835 40.2131 22.1237C40.2447 22.1639 40.2681 22.21 40.2819 22.2593C40.2956 22.3085 40.2995 22.36 40.2932 22.4107C40.2869 22.4614 40.2706 22.5104 40.2452 22.5549ZM27.3433 14.9401C27.5182 14.6297 27.7741 14.372 28.084 14.1943C28.3939 14.0166 28.7463 13.9254 29.104 13.9304H34.3023C34.6591 13.9304 35.0097 14.0239 35.3187 14.2014C35.6277 14.3788 35.8844 14.6341 36.0628 14.9415C36.2412 15.2488 36.3352 15.5975 36.3352 15.9524C36.3352 16.3073 36.2413 16.656 36.0629 16.9634L35.2449 18.3727C35.1969 18.3674 35.1487 18.3647 35.1004 18.3646H28.3062C28.258 18.3647 28.2097 18.3674 28.1618 18.3727L27.3418 16.9634C27.1587 16.6573 27.0623 16.3077 27.0625 15.9515C27.0628 15.5954 27.1598 15.2459 27.3433 14.9401ZM22.0494 31.8116L27.5358 22.3603C27.8339 21.8407 28.2254 21.38 28.6908 21.0011H34.7169C35.1817 21.3801 35.5726 21.8408 35.87 22.3603L41.3565 31.8116C42.0406 32.9895 42.2405 34.0768 41.9555 35.04L38.0004 37.3472C37.9511 36.855 37.7355 36.3939 37.3888 36.0393C37.0421 35.6848 36.5847 35.4576 36.0914 35.3949C35.4085 35.2737 34.4124 35.071 33.2605 34.8365C30.1129 34.1961 26.1957 33.3972 24.6331 33.4213C23.4976 33.4217 22.3668 33.5652 21.2676 33.8485C21.4024 33.1282 21.6673 32.4381 22.0494 31.8116ZM44.9406 37.7604L34.6744 43.7503L34.6619 43.758C32.8086 43.8878 30.9477 43.8635 29.0985 43.6854C27.8252 43.4377 25.1758 42.9219 23.0642 43.0839C21.4872 43.2445 19.9407 43.6245 18.4699 44.2128V35.859C20.7596 34.8932 22.1286 34.3871 24.6468 34.3514C26.1114 34.3312 30.1336 35.1499 33.0731 35.7495C34.2316 35.9852 35.2328 36.1891 35.9266 36.3122C36.779 36.4637 37.1265 36.9864 37.1265 38.1169V38.1277C37.1214 38.2751 37.0837 38.4196 37.0162 38.5509C36.9488 38.6822 36.8531 38.7972 36.7361 38.8877C36.5507 39.0354 36.3362 39.1426 36.1065 39.2024C35.8767 39.2623 35.6369 39.2733 35.4026 39.2349L28.8142 38.0629C28.7521 38.0478 28.6875 38.0456 28.6245 38.0564C28.5614 38.0671 28.5013 38.0905 28.4477 38.1253C28.3941 38.16 28.3482 38.2053 28.3129 38.2583C28.2776 38.3113 28.2535 38.371 28.2423 38.4336C28.231 38.4962 28.2327 38.5605 28.2474 38.6224C28.262 38.6843 28.2893 38.7426 28.3274 38.7937C28.3655 38.8447 28.4138 38.8875 28.4692 38.9193C28.5246 38.9511 28.5859 38.9713 28.6494 38.9786L35.2371 40.1495C35.606 40.2117 35.9841 40.1948 36.346 40.0999C36.7078 40.0051 37.0452 39.8345 37.3354 39.5996C37.7089 39.2995 37.9589 38.8737 38.0383 38.4027L43.4537 35.2419C43.7893 35.0458 44.1894 34.9903 44.5662 35.0876C44.9429 35.185 45.2653 35.4272 45.4625 35.7609C45.6596 36.0947 45.7154 36.4927 45.6176 36.8674C45.5197 37.242 45.2762 37.5627 44.9406 37.7588V37.7604ZM32.5303 29.3914C32.5303 28.7623 32.2449 28.6694 31.5413 28.5028C30.8611 28.3417 29.8337 28.0986 29.8337 26.7094C29.8341 26.3115 29.9665 25.9249 30.2102 25.6094C30.454 25.2938 30.7956 25.0671 31.182 24.9642V24.5308C31.182 24.4072 31.2314 24.2887 31.3193 24.2013C31.4071 24.1139 31.5263 24.0648 31.6506 24.0648C31.7749 24.0648 31.894 24.1139 31.9819 24.2013C32.0698 24.2887 32.1192 24.4072 32.1192 24.5308V24.9642C32.5056 25.0671 32.8472 25.2938 33.091 25.6094C33.3347 25.9249 33.467 26.3115 33.4674 26.7094C33.4598 26.8276 33.4072 26.9384 33.3203 27.0194C33.2335 27.1003 33.1189 27.1454 32.9999 27.1454C32.8808 27.1454 32.7662 27.1003 32.6794 27.0194C32.5926 26.9384 32.54 26.8276 32.5323 26.7094C32.5347 26.5929 32.5138 26.477 32.4706 26.3685C32.4275 26.2601 32.363 26.1614 32.281 26.078C32.199 25.9947 32.101 25.9285 31.993 25.8833C31.8849 25.8382 31.7688 25.8149 31.6516 25.8149C31.5343 25.8149 31.4183 25.8382 31.3102 25.8833C31.2021 25.9285 31.1042 25.9947 31.0222 26.078C30.9401 26.1614 30.8757 26.2601 30.8325 26.3685C30.7894 26.477 30.7684 26.5929 30.7709 26.7094C30.7709 27.3386 31.0563 27.4314 31.7599 27.598C32.4401 27.7592 33.4674 28.0023 33.4674 29.3914C33.4668 29.7897 33.3339 30.1767 33.0895 30.4923C32.8451 30.8079 32.5027 31.0344 32.1156 31.1366V31.57C32.1156 31.6936 32.0663 31.8122 31.9784 31.8996C31.8905 31.987 31.7714 32.0361 31.6471 32.0361C31.5228 32.0361 31.4036 31.987 31.3158 31.8996C31.2279 31.8122 31.1785 31.6936 31.1785 31.57V31.1366C30.7921 31.0337 30.4505 30.8069 30.2068 30.4914C29.9631 30.1759 29.8307 29.7893 29.8302 29.3914C29.8302 29.2678 29.8796 29.1493 29.9675 29.0619C30.0553 28.9745 30.1745 28.9254 30.2988 28.9254C30.4231 28.9254 30.5422 28.9745 30.6301 29.0619C30.718 29.1493 30.7674 29.2678 30.7674 29.3914C30.7649 29.508 30.7858 29.6239 30.829 29.7323C30.8721 29.8407 30.9366 29.9395 31.0186 30.0228C31.1007 30.1061 31.1986 30.1723 31.3067 30.2175C31.4148 30.2627 31.5308 30.286 31.6481 30.286C31.7653 30.286 31.8814 30.2627 31.9894 30.2175C32.0975 30.1723 32.1954 30.1061 32.2775 30.0228C32.3595 29.9395 32.424 29.8407 32.4671 29.7323C32.5103 29.6239 32.5312 29.508 32.5288 29.3914H32.5303Z" stroke="#2DBE60" stroke-width="0.5" mask="url(#path-3-outside-1_987_53343)"/>
</svg>
