<svg width="80" height="80" viewBox="0 0 80 80" fill="none" xmlns="http://www.w3.org/2000/svg">
<rect width="80" height="80" rx="40" fill="#F5A623"/>
<rect x="0.5" y="0.5" width="79" height="79" rx="39.5" stroke="white" stroke-opacity="0.4" stroke-dasharray="3 2"/>
<path d="M25 47.4063C25.0044 49.243 25.4075 51.0568 26.1815 52.7225C26.9555 54.3881 28.082 55.8658 29.4831 57.0535C32.4566 59.6199 36.2594 61.0218 40.1872 60.9997H40.2829C48.6429 60.9997 55.4674 54.9853 55.5159 47.5519C55.5437 42.4086 52.3908 35.6923 47.8398 31.8778H48.5944C48.9623 31.8778 49.3151 31.7317 49.5752 31.4716C49.8353 31.2114 49.9815 30.8586 49.9815 30.4907C49.9815 30.1229 49.8353 29.77 49.5752 29.5099C49.3151 29.2498 48.9623 29.1036 48.5944 29.1036H44.8825L46.9299 24.7315C47.1293 24.3086 47.2186 23.8421 47.1894 23.3755C47.1603 22.9088 47.0137 22.457 46.7632 22.0622C46.5127 21.6674 46.1665 21.3423 45.7567 21.1171C45.3469 20.8919 44.8868 20.7739 44.4192 20.7742H40.5187L40.1401 19.788C39.9658 19.2671 39.6322 18.8141 39.1863 18.4933C38.7405 18.1724 38.2051 17.9998 37.6558 18H34.557C34.1204 17.9997 33.6906 18.1086 33.3068 18.3167C32.923 18.5249 32.5973 18.8257 32.3594 19.1918C32.1215 19.5579 31.9789 19.9777 31.9446 20.413C31.9102 20.8483 31.9853 21.2852 32.1629 21.6841L35.4573 29.0967H31.9493C31.5814 29.0967 31.2286 29.2428 30.9685 29.503C30.7084 29.7631 30.5622 30.1159 30.5622 30.4838C30.5622 30.8517 30.7084 31.2045 30.9685 31.4646C31.2286 31.7247 31.5814 31.8709 31.9493 31.8709H32.74C28.2083 35.6701 25.0277 42.3226 25 47.4063ZM52.7418 47.545C52.7043 53.4776 47.0824 58.3143 40.2011 58.2353C36.9456 58.2571 33.7922 57.0997 31.3237 54.977C30.2196 54.0492 29.3302 52.8924 28.7174 51.5869C28.1045 50.2814 27.7826 48.8582 27.7742 47.416C27.8047 41.6623 32.6581 33.4327 38.316 31.8806L42.229 31.8709C47.9438 33.405 52.7723 41.7109 52.7418 47.5353V47.545ZM34.7942 20.7742H37.5476L38.2717 22.6578L38.9541 24.5318C39.0123 24.7082 39.1053 24.8712 39.2277 25.011C39.3501 25.1508 39.4993 25.2646 39.6665 25.3456C39.8337 25.4266 40.0155 25.4732 40.2011 25.4827C40.3866 25.4921 40.5722 25.4641 40.7467 25.4005C40.9213 25.3368 41.0812 25.2387 41.2172 25.112C41.3531 24.9854 41.4621 24.8327 41.5379 24.663C41.6137 24.4934 41.6546 24.3102 41.6582 24.1245C41.6619 23.9387 41.6281 23.7541 41.5591 23.5816L41.548 23.5484H44.4192L41.8212 29.0967H38.4922L34.7942 20.7742Z" fill="white"/>
<path d="M40.2705 44.3563C40.027 44.3563 39.7878 44.2923 39.577 44.1705C39.3661 44.0488 39.191 43.8737 39.0693 43.6628C38.9475 43.452 38.8834 43.2128 38.8834 42.9693C38.8834 42.7258 38.9475 42.4866 39.0692 42.2757C39.191 42.0649 39.3661 41.8898 39.5769 41.768C39.7878 41.6463 40.027 41.5822 40.2705 41.5822C40.514 41.5822 40.7532 41.6463 40.964 41.768C41.1749 41.8897 41.35 42.0648 41.4717 42.2757C41.6615 42.5824 41.9632 42.8031 42.3129 42.8911C42.6627 42.9791 43.0329 42.9274 43.3452 42.747C43.6575 42.5666 43.8872 42.2717 43.9857 41.9248C44.0842 41.5778 44.0437 41.2062 43.8728 40.8886C43.3698 40.0438 42.5834 39.4048 41.6535 39.0854V38.808C41.6535 38.4401 41.5073 38.0873 41.2472 37.8272C40.9871 37.567 40.6342 37.4209 40.2664 37.4209C39.8985 37.4209 39.5457 37.567 39.2855 37.8272C39.0254 38.0873 38.8793 38.4401 38.8793 38.808V39.0632C37.9545 39.3889 37.1749 40.0314 36.6785 40.8769C36.182 41.7223 36.0008 42.7162 36.167 43.6825C36.3331 44.6487 36.8359 45.525 37.5862 46.1561C38.3365 46.7872 39.2859 47.1324 40.2664 47.1305C40.5099 47.1305 40.749 47.1946 40.9599 47.3163C41.1708 47.4381 41.3459 47.6132 41.4676 47.824C41.5894 48.0349 41.6535 48.2741 41.6535 48.5176C41.6535 48.7611 41.5894 49.0003 41.4677 49.2111C41.3459 49.422 41.1708 49.5971 40.96 49.7189C40.7491 49.8406 40.5099 49.9047 40.2664 49.9047C40.0229 49.9047 39.7837 49.8406 39.5729 49.7189C39.362 49.5971 39.1869 49.422 39.0651 49.2111C38.8799 48.8952 38.5772 48.6653 38.2231 48.5717C37.869 48.478 37.4922 48.5283 37.175 48.7114C36.8578 48.8946 36.6259 49.1957 36.5299 49.5492C36.4339 49.9027 36.4817 50.2798 36.6627 50.5982C37.1663 51.4426 37.9525 52.0814 38.8821 52.4015V52.6789C38.8821 53.0467 39.0282 53.3996 39.2883 53.6597C39.5484 53.9198 39.9013 54.066 40.2691 54.066C40.637 54.066 40.9898 53.9198 41.25 53.6597C41.5101 53.3996 41.6562 53.0467 41.6562 52.6789V52.4236C42.581 52.0979 43.3606 51.4554 43.857 50.61C44.3535 49.7645 44.5347 48.7706 44.3685 47.8044C44.2024 46.8381 43.6996 45.9619 42.9493 45.3308C42.199 44.6997 41.251 44.3545 40.2705 44.3563Z" fill="white"/>
</svg>
