<svg width="80" height="80" viewBox="0 0 80 80" fill="none" xmlns="http://www.w3.org/2000/svg">
<rect width="80" height="80" rx="40" fill="#7239EA"/>
<rect x="0.5" y="0.5" width="79" height="79" rx="39.5" stroke="white" stroke-opacity="0.4" stroke-dasharray="3 2"/>
<path d="M39.4766 21.4541C39.8111 21.3151 40.1889 21.3151 40.5234 21.4541L40.5225 21.4551L56.7695 28.085L56.8652 28.1289C57.333 28.3634 57.6348 28.8423 57.6348 29.373V34.7021C57.6347 35.0691 57.4864 35.4227 57.2266 35.6826C56.9669 35.9422 56.6158 36.0898 56.2471 36.0898H53.7627V48.7441C56.1102 49.7335 57.6445 52.0336 57.6504 54.5889V55.2617C57.6504 55.6308 57.502 55.9823 57.2422 56.2422C56.9824 56.5021 56.6295 56.6503 56.2627 56.6504H23.7373C23.3705 56.6503 23.0176 56.502 22.7578 56.2422C22.498 55.9823 22.3496 55.6308 22.3496 55.2617V54.5889L22.3555 54.3467C22.4541 51.8891 23.9636 49.7021 26.2363 48.7441V36.0898H23.7529C23.3842 36.0898 23.0332 35.9422 22.7734 35.6826C22.5136 35.4227 22.3653 35.0691 22.3652 34.7021V29.373C22.3652 28.807 22.7085 28.2994 23.2305 28.085L39.4766 21.4551V21.4541ZM28.6992 51.0195C26.9956 51.0195 25.5427 52.2215 25.2021 53.874H54.7969C54.4563 52.2215 53.0034 51.0195 51.2998 51.0195H28.6992ZM46.8965 48.2432H50.9883V36.0898H46.8965V48.2432ZM35.8779 48.2432H44.1211V36.0898H35.8779V48.2432ZM29.0117 48.2432H33.1035V36.0898H29.0117V48.2432ZM25.1396 30.3047V33.3135L54.8594 33.3125V30.3057L39.999 24.2402L25.1396 30.3047Z" fill="white" stroke="white" stroke-width="0.3"/>
</svg>
