<svg width="80" height="80" viewBox="0 0 80 80" fill="none" xmlns="http://www.w3.org/2000/svg">
<rect x="0.5" y="0.5" width="79" height="79" rx="39.5" fill="url(#paint0_linear_999_47000)"/>
<rect x="0.5" y="0.5" width="79" height="79" rx="39.5" stroke="url(#paint1_linear_999_47000)"/>
<g filter="url(#filter0_d_999_47000)">
<rect x="16" y="16" width="48" height="48" rx="24" fill="white" shape-rendering="crispEdges"/>
<rect x="16.5" y="16.5" width="47" height="47" rx="23.5" stroke="#DFE1E7" shape-rendering="crispEdges"/>
<path d="M41.6668 41.8763V48.333H33.3335C33.3335 44.6511 36.3183 41.6663 40.0002 41.6663C40.5757 41.6663 41.1342 41.7393 41.6668 41.8763ZM40.0002 40.833C37.2377 40.833 35.0002 38.5955 35.0002 35.833C35.0002 33.0705 37.2377 30.833 40.0002 30.833C42.7627 30.833 45.0002 33.0705 45.0002 35.833C45.0002 38.5955 42.7627 40.833 40.0002 40.833ZM45.0002 44.1663V41.6663H46.6668V44.1663H49.1668V45.833H46.6668V48.333H45.0002V45.833H42.5002V44.1663H45.0002Z" fill="#272835"/>
</g>
<defs>
<filter id="filter0_d_999_47000" x="14" y="15" width="52" height="52" filterUnits="userSpaceOnUse" color-interpolation-filters="sRGB">
<feFlood flood-opacity="0" result="BackgroundImageFix"/>
<feColorMatrix in="SourceAlpha" type="matrix" values="0 0 0 0 0 0 0 0 0 0 0 0 0 0 0 0 0 0 127 0" result="hardAlpha"/>
<feOffset dy="1"/>
<feGaussianBlur stdDeviation="1"/>
<feComposite in2="hardAlpha" operator="out"/>
<feColorMatrix type="matrix" values="0 0 0 0 0.0509804 0 0 0 0 0.0509804 0 0 0 0 0.0705882 0 0 0 0.06 0"/>
<feBlend mode="normal" in2="BackgroundImageFix" result="effect1_dropShadow_999_47000"/>
<feBlend mode="normal" in="SourceGraphic" in2="effect1_dropShadow_999_47000" result="shape"/>
</filter>
<linearGradient id="paint0_linear_999_47000" x1="40" y1="0" x2="40" y2="80" gradientUnits="userSpaceOnUse">
<stop offset="0.0001" stop-color="#ECEFF3" stop-opacity="0"/>
<stop offset="1" stop-color="#ECEFF3"/>
</linearGradient>
<linearGradient id="paint1_linear_999_47000" x1="40" y1="0" x2="40" y2="80" gradientUnits="userSpaceOnUse">
<stop stop-color="#DFE1E7" stop-opacity="0"/>
<stop offset="1" stop-color="#DFE1E7"/>
</linearGradient>
</defs>
</svg>
