<svg width="28" height="28" viewBox="0 0 28 28" fill="none" xmlns="http://www.w3.org/2000/svg">
<rect width="28" height="28" rx="4" fill="white"/>
<path fill-rule="evenodd" clip-rule="evenodd" d="M6 7C6 6.44772 6.44772 6 7 6H10V22H7C6.44772 22 6 21.5523 6 21V7ZM11 4H21C22.6569 4 24 5.34315 24 7V21C24 22.6569 22.6569 24 21 24H11H7C5.34315 24 4 22.6569 4 21V7C4 5.34315 5.34315 4 7 4H11ZM12 6V5C12 4.44772 11.5523 4 11 4C10.4477 4 10 4.44772 10 5V6H12ZM12 6H21C21.5523 6 22 6.44772 22 7V21C22 21.5523 21.5523 22 21 22H12V6Z" fill="#6B7280"/>
<path d="M12 5C12 4.44772 11.5523 4 11 4C10.4477 4 10 4.44772 10 5V6H12V5Z" fill="#6B7280"/>
</svg>
