<svg width="25" height="24" viewBox="0 0 25 24" fill="none" xmlns="http://www.w3.org/2000/svg">
<mask id="path-1-outside-1_987_50467" maskUnits="userSpaceOnUse" x="0" y="-0.551758" width="25" height="25" fill="black">
<rect fill="white" y="-0.551758" width="25" height="25"/>
<path d="M23.7774 15.5292C23.5606 15.1632 23.2078 14.8966 22.7952 14.7868C22.3826 14.6771 21.9431 14.733 21.5716 14.9425C21.5944 14.2074 21.3958 13.4822 21.0013 12.8601L17.3884 6.63572L19.0292 7.55888C19.132 7.62275 19.2468 7.66525 19.3665 7.68384C19.4863 7.70242 19.6086 7.69669 19.7261 7.667C19.8436 7.63731 19.9539 7.58426 20.0502 7.51107C20.1465 7.43787 20.2269 7.34604 20.2866 7.2411C20.3463 7.13616 20.384 7.02029 20.3975 6.90046C20.4109 6.78064 20.3999 6.65935 20.3649 6.5439C20.33 6.42845 20.2719 6.32122 20.1942 6.22869C20.1165 6.13616 20.0208 6.06023 19.9127 6.00548L16.9126 4.31706L17.4198 3.44329C17.6005 3.14132 17.6959 2.79642 17.6959 2.445C17.6959 2.09359 17.6005 1.74869 17.4198 1.44671C17.2471 1.14001 16.9944 0.885356 16.6883 0.709646C16.3822 0.533936 16.0341 0.443686 15.6807 0.448422H12.1647C11.8113 0.443648 11.4632 0.533886 11.1572 0.709602C10.8511 0.885318 10.5984 1.13999 10.4259 1.44671C10.2451 1.74867 10.1497 2.09358 10.1497 2.445C10.1497 2.79643 10.2451 3.14133 10.4259 3.44329L10.9629 4.36855C10.8757 4.46286 10.8101 4.57476 10.7704 4.69662C10.7308 4.81847 10.718 4.94741 10.7331 5.07462C10.7481 5.20182 10.7906 5.3243 10.8576 5.43367C10.9246 5.54305 11.0146 5.63675 11.1213 5.70836C10.904 5.93788 10.7146 6.192 10.5569 6.46549L6.84464 12.8593C6.48965 13.4333 6.27069 14.0801 6.20437 14.7508C5.81238 14.8842 5.41194 15.0437 4.97109 15.2276V14.6738C4.97109 14.6324 4.96289 14.5914 4.94697 14.5532C4.93104 14.5149 4.90769 14.4802 4.87826 14.4509C4.84882 14.4216 4.81388 14.3984 4.77542 14.3825C4.73697 14.3667 4.69575 14.3585 4.65412 14.3585H1.31697C1.27534 14.3585 1.23413 14.3667 1.19567 14.3825C1.15721 14.3984 1.12227 14.4216 1.09284 14.4509C1.0634 14.4802 1.04006 14.5149 1.02413 14.5532C1.0082 14.5914 1 14.6324 1 14.6738V23.133C1 23.2166 1.03339 23.2968 1.09284 23.3559C1.15228 23.415 1.2329 23.4482 1.31697 23.4482H4.65465C4.73872 23.4482 4.81934 23.415 4.87878 23.3559C4.93823 23.2968 4.97162 23.2166 4.97162 23.133V22.2482C5.97469 21.8148 7.03888 21.5376 8.12678 21.4264C9.4702 21.3232 11.2048 21.6613 12.0384 21.8237C12.7802 21.9091 13.5267 21.9475 14.2733 21.9387C16.0507 21.9495 16.1839 21.8507 16.2721 21.7858C16.2798 21.7803 16.2872 21.7743 16.294 21.7682L23.1979 17.7404C23.5692 17.5233 23.8388 17.1685 23.9474 16.754C24.0561 16.3394 23.9949 15.8989 23.7774 15.5292ZM4.33848 22.0517V22.8185H1.63341V14.9898H4.33848V22.0517ZM11.6248 5.23207C11.5547 5.23207 11.4876 5.20439 11.438 5.15513C11.3885 5.10586 11.3607 5.03904 11.3607 4.96936C11.3607 4.89969 11.3885 4.83287 11.438 4.7836C11.4876 4.73433 11.5547 4.70666 11.6248 4.70666H16.2209C16.2909 4.70666 16.3581 4.73433 16.4076 4.7836C16.4572 4.83287 16.485 4.89969 16.485 4.96936C16.485 5.03904 16.4572 5.10586 16.4076 5.15513C16.3581 5.20439 16.2909 5.23207 16.2209 5.23207H11.6248ZM19.7014 6.91183C19.6844 6.94199 19.6615 6.9685 19.6341 6.98984C19.6067 7.01118 19.5754 7.02693 19.5418 7.03618C19.5083 7.04544 19.4733 7.04801 19.4387 7.04375C19.4042 7.0395 19.3709 7.0285 19.3406 7.01139L16.8463 5.60748C16.9757 5.48249 17.0643 5.32165 17.1004 5.1459L19.6013 6.55323C19.6316 6.5702 19.6582 6.59294 19.6797 6.62016C19.7011 6.64738 19.7169 6.67854 19.7262 6.71186C19.7355 6.74517 19.7381 6.77999 19.7339 6.8143C19.7296 6.84862 19.7186 6.88176 19.7014 6.91183ZM10.9737 1.76065C11.092 1.55068 11.2651 1.37638 11.4747 1.25616C11.6843 1.13593 11.9227 1.07424 12.1647 1.07761H15.6812C15.9226 1.07764 16.1598 1.14086 16.3688 1.26092C16.5779 1.38098 16.7515 1.55365 16.8722 1.76158C16.9929 1.96951 17.0564 2.20537 17.0564 2.44546C17.0564 2.68555 16.9929 2.92142 16.8722 3.12936L16.3188 4.08272C16.2864 4.07916 16.2538 4.07732 16.2211 4.07721H11.6251C11.5924 4.07732 11.5598 4.07916 11.5273 4.08272L10.9726 3.12936C10.8488 2.92228 10.7836 2.68578 10.7837 2.44486C10.7839 2.20393 10.8496 1.96753 10.9737 1.76065ZM7.39247 13.1737L11.1039 6.78021C11.3055 6.42872 11.5704 6.11705 11.8852 5.86073H15.9617C16.2761 6.11715 16.5405 6.42881 16.7417 6.78021L20.4532 13.1737C20.916 13.9705 21.0512 14.7061 20.8584 15.3576L18.1829 16.9184C18.1496 16.5854 18.0037 16.2735 17.7692 16.0337C17.5346 15.7938 17.2252 15.6401 16.8915 15.5977C16.4295 15.5158 15.7557 15.3786 14.9765 15.22C12.8472 14.7868 10.1974 14.2464 9.14029 14.2627C8.37219 14.2629 7.60721 14.36 6.86366 14.5516C6.95485 14.0644 7.13401 13.5975 7.39247 13.1737ZM22.8777 17.1979L15.9329 21.2499L15.9245 21.2552C14.6708 21.3429 13.4119 21.3265 12.161 21.206C11.2996 21.0384 9.50745 20.6895 8.07897 20.7991C7.01218 20.9077 5.96601 21.1648 4.97109 21.5628V15.9117C6.52001 15.2583 7.44609 14.916 9.14954 14.8918C10.1403 14.8782 12.8612 15.432 14.8497 15.8376C15.6334 15.9971 16.3107 16.135 16.78 16.2183C17.3567 16.3207 17.5917 16.6743 17.5917 17.4391V17.4464C17.5882 17.5461 17.5628 17.6438 17.5171 17.7327C17.4715 17.8215 17.4068 17.8993 17.3276 17.9605C17.2022 18.0604 17.0571 18.133 16.9017 18.1734C16.7463 18.2139 16.5841 18.2214 16.4256 18.1954L11.9687 17.4025C11.9267 17.3924 11.883 17.3909 11.8403 17.3981C11.7977 17.4054 11.757 17.4213 11.7207 17.4447C11.6845 17.4682 11.6535 17.4989 11.6296 17.5347C11.6057 17.5706 11.5894 17.611 11.5818 17.6533C11.5742 17.6957 11.5753 17.7391 11.5853 17.781C11.5952 17.8229 11.6136 17.8623 11.6394 17.8969C11.6652 17.9314 11.6978 17.9603 11.7353 17.9819C11.7728 18.0034 11.8143 18.017 11.8572 18.022L16.3136 18.8141C16.5632 18.8561 16.8189 18.8447 17.0637 18.7806C17.3085 18.7164 17.5367 18.601 17.7331 18.4421C17.9857 18.2391 18.1548 17.951 18.2085 17.6324L21.8719 15.4942C22.0989 15.3616 22.3696 15.324 22.6244 15.3899C22.8793 15.4557 23.0974 15.6196 23.2308 15.8453C23.3641 16.0711 23.4019 16.3404 23.3357 16.5938C23.2695 16.8473 23.1047 17.0642 22.8777 17.1968V17.1979ZM14.4825 11.5365C14.4825 11.111 14.2895 11.0482 13.8135 10.9355C13.3533 10.8264 12.6584 10.662 12.6584 9.72228C12.6587 9.45311 12.7482 9.19154 12.9131 8.9781C13.078 8.76466 13.309 8.61126 13.5705 8.54167V8.24848C13.5705 8.16488 13.6039 8.08469 13.6633 8.02557C13.7227 7.96645 13.8034 7.93324 13.8874 7.93324C13.9715 7.93324 14.0521 7.96645 14.1116 8.02557C14.171 8.08469 14.2044 8.16488 14.2044 8.24848V8.54167C14.4658 8.61126 14.6969 8.76466 14.8618 8.9781C15.0267 9.19154 15.1162 9.45311 15.1165 9.72228C15.1113 9.8022 15.0757 9.87716 15.0169 9.93193C14.9582 9.98671 14.8807 10.0172 14.8002 10.0172C14.7196 10.0172 14.6421 9.98671 14.5834 9.93193C14.5246 9.87716 14.4891 9.8022 14.4839 9.72228C14.4855 9.64341 14.4714 9.56501 14.4422 9.49167C14.413 9.41832 14.3694 9.35151 14.3139 9.29515C14.2584 9.23879 14.1921 9.19402 14.119 9.16345C14.0459 9.13288 13.9674 9.11713 13.8881 9.11713C13.8088 9.11713 13.7303 9.13288 13.6572 9.16345C13.584 9.19402 13.5178 9.23879 13.4623 9.29515C13.4068 9.35151 13.3632 9.41832 13.334 9.49167C13.3048 9.56501 13.2907 9.64341 13.2923 9.72228C13.2923 10.1479 13.4854 10.2107 13.9614 10.3234C14.4215 10.4324 15.1165 10.5968 15.1165 11.5365C15.116 11.806 15.0261 12.0678 14.8608 12.2813C14.6955 12.4947 14.4639 12.648 14.202 12.7171V13.0103C14.202 13.0939 14.1686 13.1741 14.1092 13.2332C14.0497 13.2924 13.9691 13.3256 13.8851 13.3256C13.801 13.3256 13.7204 13.2924 13.6609 13.2332C13.6015 13.1741 13.5681 13.0939 13.5681 13.0103V12.7171C13.3067 12.6475 13.0756 12.4941 12.9107 12.2807C12.7459 12.0672 12.6563 11.8057 12.656 11.5365C12.656 11.4529 12.6894 11.3727 12.7488 11.3136C12.8083 11.2545 12.8889 11.2213 12.973 11.2213C13.057 11.2213 13.1377 11.2545 13.1971 11.3136C13.2565 11.3727 13.2899 11.4529 13.2899 11.5365C13.2883 11.6154 13.3025 11.6938 13.3316 11.7671C13.3608 11.8405 13.4044 11.9073 13.4599 11.9637C13.5154 12.02 13.5817 12.0648 13.6548 12.0954C13.7279 12.1259 13.8064 12.1417 13.8857 12.1417C13.965 12.1417 14.0435 12.1259 14.1167 12.0954C14.1898 12.0648 14.256 12.02 14.3115 11.9637C14.367 11.9073 14.4106 11.8405 14.4398 11.7671C14.469 11.6938 14.4832 11.6154 14.4815 11.5365H14.4825Z"/>
</mask>
<path d="M23.7774 15.5292C23.5606 15.1632 23.2078 14.8966 22.7952 14.7868C22.3826 14.6771 21.9431 14.733 21.5716 14.9425C21.5944 14.2074 21.3958 13.4822 21.0013 12.8601L17.3884 6.63572L19.0292 7.55888C19.132 7.62275 19.2468 7.66525 19.3665 7.68384C19.4863 7.70242 19.6086 7.69669 19.7261 7.667C19.8436 7.63731 19.9539 7.58426 20.0502 7.51107C20.1465 7.43787 20.2269 7.34604 20.2866 7.2411C20.3463 7.13616 20.384 7.02029 20.3975 6.90046C20.4109 6.78064 20.3999 6.65935 20.3649 6.5439C20.33 6.42845 20.2719 6.32122 20.1942 6.22869C20.1165 6.13616 20.0208 6.06023 19.9127 6.00548L16.9126 4.31706L17.4198 3.44329C17.6005 3.14132 17.6959 2.79642 17.6959 2.445C17.6959 2.09359 17.6005 1.74869 17.4198 1.44671C17.2471 1.14001 16.9944 0.885356 16.6883 0.709646C16.3822 0.533936 16.0341 0.443686 15.6807 0.448422H12.1647C11.8113 0.443648 11.4632 0.533886 11.1572 0.709602C10.8511 0.885318 10.5984 1.13999 10.4259 1.44671C10.2451 1.74867 10.1497 2.09358 10.1497 2.445C10.1497 2.79643 10.2451 3.14133 10.4259 3.44329L10.9629 4.36855C10.8757 4.46286 10.8101 4.57476 10.7704 4.69662C10.7308 4.81847 10.718 4.94741 10.7331 5.07462C10.7481 5.20182 10.7906 5.3243 10.8576 5.43367C10.9246 5.54305 11.0146 5.63675 11.1213 5.70836C10.904 5.93788 10.7146 6.192 10.5569 6.46549L6.84464 12.8593C6.48965 13.4333 6.27069 14.0801 6.20437 14.7508C5.81238 14.8842 5.41194 15.0437 4.97109 15.2276V14.6738C4.97109 14.6324 4.96289 14.5914 4.94697 14.5532C4.93104 14.5149 4.90769 14.4802 4.87826 14.4509C4.84882 14.4216 4.81388 14.3984 4.77542 14.3825C4.73697 14.3667 4.69575 14.3585 4.65412 14.3585H1.31697C1.27534 14.3585 1.23413 14.3667 1.19567 14.3825C1.15721 14.3984 1.12227 14.4216 1.09284 14.4509C1.0634 14.4802 1.04006 14.5149 1.02413 14.5532C1.0082 14.5914 1 14.6324 1 14.6738V23.133C1 23.2166 1.03339 23.2968 1.09284 23.3559C1.15228 23.415 1.2329 23.4482 1.31697 23.4482H4.65465C4.73872 23.4482 4.81934 23.415 4.87878 23.3559C4.93823 23.2968 4.97162 23.2166 4.97162 23.133V22.2482C5.97469 21.8148 7.03888 21.5376 8.12678 21.4264C9.4702 21.3232 11.2048 21.6613 12.0384 21.8237C12.7802 21.9091 13.5267 21.9475 14.2733 21.9387C16.0507 21.9495 16.1839 21.8507 16.2721 21.7858C16.2798 21.7803 16.2872 21.7743 16.294 21.7682L23.1979 17.7404C23.5692 17.5233 23.8388 17.1685 23.9474 16.754C24.0561 16.3394 23.9949 15.8989 23.7774 15.5292ZM4.33848 22.0517V22.8185H1.63341V14.9898H4.33848V22.0517ZM11.6248 5.23207C11.5547 5.23207 11.4876 5.20439 11.438 5.15513C11.3885 5.10586 11.3607 5.03904 11.3607 4.96936C11.3607 4.89969 11.3885 4.83287 11.438 4.7836C11.4876 4.73433 11.5547 4.70666 11.6248 4.70666H16.2209C16.2909 4.70666 16.3581 4.73433 16.4076 4.7836C16.4572 4.83287 16.485 4.89969 16.485 4.96936C16.485 5.03904 16.4572 5.10586 16.4076 5.15513C16.3581 5.20439 16.2909 5.23207 16.2209 5.23207H11.6248ZM19.7014 6.91183C19.6844 6.94199 19.6615 6.9685 19.6341 6.98984C19.6067 7.01118 19.5754 7.02693 19.5418 7.03618C19.5083 7.04544 19.4733 7.04801 19.4387 7.04375C19.4042 7.0395 19.3709 7.0285 19.3406 7.01139L16.8463 5.60748C16.9757 5.48249 17.0643 5.32165 17.1004 5.1459L19.6013 6.55323C19.6316 6.5702 19.6582 6.59294 19.6797 6.62016C19.7011 6.64738 19.7169 6.67854 19.7262 6.71186C19.7355 6.74517 19.7381 6.77999 19.7339 6.8143C19.7296 6.84862 19.7186 6.88176 19.7014 6.91183ZM10.9737 1.76065C11.092 1.55068 11.2651 1.37638 11.4747 1.25616C11.6843 1.13593 11.9227 1.07424 12.1647 1.07761H15.6812C15.9226 1.07764 16.1598 1.14086 16.3688 1.26092C16.5779 1.38098 16.7515 1.55365 16.8722 1.76158C16.9929 1.96951 17.0564 2.20537 17.0564 2.44546C17.0564 2.68555 16.9929 2.92142 16.8722 3.12936L16.3188 4.08272C16.2864 4.07916 16.2538 4.07732 16.2211 4.07721H11.6251C11.5924 4.07732 11.5598 4.07916 11.5273 4.08272L10.9726 3.12936C10.8488 2.92228 10.7836 2.68578 10.7837 2.44486C10.7839 2.20393 10.8496 1.96753 10.9737 1.76065ZM7.39247 13.1737L11.1039 6.78021C11.3055 6.42872 11.5704 6.11705 11.8852 5.86073H15.9617C16.2761 6.11715 16.5405 6.42881 16.7417 6.78021L20.4532 13.1737C20.916 13.9705 21.0512 14.7061 20.8584 15.3576L18.1829 16.9184C18.1496 16.5854 18.0037 16.2735 17.7692 16.0337C17.5346 15.7938 17.2252 15.6401 16.8915 15.5977C16.4295 15.5158 15.7557 15.3786 14.9765 15.22C12.8472 14.7868 10.1974 14.2464 9.14029 14.2627C8.37219 14.2629 7.60721 14.36 6.86366 14.5516C6.95485 14.0644 7.13401 13.5975 7.39247 13.1737ZM22.8777 17.1979L15.9329 21.2499L15.9245 21.2552C14.6708 21.3429 13.4119 21.3265 12.161 21.206C11.2996 21.0384 9.50745 20.6895 8.07897 20.7991C7.01218 20.9077 5.96601 21.1648 4.97109 21.5628V15.9117C6.52001 15.2583 7.44609 14.916 9.14954 14.8918C10.1403 14.8782 12.8612 15.432 14.8497 15.8376C15.6334 15.9971 16.3107 16.135 16.78 16.2183C17.3567 16.3207 17.5917 16.6743 17.5917 17.4391V17.4464C17.5882 17.5461 17.5628 17.6438 17.5171 17.7327C17.4715 17.8215 17.4068 17.8993 17.3276 17.9605C17.2022 18.0604 17.0571 18.133 16.9017 18.1734C16.7463 18.2139 16.5841 18.2214 16.4256 18.1954L11.9687 17.4025C11.9267 17.3924 11.883 17.3909 11.8403 17.3981C11.7977 17.4054 11.757 17.4213 11.7207 17.4447C11.6845 17.4682 11.6535 17.4989 11.6296 17.5347C11.6057 17.5706 11.5894 17.611 11.5818 17.6533C11.5742 17.6957 11.5753 17.7391 11.5853 17.781C11.5952 17.8229 11.6136 17.8623 11.6394 17.8969C11.6652 17.9314 11.6978 17.9603 11.7353 17.9819C11.7728 18.0034 11.8143 18.017 11.8572 18.022L16.3136 18.8141C16.5632 18.8561 16.8189 18.8447 17.0637 18.7806C17.3085 18.7164 17.5367 18.601 17.7331 18.4421C17.9857 18.2391 18.1548 17.951 18.2085 17.6324L21.8719 15.4942C22.0989 15.3616 22.3696 15.324 22.6244 15.3899C22.8793 15.4557 23.0974 15.6196 23.2308 15.8453C23.3641 16.0711 23.4019 16.3404 23.3357 16.5938C23.2695 16.8473 23.1047 17.0642 22.8777 17.1968V17.1979ZM14.4825 11.5365C14.4825 11.111 14.2895 11.0482 13.8135 10.9355C13.3533 10.8264 12.6584 10.662 12.6584 9.72228C12.6587 9.45311 12.7482 9.19154 12.9131 8.9781C13.078 8.76466 13.309 8.61126 13.5705 8.54167V8.24848C13.5705 8.16488 13.6039 8.08469 13.6633 8.02557C13.7227 7.96645 13.8034 7.93324 13.8874 7.93324C13.9715 7.93324 14.0521 7.96645 14.1116 8.02557C14.171 8.08469 14.2044 8.16488 14.2044 8.24848V8.54167C14.4658 8.61126 14.6969 8.76466 14.8618 8.9781C15.0267 9.19154 15.1162 9.45311 15.1165 9.72228C15.1113 9.8022 15.0757 9.87716 15.0169 9.93193C14.9582 9.98671 14.8807 10.0172 14.8002 10.0172C14.7196 10.0172 14.6421 9.98671 14.5834 9.93193C14.5246 9.87716 14.4891 9.8022 14.4839 9.72228C14.4855 9.64341 14.4714 9.56501 14.4422 9.49167C14.413 9.41832 14.3694 9.35151 14.3139 9.29515C14.2584 9.23879 14.1921 9.19402 14.119 9.16345C14.0459 9.13288 13.9674 9.11713 13.8881 9.11713C13.8088 9.11713 13.7303 9.13288 13.6572 9.16345C13.584 9.19402 13.5178 9.23879 13.4623 9.29515C13.4068 9.35151 13.3632 9.41832 13.334 9.49167C13.3048 9.56501 13.2907 9.64341 13.2923 9.72228C13.2923 10.1479 13.4854 10.2107 13.9614 10.3234C14.4215 10.4324 15.1165 10.5968 15.1165 11.5365C15.116 11.806 15.0261 12.0678 14.8608 12.2813C14.6955 12.4947 14.4639 12.648 14.202 12.7171V13.0103C14.202 13.0939 14.1686 13.1741 14.1092 13.2332C14.0497 13.2924 13.9691 13.3256 13.8851 13.3256C13.801 13.3256 13.7204 13.2924 13.6609 13.2332C13.6015 13.1741 13.5681 13.0939 13.5681 13.0103V12.7171C13.3067 12.6475 13.0756 12.4941 12.9107 12.2807C12.7459 12.0672 12.6563 11.8057 12.656 11.5365C12.656 11.4529 12.6894 11.3727 12.7488 11.3136C12.8083 11.2545 12.8889 11.2213 12.973 11.2213C13.057 11.2213 13.1377 11.2545 13.1971 11.3136C13.2565 11.3727 13.2899 11.4529 13.2899 11.5365C13.2883 11.6154 13.3025 11.6938 13.3316 11.7671C13.3608 11.8405 13.4044 11.9073 13.4599 11.9637C13.5154 12.02 13.5817 12.0648 13.6548 12.0954C13.7279 12.1259 13.8064 12.1417 13.8857 12.1417C13.965 12.1417 14.0435 12.1259 14.1167 12.0954C14.1898 12.0648 14.256 12.02 14.3115 11.9637C14.367 11.9073 14.4106 11.8405 14.4398 11.7671C14.469 11.6938 14.4832 11.6154 14.4815 11.5365H14.4825Z" fill="#6B7280"/>
<path d="M23.7774 15.5292C23.5606 15.1632 23.2078 14.8966 22.7952 14.7868C22.3826 14.6771 21.9431 14.733 21.5716 14.9425C21.5944 14.2074 21.3958 13.4822 21.0013 12.8601L17.3884 6.63572L19.0292 7.55888C19.132 7.62275 19.2468 7.66525 19.3665 7.68384C19.4863 7.70242 19.6086 7.69669 19.7261 7.667C19.8436 7.63731 19.9539 7.58426 20.0502 7.51107C20.1465 7.43787 20.2269 7.34604 20.2866 7.2411C20.3463 7.13616 20.384 7.02029 20.3975 6.90046C20.4109 6.78064 20.3999 6.65935 20.3649 6.5439C20.33 6.42845 20.2719 6.32122 20.1942 6.22869C20.1165 6.13616 20.0208 6.06023 19.9127 6.00548L16.9126 4.31706L17.4198 3.44329C17.6005 3.14132 17.6959 2.79642 17.6959 2.445C17.6959 2.09359 17.6005 1.74869 17.4198 1.44671C17.2471 1.14001 16.9944 0.885356 16.6883 0.709646C16.3822 0.533936 16.0341 0.443686 15.6807 0.448422H12.1647C11.8113 0.443648 11.4632 0.533886 11.1572 0.709602C10.8511 0.885318 10.5984 1.13999 10.4259 1.44671C10.2451 1.74867 10.1497 2.09358 10.1497 2.445C10.1497 2.79643 10.2451 3.14133 10.4259 3.44329L10.9629 4.36855C10.8757 4.46286 10.8101 4.57476 10.7704 4.69662C10.7308 4.81847 10.718 4.94741 10.7331 5.07462C10.7481 5.20182 10.7906 5.3243 10.8576 5.43367C10.9246 5.54305 11.0146 5.63675 11.1213 5.70836C10.904 5.93788 10.7146 6.192 10.5569 6.46549L6.84464 12.8593C6.48965 13.4333 6.27069 14.0801 6.20437 14.7508C5.81238 14.8842 5.41194 15.0437 4.97109 15.2276V14.6738C4.97109 14.6324 4.96289 14.5914 4.94697 14.5532C4.93104 14.5149 4.90769 14.4802 4.87826 14.4509C4.84882 14.4216 4.81388 14.3984 4.77542 14.3825C4.73697 14.3667 4.69575 14.3585 4.65412 14.3585H1.31697C1.27534 14.3585 1.23413 14.3667 1.19567 14.3825C1.15721 14.3984 1.12227 14.4216 1.09284 14.4509C1.0634 14.4802 1.04006 14.5149 1.02413 14.5532C1.0082 14.5914 1 14.6324 1 14.6738V23.133C1 23.2166 1.03339 23.2968 1.09284 23.3559C1.15228 23.415 1.2329 23.4482 1.31697 23.4482H4.65465C4.73872 23.4482 4.81934 23.415 4.87878 23.3559C4.93823 23.2968 4.97162 23.2166 4.97162 23.133V22.2482C5.97469 21.8148 7.03888 21.5376 8.12678 21.4264C9.4702 21.3232 11.2048 21.6613 12.0384 21.8237C12.7802 21.9091 13.5267 21.9475 14.2733 21.9387C16.0507 21.9495 16.1839 21.8507 16.2721 21.7858C16.2798 21.7803 16.2872 21.7743 16.294 21.7682L23.1979 17.7404C23.5692 17.5233 23.8388 17.1685 23.9474 16.754C24.0561 16.3394 23.9949 15.8989 23.7774 15.5292ZM4.33848 22.0517V22.8185H1.63341V14.9898H4.33848V22.0517ZM11.6248 5.23207C11.5547 5.23207 11.4876 5.20439 11.438 5.15513C11.3885 5.10586 11.3607 5.03904 11.3607 4.96936C11.3607 4.89969 11.3885 4.83287 11.438 4.7836C11.4876 4.73433 11.5547 4.70666 11.6248 4.70666H16.2209C16.2909 4.70666 16.3581 4.73433 16.4076 4.7836C16.4572 4.83287 16.485 4.89969 16.485 4.96936C16.485 5.03904 16.4572 5.10586 16.4076 5.15513C16.3581 5.20439 16.2909 5.23207 16.2209 5.23207H11.6248ZM19.7014 6.91183C19.6844 6.94199 19.6615 6.9685 19.6341 6.98984C19.6067 7.01118 19.5754 7.02693 19.5418 7.03618C19.5083 7.04544 19.4733 7.04801 19.4387 7.04375C19.4042 7.0395 19.3709 7.0285 19.3406 7.01139L16.8463 5.60748C16.9757 5.48249 17.0643 5.32165 17.1004 5.1459L19.6013 6.55323C19.6316 6.5702 19.6582 6.59294 19.6797 6.62016C19.7011 6.64738 19.7169 6.67854 19.7262 6.71186C19.7355 6.74517 19.7381 6.77999 19.7339 6.8143C19.7296 6.84862 19.7186 6.88176 19.7014 6.91183ZM10.9737 1.76065C11.092 1.55068 11.2651 1.37638 11.4747 1.25616C11.6843 1.13593 11.9227 1.07424 12.1647 1.07761H15.6812C15.9226 1.07764 16.1598 1.14086 16.3688 1.26092C16.5779 1.38098 16.7515 1.55365 16.8722 1.76158C16.9929 1.96951 17.0564 2.20537 17.0564 2.44546C17.0564 2.68555 16.9929 2.92142 16.8722 3.12936L16.3188 4.08272C16.2864 4.07916 16.2538 4.07732 16.2211 4.07721H11.6251C11.5924 4.07732 11.5598 4.07916 11.5273 4.08272L10.9726 3.12936C10.8488 2.92228 10.7836 2.68578 10.7837 2.44486C10.7839 2.20393 10.8496 1.96753 10.9737 1.76065ZM7.39247 13.1737L11.1039 6.78021C11.3055 6.42872 11.5704 6.11705 11.8852 5.86073H15.9617C16.2761 6.11715 16.5405 6.42881 16.7417 6.78021L20.4532 13.1737C20.916 13.9705 21.0512 14.7061 20.8584 15.3576L18.1829 16.9184C18.1496 16.5854 18.0037 16.2735 17.7692 16.0337C17.5346 15.7938 17.2252 15.6401 16.8915 15.5977C16.4295 15.5158 15.7557 15.3786 14.9765 15.22C12.8472 14.7868 10.1974 14.2464 9.14029 14.2627C8.37219 14.2629 7.60721 14.36 6.86366 14.5516C6.95485 14.0644 7.13401 13.5975 7.39247 13.1737ZM22.8777 17.1979L15.9329 21.2499L15.9245 21.2552C14.6708 21.3429 13.4119 21.3265 12.161 21.206C11.2996 21.0384 9.50745 20.6895 8.07897 20.7991C7.01218 20.9077 5.96601 21.1648 4.97109 21.5628V15.9117C6.52001 15.2583 7.44609 14.916 9.14954 14.8918C10.1403 14.8782 12.8612 15.432 14.8497 15.8376C15.6334 15.9971 16.3107 16.135 16.78 16.2183C17.3567 16.3207 17.5917 16.6743 17.5917 17.4391V17.4464C17.5882 17.5461 17.5628 17.6438 17.5171 17.7327C17.4715 17.8215 17.4068 17.8993 17.3276 17.9605C17.2022 18.0604 17.0571 18.133 16.9017 18.1734C16.7463 18.2139 16.5841 18.2214 16.4256 18.1954L11.9687 17.4025C11.9267 17.3924 11.883 17.3909 11.8403 17.3981C11.7977 17.4054 11.757 17.4213 11.7207 17.4447C11.6845 17.4682 11.6535 17.4989 11.6296 17.5347C11.6057 17.5706 11.5894 17.611 11.5818 17.6533C11.5742 17.6957 11.5753 17.7391 11.5853 17.781C11.5952 17.8229 11.6136 17.8623 11.6394 17.8969C11.6652 17.9314 11.6978 17.9603 11.7353 17.9819C11.7728 18.0034 11.8143 18.017 11.8572 18.022L16.3136 18.8141C16.5632 18.8561 16.8189 18.8447 17.0637 18.7806C17.3085 18.7164 17.5367 18.601 17.7331 18.4421C17.9857 18.2391 18.1548 17.951 18.2085 17.6324L21.8719 15.4942C22.0989 15.3616 22.3696 15.324 22.6244 15.3899C22.8793 15.4557 23.0974 15.6196 23.2308 15.8453C23.3641 16.0711 23.4019 16.3404 23.3357 16.5938C23.2695 16.8473 23.1047 17.0642 22.8777 17.1968V17.1979ZM14.4825 11.5365C14.4825 11.111 14.2895 11.0482 13.8135 10.9355C13.3533 10.8264 12.6584 10.662 12.6584 9.72228C12.6587 9.45311 12.7482 9.19154 12.9131 8.9781C13.078 8.76466 13.309 8.61126 13.5705 8.54167V8.24848C13.5705 8.16488 13.6039 8.08469 13.6633 8.02557C13.7227 7.96645 13.8034 7.93324 13.8874 7.93324C13.9715 7.93324 14.0521 7.96645 14.1116 8.02557C14.171 8.08469 14.2044 8.16488 14.2044 8.24848V8.54167C14.4658 8.61126 14.6969 8.76466 14.8618 8.9781C15.0267 9.19154 15.1162 9.45311 15.1165 9.72228C15.1113 9.8022 15.0757 9.87716 15.0169 9.93193C14.9582 9.98671 14.8807 10.0172 14.8002 10.0172C14.7196 10.0172 14.6421 9.98671 14.5834 9.93193C14.5246 9.87716 14.4891 9.8022 14.4839 9.72228C14.4855 9.64341 14.4714 9.56501 14.4422 9.49167C14.413 9.41832 14.3694 9.35151 14.3139 9.29515C14.2584 9.23879 14.1921 9.19402 14.119 9.16345C14.0459 9.13288 13.9674 9.11713 13.8881 9.11713C13.8088 9.11713 13.7303 9.13288 13.6572 9.16345C13.584 9.19402 13.5178 9.23879 13.4623 9.29515C13.4068 9.35151 13.3632 9.41832 13.334 9.49167C13.3048 9.56501 13.2907 9.64341 13.2923 9.72228C13.2923 10.1479 13.4854 10.2107 13.9614 10.3234C14.4215 10.4324 15.1165 10.5968 15.1165 11.5365C15.116 11.806 15.0261 12.0678 14.8608 12.2813C14.6955 12.4947 14.4639 12.648 14.202 12.7171V13.0103C14.202 13.0939 14.1686 13.1741 14.1092 13.2332C14.0497 13.2924 13.9691 13.3256 13.8851 13.3256C13.801 13.3256 13.7204 13.2924 13.6609 13.2332C13.6015 13.1741 13.5681 13.0939 13.5681 13.0103V12.7171C13.3067 12.6475 13.0756 12.4941 12.9107 12.2807C12.7459 12.0672 12.6563 11.8057 12.656 11.5365C12.656 11.4529 12.6894 11.3727 12.7488 11.3136C12.8083 11.2545 12.8889 11.2213 12.973 11.2213C13.057 11.2213 13.1377 11.2545 13.1971 11.3136C13.2565 11.3727 13.2899 11.4529 13.2899 11.5365C13.2883 11.6154 13.3025 11.6938 13.3316 11.7671C13.3608 11.8405 13.4044 11.9073 13.4599 11.9637C13.5154 12.02 13.5817 12.0648 13.6548 12.0954C13.7279 12.1259 13.8064 12.1417 13.8857 12.1417C13.965 12.1417 14.0435 12.1259 14.1167 12.0954C14.1898 12.0648 14.256 12.02 14.3115 11.9637C14.367 11.9073 14.4106 11.8405 14.4398 11.7671C14.469 11.6938 14.4832 11.6154 14.4815 11.5365H14.4825Z" stroke="#6B7280" stroke-width="0.4" mask="url(#path-1-outside-1_987_50467)"/>
</svg>
