<svg width="35" height="29" viewBox="0 0 35 29" fill="none" xmlns="http://www.w3.org/2000/svg">
<path d="M33.0705 10.9024V8.56807C33.0705 8.10243 32.8112 7.67587 32.4002 7.46027L18.4094 0.14147C18.0532 -0.0429057 17.6297 -0.0475936 17.2703 0.130533L2.62033 7.45093C2.19689 7.66343 1.92969 8.09469 1.92969 8.56969V10.9041C1.92969 11.5947 2.48905 12.1541 3.17969 12.1541L5.87813 12.1525V19.3089C5.87813 19.9995 6.43749 20.5589 7.12813 20.5589C7.81877 20.5589 8.37813 19.9995 8.37813 19.3089V12.1525H12.8017V19.3089C12.8017 19.9995 13.3611 20.5589 14.0517 20.5589C14.7424 20.5589 15.3017 19.9995 15.3017 19.3089V12.1525H19.6953V19.3089C19.6953 19.9995 20.2547 20.5589 20.9453 20.5589C21.636 20.5589 22.1953 19.9995 22.1953 19.3089V12.1525H26.6189V19.3089C26.6189 19.9995 27.1783 20.5589 27.8689 20.5589C28.5596 20.5589 29.1189 19.9995 29.1189 19.3089V12.1525H31.8174C32.5111 12.1525 33.0705 11.5931 33.0705 10.9024ZM30.5705 9.65243H4.42973V9.33993L17.8157 2.65233L30.5689 9.32433L30.5705 9.65243Z" fill="#4880FF"/>
<path d="M33.75 26.3809H1.25C0.55936 26.3809 0 26.9402 0 27.6309C0 28.3215 0.55936 28.8809 1.25 28.8809H33.75C34.4406 28.8809 35 28.3215 35 27.6309C35 26.9402 34.4406 26.3809 33.75 26.3809Z" fill="#4880FF"/>
<path d="M30.6591 21.542H4.34033C3.64969 21.542 3.09033 22.1014 3.09033 22.792C3.09033 23.4826 3.64969 24.042 4.34033 24.042H30.6591C31.3498 24.042 31.9091 23.4826 31.9091 22.792C31.9091 22.1029 31.3498 21.542 30.6591 21.542Z" fill="#4880FF"/>
</svg>
