<svg width="20" height="20" viewBox="0 0 20 20" fill="none" xmlns="http://www.w3.org/2000/svg">
<g clip-path="url(#clip0_987_53532)">
<path d="M2.01923 11.75L15.9808 11.75C16.6817 11.75 17.25 11.0784 17.25 10.25C17.25 9.42157 16.6817 8.75 15.9808 8.75L2.01923 8.75C1.31825 8.75 0.75 9.42157 0.75 10.25C0.75 11.0784 1.31825 11.75 2.01923 11.75Z" fill="white"/>
<path d="M15.0406 10.9614L10.1156 16.2231C9.62812 16.744 9.62812 17.5885 10.1156 18.1094C10.6032 18.6302 11.3937 18.6302 11.8812 18.1094L18.4053 11.1392C18.8649 10.6481 18.8649 9.85188 18.4053 9.36083L11.8812 2.39065C11.3937 1.86978 10.6032 1.86978 10.1156 2.39065C9.62812 2.91152 9.62812 3.75603 10.1156 4.2769L15.0406 9.53864C15.4084 9.93148 15.4084 10.5685 15.0406 10.9614Z" fill="white"/>
</g>
<defs>
<clipPath id="clip0_987_53532">
<rect width="20" height="20" fill="white"/>
</clipPath>
</defs>
</svg>
