<svg width="60" height="60" viewBox="0 0 60 60" fill="none" xmlns="http://www.w3.org/2000/svg">
<rect width="60" height="60" rx="30" fill="white"/>
<rect x="0.375" y="0.375" width="59.25" height="59.25" rx="29.625" stroke="white" stroke-opacity="0.4" stroke-width="0.75" stroke-dasharray="2.25 1.5"/>
<path fill-rule="evenodd" clip-rule="evenodd" d="M30 16.2529C29.3428 16.2529 28.6971 16.4257 28.1277 16.7538L24.1329 19.0365C23.8702 19.0885 23.6252 19.2242 23.4407 19.432L19.3798 21.7526L19.375 21.7553C18.9125 22.0223 18.5137 22.3843 18.2038 22.8158C18.1284 22.8913 18.0615 22.9777 18.0055 23.0745C17.9573 23.1578 17.9198 23.2444 17.8925 23.3326C17.6354 23.8495 17.5006 24.4197 17.5 24.9991V35.0016C17.5007 35.6593 17.6743 36.3051 18.0034 36.8745C18.3325 37.4438 18.8055 37.9166 19.375 38.2454L19.3798 38.2482L28.125 43.2454L28.1273 43.2467C28.5238 43.4753 28.9573 43.6285 29.4059 43.7005C29.5826 43.7961 29.785 43.8504 30 43.8504C30.215 43.8504 30.4174 43.7961 30.5941 43.7005C31.0427 43.6285 31.4762 43.4753 31.8728 43.2467L31.875 43.2454L40.6202 38.2482L40.625 38.2454C41.1945 37.9166 41.6675 37.4438 41.9966 36.8745C42.3257 36.3051 42.4993 35.6593 42.5 35.0016V24.9991C42.4994 24.4197 42.3646 23.8495 42.1075 23.3326C42.0802 23.2444 42.0427 23.1578 41.9945 23.0745C41.9385 22.9777 41.8716 22.8913 41.7962 22.8158C41.4863 22.3843 41.0875 22.0223 40.625 21.7553L31.875 16.7553L31.8724 16.7538C31.303 16.4257 30.6573 16.2529 30 16.2529ZM20 25.6723L18.4616 24.7824C17.9474 24.4849 17.7244 23.8772 17.8925 23.3326C17.9273 23.2628 17.9642 23.194 18.0034 23.1263C18.0652 23.0193 18.1321 22.9157 18.2038 22.8158C18.5944 22.4252 19.2126 22.3286 19.7134 22.6184L21.2987 23.5354L20.625 23.9204L20.623 23.9215C20.4341 24.0311 20.2771 24.1883 20.1678 24.3774C20.0582 24.567 20.0003 24.7821 20 25.0011V25.6723ZM28.75 30.7339L20 25.6723V34.9996C20.0003 35.2186 20.0582 35.4337 20.1678 35.6234C20.2771 35.8125 20.4341 35.9696 20.623 36.0792L20.625 36.0803L28.75 40.7232V30.7339ZM31.25 30.7339V30.0004C31.25 29.31 30.6904 28.7504 30 28.7504C29.3096 28.7504 28.75 29.31 28.75 30.0004V30.7339L29.3741 31.0949C29.7613 31.3189 30.2387 31.3189 30.6259 31.0949L31.25 30.7339ZM31.25 30.7339L40 25.6723V34.9991C39.9998 35.2183 39.9419 35.4336 39.8322 35.6234C39.7229 35.8125 39.5659 35.9696 39.377 36.0792L39.375 36.0803L31.25 40.7232V30.7339ZM24.4375 21.7418L33.1332 26.7564L30 28.5688L21.2987 23.5354L24.4375 21.7418ZM26.9511 20.3055L24.4375 21.7418L23.7506 21.3457C23.1525 21.0008 22.9473 20.2365 23.2921 19.6384C23.3355 19.5633 23.3854 19.4944 23.4407 19.432L24.1329 19.0365C24.4193 18.9799 24.7267 19.0227 24.9994 19.18L26.9511 20.3055ZM26.9511 20.3055L29.3702 18.9232L29.375 18.9204C29.565 18.8107 29.7806 18.7529 30 18.7529C30.2194 18.7529 30.435 18.8107 30.625 18.9204L38.7013 23.5354L35.6315 25.3112L26.9511 20.3055Z" fill="#0B5380"/>
<path d="M20.623 23.9215L20.625 23.9204L21.2987 23.5354L19.7134 22.6184C19.2126 22.3286 18.5944 22.4252 18.2038 22.8158C18.1321 22.9157 18.0652 23.0193 18.0034 23.1263C17.9642 23.194 17.9273 23.2628 17.8925 23.3326C17.7244 23.8772 17.9474 24.4849 18.4616 24.7824L20 25.6723V25.0011C20.0003 24.7821 20.0582 24.567 20.1678 24.3774C20.2771 24.1883 20.4341 24.0311 20.623 23.9215Z" fill="#0B5380"/>
<path d="M23.2921 19.6384C22.9473 20.2365 23.1525 21.0008 23.7506 21.3457L24.4375 21.7418L26.9511 20.3055L24.9994 19.18C24.7267 19.0227 24.4193 18.9799 24.1329 19.0365L23.4407 19.432C23.3854 19.4944 23.3355 19.5633 23.2921 19.6384Z" fill="#0B5380"/>
<path d="M29.3741 31.0949C29.7613 31.3189 30.2387 31.3189 30.6259 31.0949L31.25 30.7339V30.0004C31.25 29.31 30.6904 28.7504 30 28.7504C29.3096 28.7504 28.75 29.31 28.75 30.0004V30.7339L29.3741 31.0949Z" fill="#0B5380"/>
</svg>
