<svg width="60" height="60" viewBox="0 0 60 60" fill="none" xmlns="http://www.w3.org/2000/svg">
<rect width="60" height="60" rx="30" fill="white"/>
<rect x="0.375" y="0.375" width="59.25" height="59.25" rx="29.625" stroke="white" stroke-opacity="0.4" stroke-width="0.75" stroke-dasharray="2.25 1.5"/>
<path d="M31.25 16.25C31.5815 16.25 31.8994 16.3818 32.1338 16.6162L40.8838 25.3662C41.1182 25.6006 41.25 25.9185 41.25 26.25V40C41.25 40.9946 40.8546 41.9481 40.1514 42.6514C39.4481 43.3546 38.4946 43.75 37.5 43.75H22.5C21.5054 43.75 20.5519 43.3546 19.8486 42.6514C19.1454 41.9481 18.75 40.9946 18.75 40V20C18.75 19.0054 19.1454 18.0519 19.8486 17.3486C20.5519 16.6454 21.5054 16.25 22.5 16.25H31.25ZM22.5 18.75C22.1685 18.75 21.8506 18.8818 21.6162 19.1162C21.3818 19.3506 21.25 19.6685 21.25 20V40C21.25 40.3315 21.3818 40.6494 21.6162 40.8838C21.8506 41.1182 22.1685 41.25 22.5 41.25H37.5C37.8315 41.25 38.1494 41.1182 38.3838 40.8838C38.6182 40.6494 38.75 40.3315 38.75 40V27.5H31.25C30.5596 27.5 30 26.9404 30 26.25V18.75H22.5ZM35 35C35.6904 35 36.25 35.5596 36.25 36.25C36.25 36.9404 35.6904 37.5 35 37.5H25C24.3096 37.5 23.75 36.9404 23.75 36.25C23.75 35.5596 24.3096 35 25 35H35ZM35 30C35.6904 30 36.25 30.5596 36.25 31.25C36.25 31.9404 35.6904 32.5 35 32.5H25C24.3096 32.5 23.75 31.9404 23.75 31.25C23.75 30.5596 24.3096 30 25 30H35ZM27.5 25C28.1904 25 28.75 25.5596 28.75 26.25C28.75 26.9404 28.1904 27.5 27.5 27.5H25C24.3096 27.5 23.75 26.9404 23.75 26.25C23.75 25.5596 24.3096 25 25 25H27.5ZM32.5 25H36.9824L32.5 20.5176V25Z" fill="#8E44AD"/>
</svg>
