<svg width="42" height="35" viewBox="0 0 42 35" fill="none" xmlns="http://www.w3.org/2000/svg">
<path d="M39.6844 13.0829V10.2817C39.6844 9.72291 39.3732 9.21104 38.8801 8.95232L22.0911 0.169764C21.6636 -0.0514869 21.1555 -0.0571123 20.7242 0.156639L3.1442 8.94112C2.63607 9.19612 2.31543 9.71363 2.31543 10.2836V13.0849C2.31543 13.9136 2.98666 14.5849 3.81543 14.5849L7.05356 14.583V23.1707C7.05356 23.9994 7.72479 24.6707 8.55356 24.6707C9.38233 24.6707 10.0536 23.9994 10.0536 23.1707V14.583H15.3619V23.1707C15.3619 23.9994 16.0331 24.6707 16.8619 24.6707C17.6906 24.6707 18.3619 23.9994 18.3619 23.1707V14.583H23.6342V23.1707C23.6342 23.9994 24.3054 24.6707 25.1342 24.6707C25.963 24.6707 26.6342 23.9994 26.6342 23.1707V14.583H31.9425V23.1707C31.9425 23.9994 32.6138 24.6707 33.4425 24.6707C34.2713 24.6707 34.9425 23.9994 34.9425 23.1707V14.583H38.1806C39.0132 14.583 39.6844 13.9117 39.6844 13.0829ZM36.6844 11.5829H5.31548V11.2079L21.3787 3.1828L36.6825 11.1892L36.6844 11.5829Z" fill="#272835"/>
<path d="M40.5 31.6572H1.5C0.671232 31.6572 0 32.3285 0 33.1572C0 33.986 0.671232 34.6572 1.5 34.6572H40.5C41.3288 34.6572 42 33.986 42 33.1572C42 32.3285 41.3288 31.6572 40.5 31.6572Z" fill="#272835"/>
<path d="M36.7911 25.8496H5.2085C4.37973 25.8496 3.7085 26.5208 3.7085 27.3496C3.7085 28.1784 4.37973 28.8496 5.2085 28.8496H36.7911C37.6198 28.8496 38.2911 28.1784 38.2911 27.3496C38.2911 26.5227 37.6198 25.8496 36.7911 25.8496Z" fill="#272835"/>
</svg>
