<svg width="60" height="60" viewBox="0 0 60 60" fill="none" xmlns="http://www.w3.org/2000/svg">
<rect width="60" height="60" rx="30" fill="white"/>
<rect x="0.375" y="0.375" width="59.25" height="59.25" rx="29.625" stroke="white" stroke-opacity="0.4" stroke-width="0.75" stroke-dasharray="2.25 1.5"/>
<path d="M29.6152 16.9775C29.861 16.8754 30.139 16.8744 30.3848 16.9766L30.3838 16.9775L42.4531 21.9023L42.5908 21.9707C42.8959 22.1533 43.0879 22.4848 43.0879 22.8486V26.8076C43.0878 27.077 42.9799 27.3364 42.7891 27.5273C42.5983 27.7182 42.3403 27.8271 42.0693 27.8271H40.2129V37.2471C41.9559 37.9788 43.0952 39.6843 43.0996 41.5801V42.0801C43.0996 42.3512 42.9916 42.6098 42.8008 42.8008C42.6099 42.9917 42.3504 43.0995 42.0811 43.0996H17.9189C17.6496 43.0995 17.3901 42.9916 17.1992 42.8008C17.0083 42.6098 16.9004 42.3512 16.9004 42.0801V41.5801C16.9048 39.6841 18.044 37.9786 19.7871 37.2471V27.8271H17.9307C17.6597 27.8271 17.4018 27.7182 17.2109 27.5273C17.0201 27.3365 16.9113 27.0771 16.9111 26.8076V22.8486C16.9111 22.4328 17.1634 22.0599 17.5469 21.9023L29.6152 16.9775ZM21.6055 38.917C20.3299 38.917 19.243 39.8208 18.9941 41.0605H41.0059C40.757 39.8208 39.6701 38.9171 38.3945 38.917H21.6055ZM35.1113 36.8779H38.1738V27.8271H35.1113V36.8779ZM26.9268 36.8779H33.0732V27.8271H26.9268V36.8779ZM21.8262 36.8779H24.8877V27.8271H21.8262V36.8779ZM18.9502 23.5332V25.7871L41.0498 25.7861V23.5342L29.999 19.0234L18.9502 23.5332Z" fill="#7239EA" stroke="#7239EA" stroke-width="0.2"/>
</svg>
