<svg width="80" height="80" viewBox="0 0 80 80" fill="none" xmlns="http://www.w3.org/2000/svg">
<rect width="80" height="80" rx="40" fill="#4880FF"/>
<rect x="0.5" y="0.5" width="79" height="79" rx="39.5" stroke="white" stroke-opacity="0.4" stroke-dasharray="3 2"/>
<mask id="path-3-outside-1_987_53332" maskUnits="userSpaceOnUse" x="18" y="18" width="44" height="44" fill="black">
<rect fill="white" x="18" y="18" width="44" height="44"/>
<path d="M34.992 34.9597H29.9419C29.4369 34.9597 29.1002 35.2957 29.1002 35.7997V48.4C29.1002 48.904 29.4369 49.24 29.9419 49.24H50.1423C50.6473 49.24 50.984 48.904 50.984 48.4V33.28C50.984 32.776 50.6473 32.44 50.1423 32.44H45.9339V29.92C45.9339 29.416 45.5972 29.08 45.0922 29.08H40.0421C39.5371 29.08 39.2004 29.416 39.2004 29.92V38.32H35.8337V35.8C35.8337 35.296 35.497 34.9597 34.992 34.9597ZM30.7836 36.6397H34.1503V47.5595H30.7836V36.6397ZM49.3006 34.1197V47.5597H45.9339V34.1197H49.3006ZM40.8838 30.7597H44.2505V47.5597H40.8838V30.7597ZM39.2004 40V47.5597H35.8337V40H39.2004ZM25.3968 25.888C25.5651 26.056 25.7335 26.308 25.7335 26.56V29.92C25.7335 30.424 25.3968 30.76 24.8918 30.76C24.3868 30.76 24.0501 30.424 24.0501 29.92V29.164C21.8617 32.356 20.6834 36.1362 20.6834 39.9999C20.6834 44.0319 21.9459 47.8962 24.3026 51.1718C24.5551 51.5918 24.471 52.0958 24.1343 52.3478C23.966 52.4318 23.7976 52.5158 23.6293 52.5158C23.3768 52.5158 23.1243 52.4318 22.9559 52.1798C20.3467 48.5677 19 44.3679 19 39.9999C19 35.6319 20.3467 31.516 22.7876 27.9039L21.6934 28.2399C21.2725 28.3239 20.7675 28.0719 20.6834 27.6519C20.5992 27.2319 20.8517 26.7279 21.2726 26.6439L24.6393 25.8039C24.976 25.7199 25.2285 25.72 25.3968 25.888ZM59.4009 52.432C59.485 52.852 59.2325 53.356 58.8116 53.44L55.4449 54.28H55.2766C55.1082 54.28 54.9399 54.196 54.7716 54.112C54.4349 53.944 54.3507 53.692 54.3507 53.44V50.08C54.3507 49.576 54.6874 49.24 55.1924 49.24C55.6974 49.24 56.0341 49.576 56.0341 50.08V50.836C58.2225 47.644 59.4008 43.8638 59.4008 40.0001C59.4008 35.9681 58.1383 32.1039 55.7816 28.8283C55.5291 28.4083 55.6132 27.9042 55.9499 27.6523C56.3707 27.4003 56.8758 27.4843 57.1283 27.8203C59.6533 31.4323 61 35.6321 61 40.0001C61 44.3681 59.6533 48.484 57.2124 52.0961L58.3066 51.8441C58.8116 51.6761 59.2326 51.928 59.4009 52.432ZM52.4147 55.96C52.6672 56.38 52.5831 56.884 52.2464 57.136C48.6271 59.656 44.4189 61 40.0421 61C35.6654 61 31.5412 59.656 27.9219 57.22L28.1744 58.312C28.2585 58.732 28.006 59.236 27.5852 59.32H27.4168C27.0801 59.32 26.6593 59.068 26.5751 58.648L25.7334 55.288C25.6493 55.036 25.7334 54.784 25.9018 54.532C26.0701 54.364 26.3226 54.196 26.5751 54.196H29.9419C30.4469 54.196 30.7836 54.532 30.7836 55.036C30.7836 55.54 30.4469 55.876 29.9419 55.876H29.1844C32.3828 58.06 36.1705 59.236 40.042 59.236C44.0821 59.236 47.9541 57.976 51.2362 55.624C51.6571 55.456 52.1623 55.54 52.4147 55.96ZM54.3506 24.712C54.4348 24.964 54.3506 25.216 54.1823 25.468C54.014 25.636 53.7615 25.72 53.509 25.72H50.1422C49.6372 25.72 49.3005 25.384 49.3005 24.88C49.3005 24.376 49.6372 24.04 50.1422 24.04H50.8997C47.7013 21.856 43.9136 20.68 40.0421 20.68C36.002 20.68 32.13 21.94 28.8478 24.292C28.5112 24.544 27.922 24.46 27.6695 24.124C27.417 23.704 27.5011 23.2 27.8378 22.948C31.4571 20.344 35.6654 19 40.0421 19C44.4189 19 48.543 20.344 52.1624 22.78L51.8257 21.688C51.7415 21.268 51.994 20.764 52.4149 20.68C52.8358 20.596 53.3408 20.848 53.4249 21.268L54.3506 24.712Z"/>
</mask>
<path d="M34.992 34.9597H29.9419C29.4369 34.9597 29.1002 35.2957 29.1002 35.7997V48.4C29.1002 48.904 29.4369 49.24 29.9419 49.24H50.1423C50.6473 49.24 50.984 48.904 50.984 48.4V33.28C50.984 32.776 50.6473 32.44 50.1423 32.44H45.9339V29.92C45.9339 29.416 45.5972 29.08 45.0922 29.08H40.0421C39.5371 29.08 39.2004 29.416 39.2004 29.92V38.32H35.8337V35.8C35.8337 35.296 35.497 34.9597 34.992 34.9597ZM30.7836 36.6397H34.1503V47.5595H30.7836V36.6397ZM49.3006 34.1197V47.5597H45.9339V34.1197H49.3006ZM40.8838 30.7597H44.2505V47.5597H40.8838V30.7597ZM39.2004 40V47.5597H35.8337V40H39.2004ZM25.3968 25.888C25.5651 26.056 25.7335 26.308 25.7335 26.56V29.92C25.7335 30.424 25.3968 30.76 24.8918 30.76C24.3868 30.76 24.0501 30.424 24.0501 29.92V29.164C21.8617 32.356 20.6834 36.1362 20.6834 39.9999C20.6834 44.0319 21.9459 47.8962 24.3026 51.1718C24.5551 51.5918 24.471 52.0958 24.1343 52.3478C23.966 52.4318 23.7976 52.5158 23.6293 52.5158C23.3768 52.5158 23.1243 52.4318 22.9559 52.1798C20.3467 48.5677 19 44.3679 19 39.9999C19 35.6319 20.3467 31.516 22.7876 27.9039L21.6934 28.2399C21.2725 28.3239 20.7675 28.0719 20.6834 27.6519C20.5992 27.2319 20.8517 26.7279 21.2726 26.6439L24.6393 25.8039C24.976 25.7199 25.2285 25.72 25.3968 25.888ZM59.4009 52.432C59.485 52.852 59.2325 53.356 58.8116 53.44L55.4449 54.28H55.2766C55.1082 54.28 54.9399 54.196 54.7716 54.112C54.4349 53.944 54.3507 53.692 54.3507 53.44V50.08C54.3507 49.576 54.6874 49.24 55.1924 49.24C55.6974 49.24 56.0341 49.576 56.0341 50.08V50.836C58.2225 47.644 59.4008 43.8638 59.4008 40.0001C59.4008 35.9681 58.1383 32.1039 55.7816 28.8283C55.5291 28.4083 55.6132 27.9042 55.9499 27.6523C56.3707 27.4003 56.8758 27.4843 57.1283 27.8203C59.6533 31.4323 61 35.6321 61 40.0001C61 44.3681 59.6533 48.484 57.2124 52.0961L58.3066 51.8441C58.8116 51.6761 59.2326 51.928 59.4009 52.432ZM52.4147 55.96C52.6672 56.38 52.5831 56.884 52.2464 57.136C48.6271 59.656 44.4189 61 40.0421 61C35.6654 61 31.5412 59.656 27.9219 57.22L28.1744 58.312C28.2585 58.732 28.006 59.236 27.5852 59.32H27.4168C27.0801 59.32 26.6593 59.068 26.5751 58.648L25.7334 55.288C25.6493 55.036 25.7334 54.784 25.9018 54.532C26.0701 54.364 26.3226 54.196 26.5751 54.196H29.9419C30.4469 54.196 30.7836 54.532 30.7836 55.036C30.7836 55.54 30.4469 55.876 29.9419 55.876H29.1844C32.3828 58.06 36.1705 59.236 40.042 59.236C44.0821 59.236 47.9541 57.976 51.2362 55.624C51.6571 55.456 52.1623 55.54 52.4147 55.96ZM54.3506 24.712C54.4348 24.964 54.3506 25.216 54.1823 25.468C54.014 25.636 53.7615 25.72 53.509 25.72H50.1422C49.6372 25.72 49.3005 25.384 49.3005 24.88C49.3005 24.376 49.6372 24.04 50.1422 24.04H50.8997C47.7013 21.856 43.9136 20.68 40.0421 20.68C36.002 20.68 32.13 21.94 28.8478 24.292C28.5112 24.544 27.922 24.46 27.6695 24.124C27.417 23.704 27.5011 23.2 27.8378 22.948C31.4571 20.344 35.6654 19 40.0421 19C44.4189 19 48.543 20.344 52.1624 22.78L51.8257 21.688C51.7415 21.268 51.994 20.764 52.4149 20.68C52.8358 20.596 53.3408 20.848 53.4249 21.268L54.3506 24.712Z" fill="white"/>
<path d="M34.992 34.9597H29.9419C29.4369 34.9597 29.1002 35.2957 29.1002 35.7997V48.4C29.1002 48.904 29.4369 49.24 29.9419 49.24H50.1423C50.6473 49.24 50.984 48.904 50.984 48.4V33.28C50.984 32.776 50.6473 32.44 50.1423 32.44H45.9339V29.92C45.9339 29.416 45.5972 29.08 45.0922 29.08H40.0421C39.5371 29.08 39.2004 29.416 39.2004 29.92V38.32H35.8337V35.8C35.8337 35.296 35.497 34.9597 34.992 34.9597ZM30.7836 36.6397H34.1503V47.5595H30.7836V36.6397ZM49.3006 34.1197V47.5597H45.9339V34.1197H49.3006ZM40.8838 30.7597H44.2505V47.5597H40.8838V30.7597ZM39.2004 40V47.5597H35.8337V40H39.2004ZM25.3968 25.888C25.5651 26.056 25.7335 26.308 25.7335 26.56V29.92C25.7335 30.424 25.3968 30.76 24.8918 30.76C24.3868 30.76 24.0501 30.424 24.0501 29.92V29.164C21.8617 32.356 20.6834 36.1362 20.6834 39.9999C20.6834 44.0319 21.9459 47.8962 24.3026 51.1718C24.5551 51.5918 24.471 52.0958 24.1343 52.3478C23.966 52.4318 23.7976 52.5158 23.6293 52.5158C23.3768 52.5158 23.1243 52.4318 22.9559 52.1798C20.3467 48.5677 19 44.3679 19 39.9999C19 35.6319 20.3467 31.516 22.7876 27.9039L21.6934 28.2399C21.2725 28.3239 20.7675 28.0719 20.6834 27.6519C20.5992 27.2319 20.8517 26.7279 21.2726 26.6439L24.6393 25.8039C24.976 25.7199 25.2285 25.72 25.3968 25.888ZM59.4009 52.432C59.485 52.852 59.2325 53.356 58.8116 53.44L55.4449 54.28H55.2766C55.1082 54.28 54.9399 54.196 54.7716 54.112C54.4349 53.944 54.3507 53.692 54.3507 53.44V50.08C54.3507 49.576 54.6874 49.24 55.1924 49.24C55.6974 49.24 56.0341 49.576 56.0341 50.08V50.836C58.2225 47.644 59.4008 43.8638 59.4008 40.0001C59.4008 35.9681 58.1383 32.1039 55.7816 28.8283C55.5291 28.4083 55.6132 27.9042 55.9499 27.6523C56.3707 27.4003 56.8758 27.4843 57.1283 27.8203C59.6533 31.4323 61 35.6321 61 40.0001C61 44.3681 59.6533 48.484 57.2124 52.0961L58.3066 51.8441C58.8116 51.6761 59.2326 51.928 59.4009 52.432ZM52.4147 55.96C52.6672 56.38 52.5831 56.884 52.2464 57.136C48.6271 59.656 44.4189 61 40.0421 61C35.6654 61 31.5412 59.656 27.9219 57.22L28.1744 58.312C28.2585 58.732 28.006 59.236 27.5852 59.32H27.4168C27.0801 59.32 26.6593 59.068 26.5751 58.648L25.7334 55.288C25.6493 55.036 25.7334 54.784 25.9018 54.532C26.0701 54.364 26.3226 54.196 26.5751 54.196H29.9419C30.4469 54.196 30.7836 54.532 30.7836 55.036C30.7836 55.54 30.4469 55.876 29.9419 55.876H29.1844C32.3828 58.06 36.1705 59.236 40.042 59.236C44.0821 59.236 47.9541 57.976 51.2362 55.624C51.6571 55.456 52.1623 55.54 52.4147 55.96ZM54.3506 24.712C54.4348 24.964 54.3506 25.216 54.1823 25.468C54.014 25.636 53.7615 25.72 53.509 25.72H50.1422C49.6372 25.72 49.3005 25.384 49.3005 24.88C49.3005 24.376 49.6372 24.04 50.1422 24.04H50.8997C47.7013 21.856 43.9136 20.68 40.0421 20.68C36.002 20.68 32.13 21.94 28.8478 24.292C28.5112 24.544 27.922 24.46 27.6695 24.124C27.417 23.704 27.5011 23.2 27.8378 22.948C31.4571 20.344 35.6654 19 40.0421 19C44.4189 19 48.543 20.344 52.1624 22.78L51.8257 21.688C51.7415 21.268 51.994 20.764 52.4149 20.68C52.8358 20.596 53.3408 20.848 53.4249 21.268L54.3506 24.712Z" stroke="white" stroke-width="0.2" mask="url(#path-3-outside-1_987_53332)"/>
</svg>
