<svg width="22" height="22" viewBox="0 0 22 22" fill="none" xmlns="http://www.w3.org/2000/svg">
<path d="M11.917 0.916992C12.16 0.917078 12.3926 1.01372 12.5645 1.18555L18.9814 7.60156C19.1534 7.77347 19.25 8.00689 19.25 8.25V18.333C19.25 19.0624 18.9601 19.7626 18.4443 20.2783C17.9286 20.7938 17.2292 21.083 16.5 21.083H5.5C4.77081 21.083 4.07136 20.7938 3.55566 20.2783C3.03994 19.7626 2.75 19.0624 2.75 18.333V3.66699C2.75 2.93765 3.03994 2.2374 3.55566 1.72168C4.07136 1.20616 4.77081 0.916992 5.5 0.916992H11.917ZM5.5 2.75C5.25688 2.75 5.02347 2.84665 4.85156 3.01855C4.67976 3.19045 4.58301 3.42395 4.58301 3.66699V18.333C4.58301 18.576 4.67976 18.8096 4.85156 18.9814C5.02347 19.1534 5.25689 19.25 5.5 19.25H16.5C16.7431 19.25 16.9765 19.1534 17.1484 18.9814C17.3202 18.8096 17.417 18.576 17.417 18.333V9.16699H11.917C11.4107 9.16699 11 8.75626 11 8.25V2.75H5.5ZM14.667 14.667C15.173 14.6672 15.5828 15.077 15.583 15.583C15.583 16.0892 15.1731 16.4998 14.667 16.5H7.33301C6.8269 16.4998 6.41699 16.0892 6.41699 15.583C6.41717 15.077 6.82701 14.6672 7.33301 14.667H14.667ZM14.667 11C15.1731 11.0002 15.583 11.4108 15.583 11.917C15.5828 12.423 15.173 12.8328 14.667 12.833H7.33301C6.827 12.8328 6.41717 12.423 6.41699 11.917C6.41699 11.4108 6.8269 11.0002 7.33301 11H14.667ZM9.16699 7.33301C9.6731 7.33318 10.083 7.74385 10.083 8.25C10.083 8.75615 9.6731 9.16682 9.16699 9.16699H7.33301C6.8269 9.16682 6.41699 8.75615 6.41699 8.25C6.41699 7.74385 6.8269 7.33318 7.33301 7.33301H9.16699ZM12.833 7.33301H16.1201L12.833 4.0459V7.33301Z" fill="#6B7280"/>
</svg>
