<svg width="24" height="23" viewBox="0 0 24 23" fill="none" xmlns="http://www.w3.org/2000/svg">
<path d="M11.103 0.0498047L11.5396 0.0576172C12.5548 0.0970958 13.5538 0.275352 14.5151 0.586914C15.578 0.931099 16.5804 1.43557 17.4956 2.08496C17.7171 2.24226 17.769 2.54911 17.6118 2.77051C17.4545 2.99199 17.1467 3.04398 16.9253 2.88672C15.3517 1.76975 13.5183 1.13824 11.5952 1.0459V10.6074H13.4702C13.7417 10.6076 13.9624 10.8282 13.9624 11.0996C13.9623 11.371 13.7416 11.5916 13.4702 11.5918H11.5952V14.5576C11.5952 14.829 11.3744 15.0496 11.103 15.0498C10.8314 15.0498 10.6108 14.8292 10.6108 14.5576V11.5918H5.95752C6.02129 14.1486 6.57964 16.526 7.54541 18.333C8.40391 19.9382 9.47935 20.8994 10.6108 21.1162V17.501C10.6108 17.2294 10.8314 17.0088 11.103 17.0088C11.3744 17.009 11.5952 17.2295 11.5952 17.501V21.1514C12.0387 21.1295 12.4806 21.0815 12.9136 21.0029C13.1807 20.9546 13.4375 21.1315 13.4868 21.3984C13.5351 21.6655 13.3576 21.9223 13.0903 21.9707C12.4385 22.0888 11.77 22.1494 11.103 22.1494H11.061C9.58425 22.1439 8.15034 21.8522 6.80029 21.2812C6.14504 21.0045 5.51327 20.6606 4.92236 20.2617C4.33722 19.8669 3.78716 19.4133 3.2876 18.9131C2.78793 18.4127 2.33304 17.8626 1.93799 17.2773C1.53912 16.6867 1.19526 16.0554 0.918457 15.4004C0.341902 14.0381 0.0503145 12.5909 0.050293 11.0996C0.050293 9.60808 0.341768 8.16031 0.918457 6.79785C1.1953 6.14282 1.53906 5.51161 1.93799 4.9209C2.333 4.33568 2.78793 3.78568 3.2876 3.28613C3.78802 2.78663 4.33698 2.33145 4.92236 1.93652C5.51327 1.53766 6.14504 1.19476 6.80029 0.917969C8.15037 0.346985 9.58323 0.0553553 11.0601 0.0498047H11.103ZM1.04736 11.5918C1.25322 15.8499 4.11834 19.4204 8.01416 20.6787C7.52219 20.1691 7.0741 19.5391 6.67725 18.7969C6.13789 17.7874 5.71516 16.6173 5.42139 15.3174C5.15318 14.1307 5.00357 12.8794 4.97314 11.5918H1.04736ZM10.6108 1.08203C9.4793 1.29877 8.40394 2.26092 7.54541 3.86621C6.57967 5.67322 6.02125 8.05064 5.95752 10.6074H10.6108V1.08203ZM8.01416 1.51953C4.11813 2.77779 1.25209 6.34906 1.04639 10.6074H4.97314C5.00355 9.31983 5.1532 8.06854 5.42139 6.88184C5.71514 5.58203 6.13794 4.41176 6.67725 3.40234C7.07419 2.65997 7.52206 2.02917 8.01416 1.51953Z" fill="#6B7280" stroke="#6B7280" stroke-width="0.1"/>
<path d="M20.3218 2.56152C20.581 2.45938 20.8721 2.52611 21.062 2.73047L22.7681 4.56738C22.9463 4.76048 23.0454 5.01149 23.0454 5.27441C23.0454 5.53704 22.9472 5.78804 22.7681 5.98047L21.062 7.81738C20.9317 7.95792 20.7533 8.03316 20.5698 8.0332C20.4871 8.0332 20.4026 8.01781 20.3218 7.98633C20.062 7.88413 19.8932 7.638 19.8931 7.35938V7.04004H15.2876C15.0163 7.03987 14.7957 6.82006 14.7954 6.54883V6.52637L13.6265 7.78613C13.6169 7.79634 13.6127 7.80997 13.6128 7.82324L13.6265 7.85938L14.7954 9.11816V9.09766C14.7954 8.96675 14.8477 8.84128 14.9399 8.74902C15.0321 8.65699 15.1569 8.60555 15.2876 8.60547H20.9321C21.2037 8.60549 21.4243 8.82611 21.4243 9.09766C21.4242 9.36909 21.2036 9.58983 20.9321 9.58984H15.7798V9.9082C15.7798 10.1869 15.6119 10.4339 15.3521 10.5361C15.2712 10.5676 15.1867 10.583 15.104 10.583C14.9206 10.583 14.7422 10.5076 14.6118 10.3672L12.9058 8.53027L12.9048 8.5293C12.7268 8.33627 12.6284 8.08595 12.6284 7.82324C12.6284 7.56049 12.7265 7.3087 12.9058 7.11621L14.6128 5.2793C14.8021 5.07503 15.0932 5.00914 15.353 5.11133C15.6127 5.21363 15.7807 5.45972 15.7808 5.73828V6.05664H20.3862C20.6577 6.05664 20.8782 6.27741 20.8784 6.54883V6.57031L22.0474 5.31152V5.31055C22.0663 5.29032 22.0664 5.25848 22.0474 5.23828L20.8784 3.97754V4C20.8784 4.27156 20.6578 4.49219 20.3862 4.49219H14.9243C14.6527 4.49219 14.4321 4.27156 14.4321 4C14.4322 3.72848 14.6528 3.50781 14.9243 3.50781H19.8931V3.18945C19.8931 2.91071 20.0619 2.66376 20.3218 2.56152Z" fill="#6B7280" stroke="#6B7280" stroke-width="0.1"/>
<path d="M17.8384 10.6074C18.6172 10.6075 19.3734 10.7605 20.0854 11.0615C20.7727 11.3522 21.3899 11.7685 21.9194 12.2979C22.449 12.8273 22.866 13.4446 23.1567 14.1318C23.4577 14.8436 23.6108 15.5994 23.6108 16.3779C23.6108 17.1566 23.4578 17.9131 23.1567 18.625C22.866 19.3122 22.449 19.9295 21.9194 20.459C21.3899 20.9883 20.7726 21.4047 20.0854 21.6953C19.3734 21.9963 18.6172 22.1494 17.8384 22.1494C17.0596 22.1494 16.3034 21.9963 15.5913 21.6953C14.9039 21.4047 14.286 20.9885 13.7563 20.459C13.2268 19.9296 12.8107 19.3121 12.52 18.625C12.2189 17.9131 12.0659 17.1566 12.0659 16.3779C12.066 15.5993 12.219 14.8437 12.52 14.1318C12.8107 13.4447 13.2268 12.8273 13.7563 12.2979C14.286 11.7684 14.9039 11.3522 15.5913 11.0615C16.3034 10.7605 17.0595 10.6074 17.8384 10.6074ZM17.8374 11.5918C15.1978 11.5918 13.0495 13.739 13.0493 16.3779C13.0493 19.017 15.1977 21.165 17.8374 21.165C20.4779 21.165 22.6255 19.0169 22.6255 16.3779C22.6254 13.739 20.477 11.5919 17.8374 11.5918Z" fill="#6B7280" stroke="#6B7280" stroke-width="0.1"/>
<path d="M17.8433 12.4277C18.1147 12.428 18.3354 12.6485 18.3354 12.9199V13.3379H18.5708C19.3438 13.3379 19.9731 13.9666 19.9731 14.7402V15.1035C19.9731 15.3751 19.7526 15.5957 19.481 15.5957C19.2095 15.5955 18.9888 15.375 18.9888 15.1035V14.7402C18.9888 14.5097 18.8014 14.3223 18.5708 14.3223H17.1138C16.8833 14.3224 16.6958 14.5098 16.6958 14.7402V15.4678C16.6958 15.6982 16.8833 15.8856 17.1138 15.8857H18.5708C19.3445 15.8857 19.973 16.5145 19.9731 17.2881V18.0166C19.9729 18.79 19.3444 19.418 18.5708 19.418H18.3354V19.8369C18.3353 20.1082 18.1145 20.3289 17.8433 20.3291C17.5718 20.3291 17.3513 20.1083 17.3511 19.8369V19.418H17.1147C16.3411 19.4179 15.7127 18.79 15.7124 18.0166V17.6523C15.7124 17.3808 15.933 17.1602 16.2046 17.1602C16.4761 17.1603 16.6968 17.3809 16.6968 17.6523V18.0166C16.697 18.2469 16.8843 18.4345 17.1147 18.4346H18.5718C18.8022 18.4345 18.9895 18.2469 18.9897 18.0166V17.2881C18.9896 17.0577 18.8023 16.8702 18.5718 16.8701H17.1147C16.341 16.8701 15.7124 16.2414 15.7124 15.4678V14.7402C15.7124 13.9666 16.341 13.3379 17.1147 13.3379H17.3511V12.9199C17.3511 12.6484 17.5717 12.4277 17.8433 12.4277Z" fill="#6B7280" stroke="#6B7280" stroke-width="0.1"/>
</svg>
