<svg width="80" height="80" viewBox="0 0 80 80" fill="none" xmlns="http://www.w3.org/2000/svg">
<rect width="80" height="80" rx="40" fill="#00A8A8"/>
<rect x="0.5" y="0.5" width="79" height="79" rx="39.5" stroke="white" stroke-opacity="0.4" stroke-dasharray="3 2"/>
<path fill-rule="evenodd" clip-rule="evenodd" d="M22.4408 45.7738C24.0036 44.211 26.1232 43.333 28.3333 43.333H41.6667C43.8768 43.333 45.9964 44.211 47.5592 45.7738C49.122 47.3366 50 49.4562 50 51.6663V54.9997C50 55.9201 49.2538 56.6663 48.3333 56.6663C47.4129 56.6663 46.6667 55.9201 46.6667 54.9997V51.6663C46.6667 50.3403 46.1399 49.0685 45.2022 48.1308C44.2645 47.1931 42.9927 46.6663 41.6667 46.6663H28.3333C27.0073 46.6663 25.7355 47.1931 24.7978 48.1308C23.8601 49.0685 23.3333 50.3403 23.3333 51.6663V54.9997C23.3333 55.9201 22.5871 56.6663 21.6667 56.6663C20.7462 56.6663 20 55.9201 20 54.9997V51.6663C20 49.4562 20.878 47.3366 22.4408 45.7738Z" fill="white"/>
<path fill-rule="evenodd" clip-rule="evenodd" d="M35 26.6663C32.2386 26.6663 30 28.9049 30 31.6663C30 34.4278 32.2386 36.6663 35 36.6663C37.7614 36.6663 40 34.4278 40 31.6663C40 28.9049 37.7614 26.6663 35 26.6663ZM26.6667 31.6663C26.6667 27.064 30.3976 23.333 35 23.333C39.6024 23.333 43.3333 27.064 43.3333 31.6663C43.3333 36.2687 39.6024 39.9997 35 39.9997C30.3976 39.9997 26.6667 36.2687 26.6667 31.6663Z" fill="white"/>
<path fill-rule="evenodd" clip-rule="evenodd" d="M51.7196 44.7997C51.9497 43.9084 52.8588 43.3725 53.75 43.6026C55.5378 44.0642 57.1216 45.1065 58.2528 46.5658C59.3841 48.025 59.9986 49.8187 60 51.6651V54.9997C60 55.9201 59.2538 56.6663 58.3333 56.6663C57.4129 56.6663 56.6667 55.9201 56.6667 54.9997V51.6676V51.6676C56.6657 50.5599 56.297 49.4834 55.6184 48.608C54.9396 47.7324 53.9893 47.107 52.9167 46.8301C52.0254 46.6 51.4895 45.6909 51.7196 44.7997Z" fill="white"/>
<path fill-rule="evenodd" clip-rule="evenodd" d="M45.0521 24.8029C45.2804 23.9112 46.1884 23.3734 47.0801 23.6018C48.8726 24.0607 50.4614 25.1032 51.596 26.5649C52.7306 28.0266 53.3464 29.8243 53.3464 31.6747C53.3464 33.525 52.7306 35.3228 51.596 36.7844C50.4614 38.2461 48.8726 39.2886 47.0801 39.7476C46.1884 39.9759 45.2804 39.4381 45.0521 38.5464C44.8238 37.6547 45.3616 36.7467 46.2533 36.5184C47.3288 36.243 48.2821 35.6175 48.9628 34.7405C49.6436 33.8635 50.0131 32.7849 50.0131 31.6747C50.0131 30.5645 49.6436 29.4858 48.9628 28.6088C48.2821 27.7318 47.3288 27.1063 46.2533 26.8309C45.3616 26.6026 44.8238 25.6947 45.0521 24.8029Z" fill="white"/>
</svg>
