<svg width="60" height="60" viewBox="0 0 60 60" fill="none" xmlns="http://www.w3.org/2000/svg">
<rect width="60" height="60" rx="30" fill="white"/>
<rect x="0.375" y="0.375" width="59.25" height="59.25" rx="29.625" stroke="white" stroke-opacity="0.4" stroke-width="0.75" stroke-dasharray="2.25 1.5"/>
<path d="M18 36.9353C18.0035 38.4303 18.3317 39.9067 18.9617 41.2625C19.5917 42.6182 20.5086 43.821 21.649 44.7877C24.0693 46.8767 27.1646 48.0178 30.3617 47.9998H30.4396C37.2442 47.9998 42.799 43.1043 42.8386 37.0539C42.8611 32.8675 40.2949 27.4007 36.5905 24.2959H37.2047C37.5042 24.2959 37.7913 24.1769 38.0031 23.9652C38.2148 23.7535 38.3337 23.4663 38.3337 23.1669C38.3337 22.8674 38.2148 22.5803 38.0031 22.3685C37.7913 22.1568 37.5042 22.0378 37.2047 22.0378H34.1835L35.8499 18.4792C36.0122 18.1349 36.0849 17.7552 36.0612 17.3754C36.0375 16.9955 35.9181 16.6278 35.7142 16.3064C35.5103 15.9851 35.2285 15.7204 34.895 15.5372C34.5614 15.3539 34.187 15.2579 33.8064 15.2581H30.6315L30.3233 14.4553C30.1815 14.0313 29.9099 13.6627 29.547 13.4015C29.1841 13.1403 28.7483 12.9999 28.3012 13H25.779C25.4236 12.9998 25.0738 13.0884 24.7614 13.2578C24.449 13.4272 24.1839 13.6721 23.9902 13.9701C23.7966 14.2681 23.6805 14.6098 23.6526 14.9641C23.6246 15.3184 23.6857 15.674 23.8303 15.9987L26.5117 22.0322H23.6564C23.357 22.0322 23.0698 22.1512 22.8581 22.3629C22.6463 22.5746 22.5274 22.8618 22.5274 23.1612C22.5274 23.4607 22.6463 23.7478 22.8581 23.9596C23.0698 24.1713 23.357 24.2903 23.6564 24.2903H24.3C20.6114 27.3827 18.0226 32.7975 18 36.9353ZM40.5805 37.0482C40.55 41.8771 35.9741 45.814 30.373 45.7496C27.7231 45.7674 25.1564 44.8253 23.1472 43.0976C22.2485 42.3423 21.5246 41.4008 21.0258 40.3382C20.5269 39.2755 20.2649 38.1171 20.2581 36.9432C20.2829 32.26 24.2333 25.5615 28.8386 24.2982L32.0236 24.2903C36.6752 25.539 40.6053 32.2996 40.5805 37.0403V37.0482ZM25.972 15.2581H28.2132L28.8025 16.7913L29.358 18.3166C29.4054 18.4602 29.4811 18.5928 29.5807 18.7066C29.6803 18.8204 29.8018 18.913 29.9379 18.979C30.074 19.0449 30.2219 19.0829 30.373 19.0905C30.524 19.0982 30.675 19.0755 30.8171 19.0236C30.9592 18.9718 31.0894 18.892 31.2 18.7889C31.3106 18.6858 31.3994 18.5615 31.4611 18.4234C31.5228 18.2853 31.5561 18.1362 31.559 17.985C31.562 17.8338 31.5345 17.6836 31.4783 17.5432L31.4693 17.5161H33.8064L31.6917 22.0322H28.982L25.972 15.2581Z" fill="#F5A623"/>
<path d="M30.4275 34.4527C30.2294 34.4527 30.0347 34.4006 29.863 34.3015C29.6914 34.2024 29.5489 34.0599 29.4498 33.8882C29.3507 33.7166 29.2985 33.5219 29.2985 33.3237C29.2985 33.1255 29.3507 32.9309 29.4497 32.7592C29.5488 32.5876 29.6914 32.4451 29.863 32.346C30.0346 32.2469 30.2293 32.1947 30.4275 32.1947C30.6257 32.1947 30.8204 32.2469 30.992 32.346C31.1637 32.445 31.3062 32.5876 31.4053 32.7592C31.5597 33.0088 31.8053 33.1885 32.09 33.2601C32.3746 33.3317 32.676 33.2897 32.9302 33.1428C33.1844 32.996 33.3714 32.7559 33.4515 32.4736C33.5317 32.1912 33.4987 31.8887 33.3596 31.6302C32.9502 30.9425 32.3101 30.4224 31.5532 30.1624V29.9366C31.5532 29.6372 31.4342 29.35 31.2225 29.1383C31.0108 28.9266 30.7236 28.8076 30.4242 28.8076C30.1247 28.8076 29.8375 28.9266 29.6258 29.1383C29.4141 29.35 29.2951 29.6372 29.2951 29.9366V30.1444C28.5424 30.4095 27.9078 30.9325 27.5038 31.6206C27.0997 32.3088 26.9522 33.1178 27.0875 33.9042C27.2227 34.6907 27.6319 35.404 28.2426 35.9177C28.8533 36.4313 29.6261 36.7123 30.4242 36.7108C30.6223 36.7108 30.817 36.763 30.9887 36.862C31.1603 36.9611 31.3028 37.1037 31.4019 37.2753C31.501 37.4469 31.5532 37.6416 31.5532 37.8398C31.5532 38.038 31.501 38.2327 31.402 38.4043C31.3029 38.576 31.1603 38.7185 30.9887 38.8176C30.8171 38.9167 30.6224 38.9688 30.4242 38.9688C30.226 38.9688 30.0313 38.9167 29.8597 38.8176C29.688 38.7185 29.5455 38.576 29.4464 38.4043C29.2956 38.1471 29.0492 37.96 28.761 37.8838C28.4728 37.8076 28.1661 37.8485 27.9079 37.9976C27.6497 38.1466 27.461 38.3918 27.3828 38.6795C27.3047 38.9672 27.3436 39.2742 27.4909 39.5334C27.9008 40.2206 28.5408 40.7406 29.2974 41.0011V41.2269C29.2974 41.5263 29.4163 41.8135 29.6281 42.0252C29.8398 42.237 30.127 42.3559 30.4264 42.3559C30.7259 42.3559 31.013 42.237 31.2248 42.0252C31.4365 41.8135 31.5554 41.5263 31.5554 41.2269V41.0192C32.3081 40.754 32.9427 40.2311 33.3468 39.5429C33.7509 38.8548 33.8983 38.0458 33.7631 37.2593C33.6279 36.4728 33.2187 35.7596 32.608 35.2459C31.9972 34.7322 31.2256 34.4512 30.4275 34.4527Z" fill="#F5A623"/>
</svg>
