<svg width="26" height="25" viewBox="0 0 26 25" fill="none" xmlns="http://www.w3.org/2000/svg">
<path d="M21.2097 7.49988C21.5652 8.10863 22.3474 8.31449 22.9562 7.95895C23.565 7.60341 23.7708 6.82124 23.4153 6.21245C21.181 2.38017 17.0169 0 12.5485 0C5.62867 0 0 5.57757 0 12.4338C0 19.2901 5.62867 24.8677 12.5485 24.8677C13.2533 24.8677 13.8259 24.2951 13.8259 23.5903C13.8259 22.8854 13.2533 22.3128 12.5485 22.3128C7.03831 22.3141 2.55486 17.8818 2.55486 12.4338C2.55486 6.98721 7.03831 2.55486 12.5485 2.55486C16.1112 2.55486 19.4296 4.44989 21.2097 7.49988Z" fill="#7C7C7C"/>
<path d="M25.2307 12.4341C25.2307 14.2941 22.4126 14.2941 22.4126 12.4341C22.4126 10.5754 25.2307 10.5754 25.2307 12.4341Z" fill="#7C7C7C"/>
<path d="M21.6048 19.2204C22.2784 19.6059 23.1404 19.3763 23.5296 18.7102C23.9188 18.0428 23.688 17.1907 23.0144 16.8053C22.3407 16.4198 21.4787 16.6493 21.0895 17.3155C20.7003 17.9829 20.9311 18.8349 21.6048 19.2204Z" fill="#7C7C7C"/>
<path d="M17.4807 20.8877C16.8071 21.2732 16.5763 22.1252 16.9655 22.7926C17.3547 23.46 18.2167 23.6883 18.8904 23.3029C19.564 22.9174 19.7948 22.0653 19.4056 21.398C19.0163 20.7318 18.1543 20.5035 17.4807 20.8877Z" fill="#7C7C7C"/>
<path d="M12.5499 6.97363C11.8451 6.97363 11.2725 7.54624 11.2725 8.25106V12.4353C11.2725 12.7758 11.4084 13.1039 11.6517 13.3435L14.4698 16.1329C14.7193 16.3799 15.0436 16.5021 15.368 16.5021C15.6973 16.5021 16.0266 16.3761 16.2761 16.1229C16.7727 15.6214 16.7689 14.813 16.2674 14.3165L13.8286 11.9026L13.8273 8.25109C13.8273 7.54503 13.256 6.97363 12.5499 6.97363Z" fill="#7C7C7C"/>
</svg>
