<svg width="60" height="60" viewBox="0 0 60 60" fill="none" xmlns="http://www.w3.org/2000/svg">
<rect width="60" height="60" rx="30" fill="white"/>
<rect x="0.375" y="0.375" width="59.25" height="59.25" rx="29.625" stroke="white" stroke-opacity="0.4" stroke-width="0.75" stroke-dasharray="2.25 1.5"/>
<mask id="path-3-outside-1_987_53335" maskUnits="userSpaceOnUse" x="13" y="13" width="34" height="34" fill="black">
<rect fill="white" x="13" y="13" width="34" height="34"/>
<path d="M26.1844 26.1598H22.3367C21.9519 26.1598 21.6954 26.4158 21.6954 26.7998V36.4C21.6954 36.784 21.9519 37.04 22.3367 37.04H37.7275C38.1123 37.04 38.3688 36.784 38.3688 36.4V24.88C38.3688 24.496 38.1123 24.24 37.7275 24.24H34.5211V22.32C34.5211 21.936 34.2646 21.68 33.8798 21.68H30.0321C29.6473 21.68 29.3908 21.936 29.3908 22.32V28.72H26.8257V26.8C26.8257 26.416 26.5692 26.1598 26.1844 26.1598ZM22.978 27.4398H25.5431V35.7596H22.978V27.4398ZM37.0862 25.5198V35.7598H34.5211V25.5198H37.0862ZM30.6734 22.9598H33.2385V35.7598H30.6734V22.9598ZM29.3908 30V35.7598H26.8257V30H29.3908ZM18.8738 19.248C19.002 19.376 19.1303 19.568 19.1303 19.76V22.32C19.1303 22.704 18.8738 22.96 18.489 22.96C18.1042 22.96 17.8477 22.704 17.8477 22.32V21.744C16.1804 24.176 15.2826 27.0561 15.2826 29.9999C15.2826 33.0719 16.2445 36.0161 18.0401 38.5118C18.2325 38.8318 18.1684 39.2158 17.9118 39.4078C17.7836 39.4718 17.6553 39.5358 17.5271 39.5358C17.3347 39.5358 17.1423 39.4718 17.0141 39.2798C15.0261 36.5278 14 33.3279 14 29.9999C14 26.6719 15.0261 23.536 16.8858 20.7839L16.0521 21.0399C15.7315 21.1039 15.3467 20.9119 15.2826 20.5919C15.2185 20.2719 15.4108 19.8879 15.7315 19.8239L18.2966 19.1839C18.5531 19.1199 18.7455 19.12 18.8738 19.248ZM44.7816 39.472C44.8457 39.792 44.6533 40.176 44.3327 40.24L41.7675 40.88H41.6393C41.511 40.88 41.3828 40.816 41.2545 40.752C40.998 40.624 40.9339 40.432 40.9339 40.24V37.68C40.9339 37.296 41.1904 37.04 41.5752 37.04C41.9599 37.04 42.2164 37.296 42.2164 37.68V38.256C43.8838 35.824 44.7816 32.9439 44.7816 30.0001C44.7816 26.9281 43.8196 23.9839 42.024 21.4882C41.8317 21.1682 41.8958 20.7842 42.1523 20.5922C42.4729 20.4002 42.8577 20.4642 43.0501 20.7202C44.9739 23.4722 46 26.6721 46 30.0001C46 33.3281 44.9739 36.464 43.1142 39.2161L43.9479 39.0241C44.3327 38.8961 44.6534 39.088 44.7816 39.472ZM39.4588 42.16C39.6512 42.48 39.5871 42.864 39.3306 43.056C36.5731 44.976 33.3668 46 30.0321 46C26.6974 46 23.5552 44.976 20.7976 43.12L20.99 43.952C21.0541 44.272 20.8617 44.656 20.5411 44.72H20.4128C20.1563 44.72 19.8357 44.528 19.7715 44.208L19.1302 41.648C19.0661 41.456 19.1302 41.264 19.2585 41.072C19.3868 40.944 19.5791 40.816 19.7715 40.816H22.3367C22.7214 40.816 22.9779 41.072 22.9779 41.456C22.9779 41.84 22.7214 42.096 22.3367 42.096H21.7595C24.1964 43.76 27.0823 44.656 30.032 44.656C33.1101 44.656 36.0602 43.696 38.5609 41.904C38.8816 41.776 39.2665 41.84 39.4588 42.16ZM40.9338 18.352C40.9979 18.544 40.9338 18.736 40.8056 18.928C40.6773 19.056 40.4849 19.12 40.2925 19.12H37.7274C37.3426 19.12 37.0861 18.864 37.0861 18.48C37.0861 18.096 37.3426 17.84 37.7274 17.84H38.3045C35.8677 16.176 32.9818 15.28 30.0321 15.28C26.9539 15.28 24.0038 16.24 21.5031 18.032C21.2466 18.224 20.7977 18.16 20.6053 17.904C20.4129 17.584 20.4771 17.2 20.7336 17.008C23.4911 15.024 26.6974 14 30.0321 14C33.3668 14 36.5089 15.024 39.2666 16.88L39.0101 16.048C38.9459 15.728 39.1383 15.344 39.459 15.28C39.7796 15.216 40.1644 15.408 40.2285 15.728L40.9338 18.352Z"/>
</mask>
<path d="M26.1844 26.1598H22.3367C21.9519 26.1598 21.6954 26.4158 21.6954 26.7998V36.4C21.6954 36.784 21.9519 37.04 22.3367 37.04H37.7275C38.1123 37.04 38.3688 36.784 38.3688 36.4V24.88C38.3688 24.496 38.1123 24.24 37.7275 24.24H34.5211V22.32C34.5211 21.936 34.2646 21.68 33.8798 21.68H30.0321C29.6473 21.68 29.3908 21.936 29.3908 22.32V28.72H26.8257V26.8C26.8257 26.416 26.5692 26.1598 26.1844 26.1598ZM22.978 27.4398H25.5431V35.7596H22.978V27.4398ZM37.0862 25.5198V35.7598H34.5211V25.5198H37.0862ZM30.6734 22.9598H33.2385V35.7598H30.6734V22.9598ZM29.3908 30V35.7598H26.8257V30H29.3908ZM18.8738 19.248C19.002 19.376 19.1303 19.568 19.1303 19.76V22.32C19.1303 22.704 18.8738 22.96 18.489 22.96C18.1042 22.96 17.8477 22.704 17.8477 22.32V21.744C16.1804 24.176 15.2826 27.0561 15.2826 29.9999C15.2826 33.0719 16.2445 36.0161 18.0401 38.5118C18.2325 38.8318 18.1684 39.2158 17.9118 39.4078C17.7836 39.4718 17.6553 39.5358 17.5271 39.5358C17.3347 39.5358 17.1423 39.4718 17.0141 39.2798C15.0261 36.5278 14 33.3279 14 29.9999C14 26.6719 15.0261 23.536 16.8858 20.7839L16.0521 21.0399C15.7315 21.1039 15.3467 20.9119 15.2826 20.5919C15.2185 20.2719 15.4108 19.8879 15.7315 19.8239L18.2966 19.1839C18.5531 19.1199 18.7455 19.12 18.8738 19.248ZM44.7816 39.472C44.8457 39.792 44.6533 40.176 44.3327 40.24L41.7675 40.88H41.6393C41.511 40.88 41.3828 40.816 41.2545 40.752C40.998 40.624 40.9339 40.432 40.9339 40.24V37.68C40.9339 37.296 41.1904 37.04 41.5752 37.04C41.9599 37.04 42.2164 37.296 42.2164 37.68V38.256C43.8838 35.824 44.7816 32.9439 44.7816 30.0001C44.7816 26.9281 43.8196 23.9839 42.024 21.4882C41.8317 21.1682 41.8958 20.7842 42.1523 20.5922C42.4729 20.4002 42.8577 20.4642 43.0501 20.7202C44.9739 23.4722 46 26.6721 46 30.0001C46 33.3281 44.9739 36.464 43.1142 39.2161L43.9479 39.0241C44.3327 38.8961 44.6534 39.088 44.7816 39.472ZM39.4588 42.16C39.6512 42.48 39.5871 42.864 39.3306 43.056C36.5731 44.976 33.3668 46 30.0321 46C26.6974 46 23.5552 44.976 20.7976 43.12L20.99 43.952C21.0541 44.272 20.8617 44.656 20.5411 44.72H20.4128C20.1563 44.72 19.8357 44.528 19.7715 44.208L19.1302 41.648C19.0661 41.456 19.1302 41.264 19.2585 41.072C19.3868 40.944 19.5791 40.816 19.7715 40.816H22.3367C22.7214 40.816 22.9779 41.072 22.9779 41.456C22.9779 41.84 22.7214 42.096 22.3367 42.096H21.7595C24.1964 43.76 27.0823 44.656 30.032 44.656C33.1101 44.656 36.0602 43.696 38.5609 41.904C38.8816 41.776 39.2665 41.84 39.4588 42.16ZM40.9338 18.352C40.9979 18.544 40.9338 18.736 40.8056 18.928C40.6773 19.056 40.4849 19.12 40.2925 19.12H37.7274C37.3426 19.12 37.0861 18.864 37.0861 18.48C37.0861 18.096 37.3426 17.84 37.7274 17.84H38.3045C35.8677 16.176 32.9818 15.28 30.0321 15.28C26.9539 15.28 24.0038 16.24 21.5031 18.032C21.2466 18.224 20.7977 18.16 20.6053 17.904C20.4129 17.584 20.4771 17.2 20.7336 17.008C23.4911 15.024 26.6974 14 30.0321 14C33.3668 14 36.5089 15.024 39.2666 16.88L39.0101 16.048C38.9459 15.728 39.1383 15.344 39.459 15.28C39.7796 15.216 40.1644 15.408 40.2285 15.728L40.9338 18.352Z" fill="#4880FF"/>
<path d="M26.1844 26.1598H22.3367C21.9519 26.1598 21.6954 26.4158 21.6954 26.7998V36.4C21.6954 36.784 21.9519 37.04 22.3367 37.04H37.7275C38.1123 37.04 38.3688 36.784 38.3688 36.4V24.88C38.3688 24.496 38.1123 24.24 37.7275 24.24H34.5211V22.32C34.5211 21.936 34.2646 21.68 33.8798 21.68H30.0321C29.6473 21.68 29.3908 21.936 29.3908 22.32V28.72H26.8257V26.8C26.8257 26.416 26.5692 26.1598 26.1844 26.1598ZM22.978 27.4398H25.5431V35.7596H22.978V27.4398ZM37.0862 25.5198V35.7598H34.5211V25.5198H37.0862ZM30.6734 22.9598H33.2385V35.7598H30.6734V22.9598ZM29.3908 30V35.7598H26.8257V30H29.3908ZM18.8738 19.248C19.002 19.376 19.1303 19.568 19.1303 19.76V22.32C19.1303 22.704 18.8738 22.96 18.489 22.96C18.1042 22.96 17.8477 22.704 17.8477 22.32V21.744C16.1804 24.176 15.2826 27.0561 15.2826 29.9999C15.2826 33.0719 16.2445 36.0161 18.0401 38.5118C18.2325 38.8318 18.1684 39.2158 17.9118 39.4078C17.7836 39.4718 17.6553 39.5358 17.5271 39.5358C17.3347 39.5358 17.1423 39.4718 17.0141 39.2798C15.0261 36.5278 14 33.3279 14 29.9999C14 26.6719 15.0261 23.536 16.8858 20.7839L16.0521 21.0399C15.7315 21.1039 15.3467 20.9119 15.2826 20.5919C15.2185 20.2719 15.4108 19.8879 15.7315 19.8239L18.2966 19.1839C18.5531 19.1199 18.7455 19.12 18.8738 19.248ZM44.7816 39.472C44.8457 39.792 44.6533 40.176 44.3327 40.24L41.7675 40.88H41.6393C41.511 40.88 41.3828 40.816 41.2545 40.752C40.998 40.624 40.9339 40.432 40.9339 40.24V37.68C40.9339 37.296 41.1904 37.04 41.5752 37.04C41.9599 37.04 42.2164 37.296 42.2164 37.68V38.256C43.8838 35.824 44.7816 32.9439 44.7816 30.0001C44.7816 26.9281 43.8196 23.9839 42.024 21.4882C41.8317 21.1682 41.8958 20.7842 42.1523 20.5922C42.4729 20.4002 42.8577 20.4642 43.0501 20.7202C44.9739 23.4722 46 26.6721 46 30.0001C46 33.3281 44.9739 36.464 43.1142 39.2161L43.9479 39.0241C44.3327 38.8961 44.6534 39.088 44.7816 39.472ZM39.4588 42.16C39.6512 42.48 39.5871 42.864 39.3306 43.056C36.5731 44.976 33.3668 46 30.0321 46C26.6974 46 23.5552 44.976 20.7976 43.12L20.99 43.952C21.0541 44.272 20.8617 44.656 20.5411 44.72H20.4128C20.1563 44.72 19.8357 44.528 19.7715 44.208L19.1302 41.648C19.0661 41.456 19.1302 41.264 19.2585 41.072C19.3868 40.944 19.5791 40.816 19.7715 40.816H22.3367C22.7214 40.816 22.9779 41.072 22.9779 41.456C22.9779 41.84 22.7214 42.096 22.3367 42.096H21.7595C24.1964 43.76 27.0823 44.656 30.032 44.656C33.1101 44.656 36.0602 43.696 38.5609 41.904C38.8816 41.776 39.2665 41.84 39.4588 42.16ZM40.9338 18.352C40.9979 18.544 40.9338 18.736 40.8056 18.928C40.6773 19.056 40.4849 19.12 40.2925 19.12H37.7274C37.3426 19.12 37.0861 18.864 37.0861 18.48C37.0861 18.096 37.3426 17.84 37.7274 17.84H38.3045C35.8677 16.176 32.9818 15.28 30.0321 15.28C26.9539 15.28 24.0038 16.24 21.5031 18.032C21.2466 18.224 20.7977 18.16 20.6053 17.904C20.4129 17.584 20.4771 17.2 20.7336 17.008C23.4911 15.024 26.6974 14 30.0321 14C33.3668 14 36.5089 15.024 39.2666 16.88L39.0101 16.048C38.9459 15.728 39.1383 15.344 39.459 15.28C39.7796 15.216 40.1644 15.408 40.2285 15.728L40.9338 18.352Z" stroke="#4880FF" stroke-width="0.1" mask="url(#path-3-outside-1_987_53335)"/>
</svg>
