<svg width="22" height="22" viewBox="0 0 22 22" fill="none" xmlns="http://www.w3.org/2000/svg">
<path d="M3.6665 13.7503C3.6665 13.2641 3.85966 12.7978 4.20347 12.454C4.54729 12.1101 5.01361 11.917 5.49984 11.917H6.4165C6.90273 11.917 7.36905 12.1101 7.71287 12.454C8.05668 12.7978 8.24984 13.2641 8.24984 13.7503V16.5003C8.24984 16.9866 8.05668 17.4529 7.71287 17.7967C7.36905 18.1405 6.90273 18.3337 6.4165 18.3337H5.49984C5.01361 18.3337 4.54729 18.1405 4.20347 17.7967C3.85966 17.4529 3.6665 16.9866 3.6665 16.5003V13.7503ZM3.6665 13.7503V11.0003C3.6665 9.0554 4.43912 7.19014 5.81439 5.81488C7.18965 4.43961 9.05492 3.66699 10.9998 3.66699C12.9448 3.66699 14.81 4.43961 16.1853 5.81488C17.5606 7.19014 18.3332 9.0554 18.3332 11.0003V13.7503M18.3332 13.7503C18.3332 13.2641 18.14 12.7978 17.7962 12.454C17.4524 12.1101 16.9861 11.917 16.4998 11.917H15.5832C15.0969 11.917 14.6306 12.1101 14.2868 12.454C13.943 12.7978 13.7498 13.2641 13.7498 13.7503V16.5003C13.7498 16.9866 13.943 17.4529 14.2868 17.7967C14.6306 18.1405 15.0969 18.3337 15.5832 18.3337H16.4998C16.9861 18.3337 17.4524 18.1405 17.7962 17.7967C18.14 17.4529 18.3332 16.9866 18.3332 16.5003V13.7503Z" stroke="#6B7280" stroke-width="1.5" stroke-linecap="round" stroke-linejoin="round"/>
</svg>
