<svg width="80" height="80" viewBox="0 0 80 80" fill="none" xmlns="http://www.w3.org/2000/svg">
<rect width="80" height="80" rx="40" fill="#0B5380"/>
<rect x="0.5" y="0.5" width="79" height="79" rx="39.5" stroke="white" stroke-opacity="0.4" stroke-dasharray="3 2"/>
<path fill-rule="evenodd" clip-rule="evenodd" d="M40.0002 21.6699C39.1239 21.6699 38.263 21.9002 37.5037 22.3377L32.1773 25.3814C31.8271 25.4507 31.5005 25.6316 31.2545 25.9087L25.8399 29.0028L25.8335 29.0065C25.2169 29.3625 24.6851 29.8451 24.272 30.4204C24.1714 30.521 24.0821 30.6363 24.0075 30.7653C23.9432 30.8764 23.8932 30.9919 23.8569 31.1095C23.514 31.7986 23.3343 32.559 23.3335 33.3315V46.6682C23.3344 47.545 23.5659 48.4062 24.0046 49.1653C24.4434 49.9244 25.0742 50.5548 25.8335 50.9932L25.8399 50.9969L37.5002 57.6599L37.5032 57.6617C38.0319 57.9664 38.6099 58.1706 39.2081 58.2666C39.4437 58.3941 39.7135 58.4665 40.0002 58.4665C40.2869 58.4665 40.5566 58.3941 40.7922 58.2666C41.3904 58.1706 41.9685 57.9664 42.4972 57.6616L42.5002 57.6599L54.1604 50.9969L54.1668 50.9932C54.9262 50.5548 55.5569 49.9244 55.9957 49.1653C56.4345 48.4062 56.6659 47.545 56.6668 46.6682V33.3315C56.666 32.559 56.4863 31.7986 56.1434 31.1095C56.1071 30.9918 56.0571 30.8764 55.9928 30.7653C55.9182 30.6363 55.829 30.5211 55.7284 30.4204C55.3153 29.8451 54.7835 29.3625 54.1668 29.0064L42.5002 22.3398L42.4967 22.3378C41.7374 21.9002 40.8765 21.6699 40.0002 21.6699ZM26.6668 34.2291L24.6156 33.0425C23.93 32.6459 23.6327 31.8356 23.8569 31.1095C23.9032 31.0165 23.9524 30.9247 24.0046 30.8344C24.0871 30.6917 24.1764 30.5536 24.272 30.4204C24.7927 29.8996 25.6169 29.7709 26.2847 30.1572L28.3985 31.3799L27.5002 31.8932L27.4975 31.8947C27.2456 32.0408 27.0363 32.2504 26.8905 32.5025C26.7444 32.7553 26.6673 33.0421 26.6668 33.3342V34.2291ZM38.3335 40.9778L26.6668 34.2291V46.6655C26.6673 46.9575 26.7444 47.2443 26.8905 47.4972C27.0363 47.7493 27.2456 47.9589 27.4975 48.1049L27.5002 48.1065L38.3335 54.2969V40.9778ZM41.6668 40.9778V39.9998C41.6668 39.0794 40.9206 38.3332 40.0002 38.3332C39.0797 38.3332 38.3335 39.0794 38.3335 39.9998V40.9778L39.1656 41.4592C39.6819 41.7578 40.3184 41.7578 40.8347 41.4592L41.6668 40.9778ZM41.6668 40.9778L53.3335 34.2291V46.6648C53.3332 46.9571 53.256 47.2441 53.1098 47.4972C52.964 47.7493 52.7547 47.9589 52.5028 48.1049L52.5002 48.1065L41.6668 54.2969V40.9778ZM32.5835 28.9885L44.1777 35.6745L40.0002 38.0911L28.3985 31.3799L32.5835 28.9885ZM35.935 27.0733L32.5835 28.9885L31.6676 28.4603C30.8702 28.0005 30.5965 26.9813 31.0564 26.1839C31.1141 26.0838 31.1807 25.9919 31.2545 25.9087L32.1773 25.3814C32.5592 25.3058 32.9691 25.363 33.3328 25.5727L35.935 27.0733ZM35.935 27.0733L39.1604 25.2303L39.1668 25.2265C39.4202 25.0803 39.7076 25.0033 40.0002 25.0033C40.2927 25.0033 40.5801 25.0803 40.8335 25.2266L51.6019 31.3799L47.5088 33.7476L35.935 27.0733Z" fill="white"/>
<path d="M27.4975 31.8947L27.5002 31.8932L28.3985 31.3799L26.2847 30.1572C25.6169 29.7709 24.7927 29.8996 24.272 30.4204C24.1764 30.5536 24.0871 30.6917 24.0046 30.8344C23.9524 30.9247 23.9032 31.0165 23.8569 31.1095C23.6327 31.8356 23.93 32.6459 24.6156 33.0425L26.6668 34.2291V33.3342C26.6673 33.0421 26.7444 32.7553 26.8905 32.5025C27.0363 32.2504 27.2456 32.0408 27.4975 31.8947Z" fill="white"/>
<path d="M31.0564 26.1839C30.5965 26.9813 30.8702 28.0005 31.6676 28.4603L32.5835 28.9885L35.935 27.0733L33.3328 25.5727C32.9691 25.363 32.5592 25.3058 32.1773 25.3814L31.2545 25.9087C31.1807 25.9919 31.1141 26.0838 31.0564 26.1839Z" fill="white"/>
<path d="M39.1656 41.4592C39.6819 41.7578 40.3184 41.7578 40.8347 41.4592L41.6668 40.9778V39.9998C41.6668 39.0794 40.9206 38.3332 40.0002 38.3332C39.0797 38.3332 38.3335 39.0794 38.3335 39.9998V40.9778L39.1656 41.4592Z" fill="white"/>
</svg>
