<svg width="24" height="25" viewBox="0 0 24 25" fill="none" xmlns="http://www.w3.org/2000/svg">
<path d="M3 16.4128C3.00243 17.4379 3.22743 18.4503 3.65944 19.38C4.09146 20.3096 4.72019 21.1344 5.50218 21.7973C7.16183 23.2297 9.28431 24.0122 11.4766 23.9999H11.53C16.196 23.9999 20.0051 20.643 20.0322 16.4941C20.0476 13.6234 18.2879 9.87478 15.7478 7.74576H16.169C16.3743 7.74576 16.5712 7.66419 16.7164 7.519C16.8616 7.37382 16.9431 7.1769 16.9431 6.97157C16.9431 6.76624 16.8616 6.56933 16.7164 6.42414C16.5712 6.27895 16.3743 6.19738 16.169 6.19738H14.0972L15.2399 3.75714C15.3512 3.52109 15.4011 3.26073 15.3848 3.00026C15.3685 2.73979 15.2867 2.48765 15.1469 2.26728C15.0071 2.04691 14.8138 1.86545 14.5851 1.73976C14.3564 1.61408 14.0996 1.54824 13.8386 1.54838H11.6616L11.4503 0.997929C11.353 0.707192 11.1668 0.454398 10.918 0.275311C10.6691 0.0962244 10.3703 -8.75369e-05 10.0637 3.26889e-07H8.33416C8.09046 -0.000162638 7.85059 0.0606091 7.63636 0.176788C7.42214 0.292966 7.24036 0.460864 7.10757 0.665207C6.97478 0.869549 6.89519 1.10385 6.87604 1.34679C6.85688 1.58974 6.89878 1.83362 6.99791 2.05625L8.83661 6.19351H6.87869C6.67336 6.19351 6.47644 6.27508 6.33125 6.42027C6.18606 6.56545 6.1045 6.76237 6.1045 6.9677C6.1045 7.17303 6.18606 7.36995 6.33125 7.51513C6.47644 7.66032 6.67336 7.74189 6.87869 7.74189H7.31997C4.7907 9.86239 3.01548 13.5754 3 16.4128ZM18.4838 16.4902C18.4629 19.8014 15.3251 22.501 11.4843 22.4569C9.66729 22.4691 7.90726 21.8231 6.52953 20.6383C5.91325 20.1205 5.41688 19.4748 5.0748 18.7462C4.73272 18.0175 4.5531 17.2232 4.54838 16.4182C4.56541 13.2069 7.2743 8.61363 10.4322 7.74731L12.6162 7.74189C15.8059 8.59814 18.5008 13.234 18.4838 16.4848V16.4902ZM8.46655 1.54838H10.0033L10.4074 2.59973L10.7883 3.64566C10.8208 3.74414 10.8728 3.83509 10.9411 3.91312C11.0094 3.99115 11.0926 4.05466 11.186 4.09988C11.2793 4.1451 11.3807 4.17111 11.4843 4.17637C11.5879 4.18163 11.6914 4.16603 11.7889 4.1305C11.8863 4.09496 11.9756 4.04022 12.0514 3.96951C12.1273 3.89881 12.1882 3.81358 12.2305 3.7189C12.2728 3.62421 12.2956 3.522 12.2976 3.41832C12.2996 3.31463 12.2808 3.2116 12.2423 3.11534L12.2361 3.09676H13.8386L12.3886 6.19351H10.5305L8.46655 1.54838Z" fill="#6B7280"/>
<path d="M11.5231 14.7108C11.3872 14.7108 11.2537 14.675 11.136 14.6071C11.0183 14.5391 10.9206 14.4414 10.8526 14.3237C10.7847 14.206 10.7489 14.0725 10.7489 13.9366C10.7489 13.8007 10.7846 13.6672 10.8526 13.5495C10.9205 13.4318 11.0183 13.3341 11.136 13.2661C11.2537 13.1982 11.3872 13.1624 11.5231 13.1624C11.659 13.1624 11.7925 13.1982 11.9102 13.2661C12.0278 13.3341 12.1256 13.4318 12.1935 13.5495C12.2994 13.7207 12.4678 13.8439 12.663 13.893C12.8582 13.9421 13.0649 13.9132 13.2392 13.8126C13.4135 13.7119 13.5417 13.5473 13.5967 13.3536C13.6516 13.16 13.629 12.9526 13.5337 12.7753C13.2529 12.3038 12.814 11.9471 12.295 11.7689V11.614C12.295 11.4087 12.2134 11.2118 12.0682 11.0666C11.923 10.9214 11.7261 10.8398 11.5208 10.8398C11.3154 10.8398 11.1185 10.9214 10.9733 11.0666C10.8281 11.2118 10.7466 11.4087 10.7466 11.614V11.7565C10.2304 11.9383 9.79529 12.2969 9.51821 12.7688C9.24114 13.2406 9.14001 13.7954 9.23273 14.3347C9.32546 14.874 9.60606 15.3631 10.0248 15.7153C10.4436 16.0675 10.9735 16.2602 11.5208 16.2592C11.6567 16.2592 11.7902 16.2949 11.9079 16.3629C12.0256 16.4308 12.1233 16.5286 12.1912 16.6462C12.2592 16.7639 12.295 16.8974 12.295 17.0333C12.295 17.1692 12.2592 17.3027 12.1913 17.4204C12.1233 17.5381 12.0256 17.6359 11.9079 17.7038C11.7902 17.7718 11.6567 17.8075 11.5208 17.8075C11.3849 17.8075 11.2514 17.7718 11.1337 17.7038C11.016 17.6359 10.9183 17.5381 10.8503 17.4204C10.7469 17.2441 10.578 17.1158 10.3803 17.0635C10.1827 17.0113 9.97238 17.0393 9.79533 17.1415C9.61828 17.2437 9.48886 17.4119 9.43529 17.6091C9.38173 17.8064 9.40837 18.0169 9.50942 18.1946C9.79047 18.6659 10.2293 19.0225 10.7481 19.2011V19.3559C10.7481 19.5612 10.8297 19.7582 10.9749 19.9034C11.1201 20.0485 11.317 20.1301 11.5223 20.1301C11.7276 20.1301 11.9246 20.0485 12.0697 19.9034C12.2149 19.7582 12.2965 19.5612 12.2965 19.3559V19.2135C12.8126 19.0317 13.2478 18.6731 13.5249 18.2012C13.8019 17.7293 13.9031 17.1746 13.8103 16.6353C13.7176 16.096 13.437 15.6069 13.0182 15.2547C12.5995 14.9024 12.0703 14.7098 11.5231 14.7108Z" fill="#6B7280"/>
</svg>
