<svg width="24" height="24" viewBox="0 0 24 24" fill="none" xmlns="http://www.w3.org/2000/svg">
<path fill-rule="evenodd" clip-rule="evenodd" d="M3.34243 15.1932C4.20197 14.3493 5.36776 13.8752 6.58333 13.8752H13.9167C15.1322 13.8752 16.298 14.3493 17.1576 15.1932C18.0171 16.0371 18.5 17.1817 18.5 18.3752V20.1752C18.5 20.6723 18.0896 21.0752 17.5833 21.0752C17.0771 21.0752 16.6667 20.6723 16.6667 20.1752V18.3752C16.6667 17.6591 16.3769 16.9724 15.8612 16.466C15.3455 15.9597 14.646 15.6752 13.9167 15.6752H6.58333C5.85399 15.6752 5.15452 15.9597 4.63879 16.466C4.12306 16.9724 3.83333 17.6591 3.83333 18.3752V20.1752C3.83333 20.6723 3.42293 21.0752 2.91667 21.0752C2.41041 21.0752 2 20.6723 2 20.1752V18.3752C2 17.1817 2.48289 16.0371 3.34243 15.1932Z" fill="#6B7280"/>
<path fill-rule="evenodd" clip-rule="evenodd" d="M10.25 4.8752C8.73122 4.8752 7.5 6.08403 7.5 7.5752C7.5 9.06636 8.73122 10.2752 10.25 10.2752C11.7688 10.2752 13 9.06636 13 7.5752C13 6.08403 11.7688 4.8752 10.25 4.8752ZM5.66667 7.5752C5.66667 5.08991 7.71869 3.0752 10.25 3.0752C12.7813 3.0752 14.8333 5.08991 14.8333 7.5752C14.8333 10.0605 12.7813 12.0752 10.25 12.0752C7.71869 12.0752 5.66667 10.0605 5.66667 7.5752Z" fill="#6B7280"/>
<path fill-rule="evenodd" clip-rule="evenodd" d="M19.4458 14.6672C19.5723 14.1859 20.0723 13.8965 20.5625 14.0208C21.5458 14.27 22.4169 14.8329 23.0391 15.6209C23.6612 16.4089 23.9992 17.3775 24 18.3745V20.1752C24 20.6723 23.5896 21.0752 23.0833 21.0752C22.5771 21.0752 22.1667 20.6723 22.1667 20.1752V18.3759V18.3759C22.1662 17.7777 21.9634 17.1964 21.5901 16.7237C21.2168 16.2509 20.6941 15.9132 20.1042 15.7636C19.614 15.6394 19.3192 15.1485 19.4458 14.6672Z" fill="#6B7280"/>
<path fill-rule="evenodd" clip-rule="evenodd" d="M15.7786 3.86896C15.9042 3.38744 16.4036 3.09703 16.894 3.22032C17.8799 3.46816 18.7538 4.03111 19.3778 4.82042C20.0018 5.60973 20.3405 6.5805 20.3405 7.5797C20.3405 8.57889 20.0018 9.54966 19.3778 10.339C18.7538 11.1283 17.8799 11.6912 16.894 11.9391C16.4036 12.0624 15.9042 11.772 15.7786 11.2904C15.6531 10.8089 15.9489 10.3186 16.4393 10.1953C17.0308 10.0466 17.5551 9.70885 17.9295 9.23526C18.304 8.76167 18.5072 8.17921 18.5072 7.5797C18.5072 6.98018 18.304 6.39772 17.9295 5.92413C17.5551 5.45054 17.0308 5.11277 16.4393 4.96407C15.9489 4.84078 15.6531 4.35048 15.7786 3.86896Z" fill="#6B7280"/>
</svg>
