<svg width="22" height="22" viewBox="0 0 22 22" fill="none" xmlns="http://www.w3.org/2000/svg">
<path fill-rule="evenodd" clip-rule="evenodd" d="M11.0002 0.918945C10.5182 0.918945 10.0447 1.04561 9.62713 1.28624L6.69761 2.96024C6.505 2.99835 6.32532 3.09785 6.19004 3.25028L3.21203 4.952L3.2085 4.95404C2.86935 5.14985 2.57685 5.41529 2.34965 5.73172C2.29433 5.78706 2.24523 5.85045 2.20419 5.9214C2.16884 5.98252 2.14133 6.04601 2.12135 6.11073C1.93279 6.48974 1.83393 6.90793 1.8335 7.33279V14.668C1.83399 15.1503 1.96129 15.6239 2.20263 16.0414C2.44397 16.4589 2.79086 16.8056 3.2085 17.0468L3.21203 17.0488L9.62516 20.7134L9.62686 20.7144C9.91763 20.882 10.2355 20.9943 10.5645 21.0471C10.6941 21.1173 10.8425 21.1571 11.0002 21.1571C11.1578 21.1571 11.3062 21.1173 11.4358 21.0471C11.7648 20.9943 12.0827 20.882 12.3735 20.7144L12.3752 20.7134L18.7883 17.0488L18.7918 17.0468C19.2095 16.8056 19.5564 16.4589 19.7977 16.0414C20.039 15.6239 20.1663 15.1503 20.1668 14.668V7.33279C20.1664 6.90792 20.0675 6.48973 19.879 6.11071C19.859 6.046 19.8315 5.98251 19.7961 5.9214C19.7551 5.85046 19.706 5.78707 19.6507 5.73173C19.4235 5.41529 19.131 5.14985 18.7918 4.95403L12.3752 1.28738L12.3732 1.28627C11.9557 1.04563 11.4822 0.918945 11.0002 0.918945ZM3.66683 7.82647L2.53867 7.17387C2.16156 6.95573 1.99807 6.51005 2.12135 6.11073C2.14681 6.05954 2.17391 6.00907 2.20263 5.95939C2.24799 5.88092 2.29707 5.80496 2.34965 5.73172C2.63605 5.44526 3.08939 5.37447 3.45666 5.58693L4.61923 6.25943L4.12516 6.54176L4.12372 6.54259C3.98515 6.62293 3.87004 6.73818 3.78987 6.87687C3.70949 7.01593 3.66706 7.17366 3.66683 7.33428V7.82647ZM10.0835 11.5383L3.66683 7.82647V14.6665C3.66706 14.8271 3.70949 14.9849 3.78987 15.1239C3.87004 15.2626 3.98515 15.3779 4.12372 15.4582L4.12516 15.459L10.0835 18.8638V11.5383ZM11.9168 11.5383V11.0004C11.9168 10.4941 11.5064 10.0837 11.0002 10.0837C10.4939 10.0837 10.0835 10.4941 10.0835 11.0004V11.5383L10.5412 11.803C10.8251 11.9673 11.1752 11.9673 11.4592 11.803L11.9168 11.5383ZM11.9168 11.5383L18.3335 7.82647V14.6661C18.3333 14.8269 18.2909 14.9848 18.2105 15.1239C18.1303 15.2626 18.0152 15.3779 17.8766 15.4582L17.8752 15.459L11.9168 18.8638V11.5383ZM6.92098 4.94415L13.2978 8.62146L11.0002 9.95058L4.61923 6.25943L6.92098 4.94415ZM8.76433 3.89082L6.92098 4.94415L6.41724 4.65366C5.97867 4.40075 5.82817 3.8402 6.08107 3.40164C6.11283 3.34657 6.14944 3.29604 6.19004 3.25028L6.69761 2.96024C6.90764 2.91869 7.13305 2.95012 7.33309 3.06547L8.76433 3.89082ZM8.76433 3.89082L10.5383 2.87713L10.5418 2.87509C10.6812 2.79463 10.8393 2.75228 11.0002 2.75228C11.1611 2.75228 11.3191 2.79464 11.4585 2.8751L17.3811 6.25943L15.1299 7.56165L8.76433 3.89082Z" fill="#6B7280"/>
<path d="M4.12372 6.54259L4.12516 6.54176L4.61923 6.25943L3.45666 5.58693C3.08939 5.37447 2.63605 5.44526 2.34965 5.73172C2.29707 5.80496 2.24799 5.88092 2.20263 5.95939C2.17391 6.00907 2.14681 6.05954 2.12135 6.11073C1.99807 6.51005 2.16156 6.95573 2.53867 7.17387L3.66683 7.82647V7.33428C3.66706 7.17366 3.70949 7.01593 3.78987 6.87687C3.87004 6.73818 3.98515 6.62293 4.12372 6.54259Z" fill="#6B7280"/>
<path d="M6.08107 3.40164C5.82817 3.8402 5.97867 4.40075 6.41724 4.65366L6.92098 4.94415L8.76433 3.89082L7.33309 3.06547C7.13305 2.95012 6.90764 2.91869 6.69761 2.96024L6.19004 3.25028C6.14944 3.29604 6.11283 3.34657 6.08107 3.40164Z" fill="#6B7280"/>
<path d="M10.5412 11.803C10.8251 11.9673 11.1752 11.9673 11.4592 11.803L11.9168 11.5383V11.0004C11.9168 10.4941 11.5064 10.0837 11.0002 10.0837C10.4939 10.0837 10.0835 10.4941 10.0835 11.0004V11.5383L10.5412 11.803Z" fill="#6B7280"/>
</svg>
