<svg width="20" height="20" viewBox="0 0 20 20" fill="none" xmlns="http://www.w3.org/2000/svg">
<g clip-path="url(#clip0_987_50447)">
<path d="M1.42259 0.244078C1.09715 -0.0813592 0.569515 -0.0813592 0.244078 0.244078C-0.0813592 0.569515 -0.0813592 1.09715 0.244078 1.42259L3.80706 4.98557C4.04658 4.7794 4.29239 4.58 4.54425 4.38769C4.87646 4.13401 5.33831 4.16854 5.62954 4.45103L1.42259 0.244078Z" fill="#818898"/>
<path fill-rule="evenodd" clip-rule="evenodd" d="M8.43993 4.34473C8.95064 4.22519 9.47352 4.16543 9.99804 4.16666L10 4.16667C12.5837 4.16667 14.6704 5.64463 16.1629 7.23662C16.9015 8.0245 17.4705 8.81557 17.8547 9.41044C18.0036 9.64113 18.124 9.84103 18.215 9.99814C17.7838 10.7485 17.2866 11.4592 16.729 12.1218C16.4327 12.4739 16.478 12.9996 16.8301 13.296C17.1823 13.5923 17.708 13.547 18.0043 13.1949C18.7325 12.3294 19.3684 11.3903 19.9016 10.3928C20.029 10.1545 20.0329 9.86909 19.912 9.62732L19.1667 10C19.912 9.62732 19.9114 9.62599 19.9114 9.62599L19.9104 9.62406L19.9075 9.61837L19.8981 9.59985L19.8838 9.57238L19.8644 9.53536C19.8354 9.48058 19.7933 9.40269 19.7384 9.30499C19.6285 9.1097 19.4668 8.8346 19.2547 8.50623C18.8316 7.85109 18.2026 6.9755 17.3788 6.09672C15.7464 4.35554 13.2501 2.50037 10.001 2.5C9.34759 2.49854 8.69626 2.57302 8.06007 2.72193C7.61195 2.82683 7.3337 3.27514 7.4386 3.72326C7.54349 4.17139 7.9918 4.44963 8.43993 4.34473ZM10.001 2.5L10.002 2.5L10 3.33333V2.5H10.001ZM19.1667 10C18.4213 10.3727 18.4215 10.3731 18.4215 10.3731L19.1667 10ZM18.4215 10.3731L18.4209 10.372L18.4158 10.3619C18.4108 10.3521 18.4026 10.3363 18.3912 10.3149C18.3686 10.272 18.3333 10.2067 18.2857 10.1221C18.2646 10.0845 18.241 10.043 18.215 9.99814C18.215 9.99814 18.4158 10.3619 18.4215 10.3731ZM5.64749 4.46898L8.81937 7.64086L8.82506 7.64654L12.3534 11.1749L12.3592 11.1807L15.5295 14.351C15.533 14.3544 15.5364 14.3578 15.5399 14.3612C15.5424 14.3638 15.545 14.3664 15.5475 14.369L19.7559 18.5774C20.0814 18.9028 20.0814 19.4305 19.7559 19.7559C19.4305 20.0814 18.9028 20.0814 18.5774 19.7559L14.8551 16.0336C13.4135 16.9613 11.7373 17.4717 10.0136 17.4999L10 17.5C6.75041 17.5 4.25373 15.6446 2.62122 13.9033C1.79736 13.0245 1.16839 12.1489 0.74528 11.4938C0.533208 11.1654 0.371493 10.8903 0.261643 10.695C0.206686 10.5973 0.164617 10.5194 0.135628 10.4646C0.121131 10.4372 0.109896 10.4156 0.101948 10.4001L0.0924917 10.3816L0.0896159 10.3759L0.0886418 10.374C0.0886418 10.374 0.0879774 10.3727 0.833333 10L0.0879774 10.3727C-0.0331156 10.1305 -0.0289912 9.84457 0.099037 9.60598C1.04196 7.84875 2.29975 6.28305 3.80706 4.98557L4.98925 6.16776C3.70859 7.25114 2.62446 8.54847 1.78548 10.0026C1.87637 10.1596 1.9966 10.3593 2.14535 10.5896C2.52953 11.1844 3.09847 11.9755 3.83711 12.7634C5.32829 14.354 7.4126 15.8307 9.9932 15.8333C11.2811 15.8111 12.5364 15.4603 13.6428 14.8213L11.7081 12.8866C11.5758 12.9696 11.4376 13.0433 11.2943 13.1071C10.8854 13.2893 10.444 13.3873 9.99644 13.3952C9.54887 13.4031 9.1043 13.3207 8.68924 13.1531C8.27418 12.9854 7.89714 12.7359 7.58062 12.4194C7.26409 12.1029 7.01456 11.7258 6.84691 11.3108C6.67926 10.8957 6.59693 10.4511 6.60482 10.0036C6.61272 9.55599 6.71069 9.1146 6.89287 8.70571C6.95671 8.56243 7.03044 8.42417 7.11337 8.29188L4.98925 6.16776C5.17404 6.01143 5.36292 5.85956 5.55575 5.71231C5.92154 5.433 5.99163 4.91004 5.71231 4.54425C5.69195 4.51758 5.67029 4.49248 5.64749 4.46898ZM5.64749 4.46898L5.62954 4.45103C5.6356 4.45691 5.64158 4.46289 5.64749 4.46898ZM8.35658 9.53509C8.3031 9.69545 8.27422 9.86332 8.27123 10.033C8.26728 10.2567 8.30845 10.479 8.39227 10.6866C8.4761 10.8941 8.60086 11.0826 8.75913 11.2409C8.91739 11.3991 9.10591 11.5239 9.31344 11.6077C9.52097 11.6916 9.74326 11.7327 9.96704 11.7288C10.1367 11.7258 10.3046 11.6969 10.4649 11.6434L8.35658 9.53509Z" fill="#818898"/>
<path d="M5.55575 5.71231C5.92154 5.433 5.99163 4.91004 5.71231 4.54425C5.69195 4.51758 5.67029 4.49248 5.64749 4.46898L5.62954 4.45103C5.33831 4.16854 4.87646 4.13401 4.54425 4.38769C4.29239 4.58 4.04658 4.7794 3.80706 4.98557L4.98925 6.16776C5.17404 6.01143 5.36292 5.85956 5.55575 5.71231Z" fill="#818898"/>
</g>
<defs>
<clipPath id="clip0_987_50447">
<rect width="20" height="20" fill="white"/>
</clipPath>
</defs>
</svg>
