<svg width="24" height="24" viewBox="0 0 24 24" fill="none" xmlns="http://www.w3.org/2000/svg">
<path d="M19.7789 17.625V10.2514H21.2839C21.4717 10.2514 21.6507 10.1762 21.7833 10.0436C21.9159 9.91092 21.9911 9.73075 21.9911 9.54396V6.49874C21.9911 6.21026 21.8165 5.95161 21.5502 5.84218L12.2663 2.05306C12.0961 1.98231 11.9038 1.98231 11.7337 2.05306L2.44975 5.84218C2.18345 5.95161 2.00886 6.21026 2.00886 6.49874V9.54396C2.00886 9.73076 2.084 9.91093 2.2166 10.0436C2.34919 10.1762 2.52821 10.2514 2.71604 10.2514H4.22101V17.625C2.88177 18.1644 2.00334 19.4632 2 20.9079V21.2926C2 21.4805 2.07514 21.6596 2.20773 21.7922C2.34033 21.9248 2.52045 22 2.70718 22H21.2928C21.4796 22 21.6597 21.9248 21.7923 21.7922C21.9248 21.6596 22 21.4805 22 21.2926V20.9079C21.9967 19.4633 21.1181 18.1646 19.7789 17.625ZM18.3645 17.3675H15.8551V10.2516H18.3645V17.3675ZM9.55897 17.3675V10.2516H14.4408V17.3675H9.55897ZM3.42315 6.97434L11.9999 3.47384L20.5766 6.97434V8.83569L3.42287 8.83679L3.42315 6.97434ZM8.1446 10.2516V17.3675H5.6352V10.2516H8.1446ZM3.43956 20.5853C3.60089 19.5485 4.49261 18.7826 5.54233 18.7826H18.4572C19.5069 18.7826 20.3987 19.5485 20.56 20.5853H3.43956Z" fill="#6B7280"/>
</svg>
