<svg width="60" height="60" viewBox="0 0 60 60" fill="none" xmlns="http://www.w3.org/2000/svg">
<rect width="60" height="60" rx="30" fill="white"/>
<rect x="0.375" y="0.375" width="59.25" height="59.25" rx="29.625" stroke="white" stroke-opacity="0.4" stroke-width="0.75" stroke-dasharray="2.25 1.5"/>
<path fill-rule="evenodd" clip-rule="evenodd" d="M16.8306 34.3306C18.0027 33.1585 19.5924 32.5 21.25 32.5H31.25C32.9076 32.5 34.4973 33.1585 35.6694 34.3306C36.8415 35.5027 37.5 37.0924 37.5 38.75V41.25C37.5 41.9404 36.9404 42.5 36.25 42.5C35.5596 42.5 35 41.9404 35 41.25V38.75C35 37.7554 34.6049 36.8016 33.9017 36.0984C33.1984 35.3951 32.2446 35 31.25 35H21.25C20.2554 35 19.3016 35.3951 18.5983 36.0984C17.8951 36.8016 17.5 37.7554 17.5 38.75V41.25C17.5 41.9404 16.9404 42.5 16.25 42.5C15.5596 42.5 15 41.9404 15 41.25V38.75C15 37.0924 15.6585 35.5027 16.8306 34.3306Z" fill="#00A8A8"/>
<path fill-rule="evenodd" clip-rule="evenodd" d="M26.25 20C24.1789 20 22.5 21.6789 22.5 23.75C22.5 25.8211 24.1789 27.5 26.25 27.5C28.3211 27.5 30 25.8211 30 23.75C30 21.6789 28.3211 20 26.25 20ZM20 23.75C20 20.2982 22.7982 17.5 26.25 17.5C29.7018 17.5 32.5 20.2982 32.5 23.75C32.5 27.2018 29.7018 30 26.25 30C22.7982 30 20 27.2018 20 23.75Z" fill="#00A8A8"/>
<path fill-rule="evenodd" clip-rule="evenodd" d="M38.7897 33.6C38.9623 32.9316 39.6441 32.5296 40.3125 32.7022C41.6533 33.0484 42.8412 33.8301 43.6896 34.9246C44.5381 36.019 44.999 37.3643 45 38.7491V41.25C45 41.9404 44.4404 42.5 43.75 42.5C43.0596 42.5 42.5 41.9404 42.5 41.25V38.7509V38.7509C42.4993 37.9202 42.2228 37.1128 41.7138 36.4562C41.2047 35.7995 40.492 35.3305 39.6875 35.1228C39.0191 34.9502 38.6171 34.2684 38.7897 33.6Z" fill="#00A8A8"/>
<path fill-rule="evenodd" clip-rule="evenodd" d="M33.7891 18.6025C33.9603 17.9337 34.6413 17.5303 35.31 17.7016C36.6544 18.0458 37.846 18.8277 38.697 19.9239C39.5479 21.0202 40.0098 22.3685 40.0098 23.7563C40.0098 25.144 39.5479 26.4923 38.697 27.5886C37.846 28.6848 36.6544 29.4667 35.31 29.8109C34.6413 29.9822 33.9603 29.5788 33.7891 28.91C33.6178 28.2413 34.0212 27.5603 34.69 27.3891C35.4966 27.1825 36.2115 26.7134 36.7221 26.0556C37.2327 25.3979 37.5098 24.5889 37.5098 23.7563C37.5098 22.9236 37.2327 22.1146 36.7221 21.4569C36.2115 20.7991 35.4966 20.33 34.69 20.1234C34.0212 19.9522 33.6178 19.2712 33.7891 18.6025Z" fill="#00A8A8"/>
</svg>
