<svg width="60" height="60" viewBox="0 0 60 60" fill="none" xmlns="http://www.w3.org/2000/svg">
<rect width="60" height="60" rx="30" fill="white"/>
<rect x="0.375" y="0.375" width="59.25" height="59.25" rx="29.625" stroke="white" stroke-opacity="0.4" stroke-width="0.75" stroke-dasharray="2.25 1.5"/>
<path d="M29.2031 13.9346C30.897 13.9346 32.5659 14.1981 34.1631 14.7158C35.7082 15.2162 37.1655 15.9495 38.4961 16.8936C38.8148 17.1199 38.8894 17.5623 38.6631 17.8809C38.4366 18.1994 37.9944 18.2741 37.6758 18.0479C35.3834 16.4205 32.712 15.502 29.9102 15.3691V29.292H32.6455C33.0362 29.2921 33.3535 29.6094 33.3535 30C33.3534 30.3906 33.0361 30.7079 32.6455 30.708H29.9102V35.0303C29.9102 35.421 29.5929 35.7383 29.2021 35.7383C28.8114 35.7383 28.4941 35.421 28.4941 35.0303V30.708H21.71C21.8017 34.431 22.6151 37.8938 24.0215 40.5254C25.2728 42.8652 26.842 44.2665 28.4941 44.5791V39.3105C28.4944 38.92 28.8115 38.6025 29.2021 38.6025C29.5928 38.6025 29.9099 38.92 29.9102 39.3105V44.6299C30.5587 44.5983 31.2048 44.527 31.8379 44.4121C32.1744 44.3513 32.4988 44.5392 32.6221 44.8447L32.6621 44.9824L32.6738 45.125C32.6663 45.4541 32.4283 45.7448 32.0918 45.8057C31.144 45.9774 30.1719 46.0645 29.2021 46.0645H29.1406C26.9938 46.0563 24.9099 45.6318 22.9473 44.8018C21.9948 44.3994 21.0767 43.9001 20.2178 43.3203C19.3669 42.7462 18.5663 42.0868 17.8398 41.3594C17.1136 40.6321 16.4531 39.8332 15.8789 38.9824C15.2989 38.1235 14.799 37.2053 14.3965 36.2529C13.5583 34.2723 13.1338 32.1682 13.1338 30C13.1338 27.8315 13.5581 25.7269 14.3965 23.7461C14.799 22.7937 15.2989 21.8764 15.8789 21.0176C16.4532 20.1667 17.1134 19.366 17.8398 18.6396C18.5674 17.9134 19.3667 17.2529 20.2178 16.6787C21.0768 16.0988 21.9947 15.5997 22.9473 15.1973C24.9099 14.3672 26.9927 13.9427 29.1396 13.9346H29.2031ZM14.5684 30.708C14.8651 36.9194 19.0503 42.1268 24.7373 43.9502C24.0138 43.2057 23.3542 42.2823 22.7715 41.1924C21.9875 39.7248 21.3734 38.0229 20.9463 36.1328C20.5558 34.405 20.3378 32.5829 20.2939 30.708H14.5684ZM28.4941 15.4199C26.8418 15.7325 25.2729 17.1346 24.0215 19.4746C22.615 22.1062 21.8017 25.5689 21.71 29.292H28.4941V15.4199ZM24.7373 16.0488C19.0501 17.8722 14.8649 23.0803 14.5684 29.292H20.2939C20.3377 27.4168 20.5557 25.5943 20.9463 23.8662C21.3735 21.976 21.9874 20.2742 22.7715 18.8066C23.3543 17.7166 24.0137 16.7933 24.7373 16.0488Z" fill="#082E53" stroke="#082E53" stroke-width="0.13"/>
<path d="M42.6172 17.5879C42.9912 17.4404 43.4114 17.5371 43.6855 17.832L46.167 20.5039C46.4249 20.7833 46.5683 21.1459 46.5684 21.5264C46.5684 21.9066 46.4263 22.2703 46.167 22.5488L43.6855 25.2207C43.4974 25.4236 43.2394 25.5322 42.9746 25.5322C42.8553 25.5322 42.7337 25.5102 42.6172 25.4648C42.2421 25.3173 41.999 24.9609 41.999 24.5586V24.0879H35.293C34.9022 24.0879 34.585 23.7705 34.585 23.3799V23.3281L32.8711 25.1748V25.1758C32.8408 25.2082 32.8407 25.2596 32.8711 25.292L34.585 27.1377V27.0879C34.585 26.8996 34.6593 26.7196 34.792 26.5869C34.9248 26.4542 35.1046 26.3799 35.293 26.3799H43.502C43.8927 26.3799 44.21 26.6972 44.21 27.0879C44.2097 27.4784 43.8926 27.7959 43.502 27.7959H36.001V28.2666C36.001 28.6689 35.7579 29.0243 35.3828 29.1719V29.1729C35.2663 29.2182 35.1446 29.2402 35.0254 29.2402C34.7937 29.2402 34.5676 29.1567 34.3887 29L34.3145 28.9287L31.833 26.2568C31.5751 25.9774 31.4317 25.6148 31.4316 25.2344C31.4316 24.8542 31.5738 24.4904 31.833 24.2119L34.3164 21.54C34.5896 21.2448 35.0096 21.1483 35.3848 21.2959C35.7595 21.4435 36.0018 21.7992 36.002 22.2012V22.6729H42.709C43.0995 22.6731 43.417 22.9903 43.417 23.3809V23.4307L45.1299 21.5859L45.1309 21.585C45.1609 21.5526 45.161 21.501 45.1309 21.4688H45.1299L43.417 19.623V19.6729C43.417 20.0634 43.0995 20.3806 42.709 20.3809H34.7637C34.3729 20.3809 34.0557 20.0636 34.0557 19.6729C34.0558 19.2823 34.373 18.9648 34.7637 18.9648H41.999V18.4941C41.999 18.0919 42.2421 17.7354 42.6172 17.5879Z" fill="#082E53" stroke="#082E53" stroke-width="0.13"/>
<path d="M39.002 29.292C40.1337 29.292 41.2319 29.5148 42.2666 29.9521C43.2655 30.3745 44.163 30.9796 44.9326 31.749C45.7022 32.5185 46.308 33.4154 46.7305 34.4141C47.168 35.4486 47.3896 36.5471 47.3896 37.6787C47.3896 38.8103 47.1679 39.9088 46.7305 40.9434C46.308 41.942 45.7022 42.8389 44.9326 43.6084C44.163 44.3779 43.2655 44.9829 42.2666 45.4053C41.2319 45.8427 40.1337 46.0654 39.002 46.0654C37.8701 46.0654 36.7711 45.8427 35.7363 45.4053C34.7376 44.9829 33.8408 44.3777 33.0713 43.6084C32.3017 42.8389 31.6959 41.9421 31.2734 40.9434C30.8359 39.9088 30.6133 38.8103 30.6133 37.6787C30.6133 36.5471 30.8359 35.4486 31.2734 34.4141C31.6959 33.4154 32.3017 32.5185 33.0713 31.749C33.8408 30.9797 34.7376 30.3745 35.7363 29.9521C36.7711 29.5147 37.8701 29.292 39.002 29.292ZM39.001 30.708C35.1573 30.708 32.0294 33.8359 32.0293 37.6787C32.0293 41.5216 35.1573 44.6494 39.001 44.6494C42.8456 44.6492 45.9727 41.5215 45.9727 37.6787C45.9726 33.836 42.8444 30.7082 39.001 30.708Z" fill="#082E53" stroke="#082E53" stroke-width="0.13"/>
<path d="M39.0029 31.9395C39.3935 31.9395 39.7107 32.257 39.7109 32.6475V33.2637H40.0615C41.1816 33.2637 42.0938 34.1749 42.0938 35.2959V35.8252C42.0937 36.2159 41.7765 36.5332 41.3857 36.5332C40.9951 36.5331 40.6778 36.2158 40.6777 35.8252V35.2959C40.6777 34.9563 40.4012 34.6797 40.0615 34.6797H37.9424C37.6029 34.6799 37.3271 34.9565 37.3271 35.2959V36.3545C37.3272 36.6939 37.6029 36.9705 37.9424 36.9707H40.0615C41.1826 36.9707 42.0935 37.8811 42.0938 39.002V40.0615C42.0935 41.1823 41.1826 42.0928 40.0615 42.0928H39.7109V42.709C39.7109 43.0996 39.3936 43.4169 39.0029 43.417C38.6122 43.417 38.2949 43.0997 38.2949 42.709V42.0928H37.9443C36.8233 42.0928 35.9114 41.1823 35.9111 40.0615V39.5312C35.9114 39.1407 36.2295 38.8232 36.6201 38.8232C37.0105 38.8235 37.3279 39.1409 37.3281 39.5312V40.0615C37.3284 40.4009 37.6048 40.6768 37.9443 40.6768H40.0625C40.402 40.6768 40.6785 40.4009 40.6787 40.0615V39.002C40.6785 38.6626 40.402 38.3867 40.0625 38.3867H37.9443C36.8231 38.3867 35.9111 37.4755 35.9111 36.3545V35.2959C35.9111 34.1749 36.8231 33.2637 37.9443 33.2637H38.2949V32.6475C38.2952 32.2569 38.6123 31.9395 39.0029 31.9395Z" fill="#082E53" stroke="#082E53" stroke-width="0.13"/>
</svg>
