<svg width="25" height="24" viewBox="0 0 25 24" fill="none" xmlns="http://www.w3.org/2000/svg">
<mask id="path-1-outside-1_987_50465" maskUnits="userSpaceOnUse" x="0" y="-0.625977" width="25" height="25" fill="black">
<rect fill="white" y="-0.625977" width="25" height="25"/>
<path d="M9.75753 9.11388H6.99199C6.71544 9.11388 6.53107 9.29788 6.53107 9.57388V16.474C6.53107 16.75 6.71544 16.934 6.99199 16.934H18.0541C18.3307 16.934 18.5151 16.75 18.5151 16.474V8.19403C18.5151 7.91803 18.3307 7.73403 18.0541 7.73403H15.7495V6.35403C15.7495 6.07803 15.5651 5.89403 15.2886 5.89403H12.5231C12.2465 5.89403 12.0621 6.07803 12.0621 6.35403V10.954H10.2184V9.57403C10.2184 9.29803 10.0341 9.11388 9.75753 9.11388ZM7.45291 10.0339H9.2966V16.0137H7.45291V10.0339ZM17.5932 8.65389V16.0139H15.7495V8.65389H17.5932ZM12.984 6.81389H14.8277V16.0139H12.984V6.81389ZM12.0621 11.874V16.0139H10.2184V11.874H12.0621ZM4.50301 4.14604C4.5952 4.23804 4.68738 4.37604 4.68738 4.51404V6.35403C4.68738 6.63003 4.50301 6.81403 4.22646 6.81403C3.9499 6.81403 3.76553 6.63003 3.76553 6.35403V5.94005C2.56714 7.68805 1.92184 9.75812 1.92184 11.874C1.92184 14.082 2.61324 16.1981 3.90383 17.9919C4.0421 18.2219 3.99601 18.4979 3.81164 18.6359C3.71946 18.6819 3.62727 18.7279 3.53509 18.7279C3.39681 18.7279 3.25853 18.6819 3.16635 18.5439C1.73748 16.5659 1 14.266 1 11.874C1 9.48197 1.73748 7.22805 3.07414 5.24998L2.47495 5.43398C2.24449 5.47998 1.96792 5.34198 1.92184 5.11196C1.87577 4.88195 2.01403 4.60595 2.24451 4.55996L4.08819 4.09996C4.27256 4.05396 4.41086 4.05404 4.50301 4.14604ZM23.1243 18.682C23.1704 18.912 23.0321 19.188 22.8016 19.234L20.9579 19.694H20.8657C20.7736 19.694 20.6814 19.648 20.5892 19.602C20.4048 19.51 20.3587 19.372 20.3587 19.234V17.394C20.3587 17.118 20.5431 16.934 20.8196 16.934C21.0962 16.934 21.2806 17.118 21.2806 17.394V17.808C22.479 16.06 23.1243 13.9899 23.1243 11.8741C23.1243 9.66609 22.4329 7.54994 21.1423 5.75617C21.004 5.52617 21.0501 5.25015 21.2345 5.11217C21.4649 4.97417 21.7415 5.02017 21.8798 5.20417C23.2625 7.18218 24 9.48209 24 11.8741C24 14.2661 23.2625 16.52 21.9259 18.4981L22.525 18.3601C22.8016 18.2681 23.0321 18.406 23.1243 18.682ZM19.2985 20.614C19.4368 20.844 19.3907 21.12 19.2064 21.258C17.2244 22.638 14.9199 23.374 12.5231 23.374C10.1263 23.374 7.86782 22.638 5.88578 21.304L6.02405 21.902C6.07015 22.132 5.93187 22.408 5.70139 22.454H5.60921C5.42484 22.454 5.19439 22.316 5.14829 22.086L4.68736 20.246C4.64127 20.108 4.68736 19.97 4.77955 19.832C4.87173 19.74 5.01001 19.648 5.14829 19.648H6.99198C7.26853 19.648 7.4529 19.832 7.4529 20.108C7.4529 20.384 7.26853 20.568 6.99198 20.568H6.57716C8.32867 21.764 10.4029 22.408 12.523 22.408C14.7354 22.408 16.8558 21.718 18.6532 20.43C18.8836 20.338 19.1603 20.384 19.2985 20.614ZM20.3587 3.50204C20.4048 3.64004 20.3587 3.77804 20.2665 3.91602C20.1743 4.00802 20.036 4.05402 19.8978 4.05402H18.0541C17.7775 4.05402 17.5931 3.87002 17.5931 3.59402C17.5931 3.31802 17.7775 3.13402 18.0541 3.13402H18.4689C16.7174 1.93802 14.6432 1.29402 12.5231 1.29402C10.3106 1.29402 8.19024 1.98404 6.39287 3.27204C6.2085 3.41004 5.88584 3.36404 5.74757 3.18004C5.6093 2.95004 5.65539 2.67402 5.83976 2.53604C7.82174 1.11002 10.1263 0.374023 12.5231 0.374023C14.9199 0.374023 17.1783 1.11002 19.1603 2.44401L18.976 1.84602C18.9299 1.61602 19.0682 1.34001 19.2986 1.29402C19.5291 1.24804 19.8057 1.38602 19.8517 1.61604L20.3587 3.50204Z"/>
</mask>
<path d="M9.75753 9.11388H6.99199C6.71544 9.11388 6.53107 9.29788 6.53107 9.57388V16.474C6.53107 16.75 6.71544 16.934 6.99199 16.934H18.0541C18.3307 16.934 18.5151 16.75 18.5151 16.474V8.19403C18.5151 7.91803 18.3307 7.73403 18.0541 7.73403H15.7495V6.35403C15.7495 6.07803 15.5651 5.89403 15.2886 5.89403H12.5231C12.2465 5.89403 12.0621 6.07803 12.0621 6.35403V10.954H10.2184V9.57403C10.2184 9.29803 10.0341 9.11388 9.75753 9.11388ZM7.45291 10.0339H9.2966V16.0137H7.45291V10.0339ZM17.5932 8.65389V16.0139H15.7495V8.65389H17.5932ZM12.984 6.81389H14.8277V16.0139H12.984V6.81389ZM12.0621 11.874V16.0139H10.2184V11.874H12.0621ZM4.50301 4.14604C4.5952 4.23804 4.68738 4.37604 4.68738 4.51404V6.35403C4.68738 6.63003 4.50301 6.81403 4.22646 6.81403C3.9499 6.81403 3.76553 6.63003 3.76553 6.35403V5.94005C2.56714 7.68805 1.92184 9.75812 1.92184 11.874C1.92184 14.082 2.61324 16.1981 3.90383 17.9919C4.0421 18.2219 3.99601 18.4979 3.81164 18.6359C3.71946 18.6819 3.62727 18.7279 3.53509 18.7279C3.39681 18.7279 3.25853 18.6819 3.16635 18.5439C1.73748 16.5659 1 14.266 1 11.874C1 9.48197 1.73748 7.22805 3.07414 5.24998L2.47495 5.43398C2.24449 5.47998 1.96792 5.34198 1.92184 5.11196C1.87577 4.88195 2.01403 4.60595 2.24451 4.55996L4.08819 4.09996C4.27256 4.05396 4.41086 4.05404 4.50301 4.14604ZM23.1243 18.682C23.1704 18.912 23.0321 19.188 22.8016 19.234L20.9579 19.694H20.8657C20.7736 19.694 20.6814 19.648 20.5892 19.602C20.4048 19.51 20.3587 19.372 20.3587 19.234V17.394C20.3587 17.118 20.5431 16.934 20.8196 16.934C21.0962 16.934 21.2806 17.118 21.2806 17.394V17.808C22.479 16.06 23.1243 13.9899 23.1243 11.8741C23.1243 9.66609 22.4329 7.54994 21.1423 5.75617C21.004 5.52617 21.0501 5.25015 21.2345 5.11217C21.4649 4.97417 21.7415 5.02017 21.8798 5.20417C23.2625 7.18218 24 9.48209 24 11.8741C24 14.2661 23.2625 16.52 21.9259 18.4981L22.525 18.3601C22.8016 18.2681 23.0321 18.406 23.1243 18.682ZM19.2985 20.614C19.4368 20.844 19.3907 21.12 19.2064 21.258C17.2244 22.638 14.9199 23.374 12.5231 23.374C10.1263 23.374 7.86782 22.638 5.88578 21.304L6.02405 21.902C6.07015 22.132 5.93187 22.408 5.70139 22.454H5.60921C5.42484 22.454 5.19439 22.316 5.14829 22.086L4.68736 20.246C4.64127 20.108 4.68736 19.97 4.77955 19.832C4.87173 19.74 5.01001 19.648 5.14829 19.648H6.99198C7.26853 19.648 7.4529 19.832 7.4529 20.108C7.4529 20.384 7.26853 20.568 6.99198 20.568H6.57716C8.32867 21.764 10.4029 22.408 12.523 22.408C14.7354 22.408 16.8558 21.718 18.6532 20.43C18.8836 20.338 19.1603 20.384 19.2985 20.614ZM20.3587 3.50204C20.4048 3.64004 20.3587 3.77804 20.2665 3.91602C20.1743 4.00802 20.036 4.05402 19.8978 4.05402H18.0541C17.7775 4.05402 17.5931 3.87002 17.5931 3.59402C17.5931 3.31802 17.7775 3.13402 18.0541 3.13402H18.4689C16.7174 1.93802 14.6432 1.29402 12.5231 1.29402C10.3106 1.29402 8.19024 1.98404 6.39287 3.27204C6.2085 3.41004 5.88584 3.36404 5.74757 3.18004C5.6093 2.95004 5.65539 2.67402 5.83976 2.53604C7.82174 1.11002 10.1263 0.374023 12.5231 0.374023C14.9199 0.374023 17.1783 1.11002 19.1603 2.44401L18.976 1.84602C18.9299 1.61602 19.0682 1.34001 19.2986 1.29402C19.5291 1.24804 19.8057 1.38602 19.8517 1.61604L20.3587 3.50204Z" fill="#6B7280"/>
<path d="M9.75753 9.11388H6.99199C6.71544 9.11388 6.53107 9.29788 6.53107 9.57388V16.474C6.53107 16.75 6.71544 16.934 6.99199 16.934H18.0541C18.3307 16.934 18.5151 16.75 18.5151 16.474V8.19403C18.5151 7.91803 18.3307 7.73403 18.0541 7.73403H15.7495V6.35403C15.7495 6.07803 15.5651 5.89403 15.2886 5.89403H12.5231C12.2465 5.89403 12.0621 6.07803 12.0621 6.35403V10.954H10.2184V9.57403C10.2184 9.29803 10.0341 9.11388 9.75753 9.11388ZM7.45291 10.0339H9.2966V16.0137H7.45291V10.0339ZM17.5932 8.65389V16.0139H15.7495V8.65389H17.5932ZM12.984 6.81389H14.8277V16.0139H12.984V6.81389ZM12.0621 11.874V16.0139H10.2184V11.874H12.0621ZM4.50301 4.14604C4.5952 4.23804 4.68738 4.37604 4.68738 4.51404V6.35403C4.68738 6.63003 4.50301 6.81403 4.22646 6.81403C3.9499 6.81403 3.76553 6.63003 3.76553 6.35403V5.94005C2.56714 7.68805 1.92184 9.75812 1.92184 11.874C1.92184 14.082 2.61324 16.1981 3.90383 17.9919C4.0421 18.2219 3.99601 18.4979 3.81164 18.6359C3.71946 18.6819 3.62727 18.7279 3.53509 18.7279C3.39681 18.7279 3.25853 18.6819 3.16635 18.5439C1.73748 16.5659 1 14.266 1 11.874C1 9.48197 1.73748 7.22805 3.07414 5.24998L2.47495 5.43398C2.24449 5.47998 1.96792 5.34198 1.92184 5.11196C1.87577 4.88195 2.01403 4.60595 2.24451 4.55996L4.08819 4.09996C4.27256 4.05396 4.41086 4.05404 4.50301 4.14604ZM23.1243 18.682C23.1704 18.912 23.0321 19.188 22.8016 19.234L20.9579 19.694H20.8657C20.7736 19.694 20.6814 19.648 20.5892 19.602C20.4048 19.51 20.3587 19.372 20.3587 19.234V17.394C20.3587 17.118 20.5431 16.934 20.8196 16.934C21.0962 16.934 21.2806 17.118 21.2806 17.394V17.808C22.479 16.06 23.1243 13.9899 23.1243 11.8741C23.1243 9.66609 22.4329 7.54994 21.1423 5.75617C21.004 5.52617 21.0501 5.25015 21.2345 5.11217C21.4649 4.97417 21.7415 5.02017 21.8798 5.20417C23.2625 7.18218 24 9.48209 24 11.8741C24 14.2661 23.2625 16.52 21.9259 18.4981L22.525 18.3601C22.8016 18.2681 23.0321 18.406 23.1243 18.682ZM19.2985 20.614C19.4368 20.844 19.3907 21.12 19.2064 21.258C17.2244 22.638 14.9199 23.374 12.5231 23.374C10.1263 23.374 7.86782 22.638 5.88578 21.304L6.02405 21.902C6.07015 22.132 5.93187 22.408 5.70139 22.454H5.60921C5.42484 22.454 5.19439 22.316 5.14829 22.086L4.68736 20.246C4.64127 20.108 4.68736 19.97 4.77955 19.832C4.87173 19.74 5.01001 19.648 5.14829 19.648H6.99198C7.26853 19.648 7.4529 19.832 7.4529 20.108C7.4529 20.384 7.26853 20.568 6.99198 20.568H6.57716C8.32867 21.764 10.4029 22.408 12.523 22.408C14.7354 22.408 16.8558 21.718 18.6532 20.43C18.8836 20.338 19.1603 20.384 19.2985 20.614ZM20.3587 3.50204C20.4048 3.64004 20.3587 3.77804 20.2665 3.91602C20.1743 4.00802 20.036 4.05402 19.8978 4.05402H18.0541C17.7775 4.05402 17.5931 3.87002 17.5931 3.59402C17.5931 3.31802 17.7775 3.13402 18.0541 3.13402H18.4689C16.7174 1.93802 14.6432 1.29402 12.5231 1.29402C10.3106 1.29402 8.19024 1.98404 6.39287 3.27204C6.2085 3.41004 5.88584 3.36404 5.74757 3.18004C5.6093 2.95004 5.65539 2.67402 5.83976 2.53604C7.82174 1.11002 10.1263 0.374023 12.5231 0.374023C14.9199 0.374023 17.1783 1.11002 19.1603 2.44401L18.976 1.84602C18.9299 1.61602 19.0682 1.34001 19.2986 1.29402C19.5291 1.24804 19.8057 1.38602 19.8517 1.61604L20.3587 3.50204Z" stroke="#6B7280" stroke-width="0.4" mask="url(#path-1-outside-1_987_50465)"/>
</svg>
