<svg width="80" height="80" viewBox="0 0 80 80" fill="none" xmlns="http://www.w3.org/2000/svg">
<rect width="80" height="80" rx="40" fill="#2DBE60"/>
<rect x="0.5" y="0.5" width="79" height="79" rx="39.5" stroke="white" stroke-opacity="0.4" stroke-dasharray="3 2"/>
<mask id="path-3-outside-1_987_53339" maskUnits="userSpaceOnUse" x="17.5996" y="18" width="44" height="44" fill="black">
<rect fill="white" x="17.5996" y="18" width="44" height="44"/>
<path d="M60.1931 46.5391C59.7972 45.8707 59.153 45.3839 58.3995 45.1835C57.646 44.9831 56.8436 45.0852 56.1651 45.4679C56.2069 44.1254 55.8442 42.8011 55.1237 41.6651L48.5262 30.2989L51.5225 31.9846C51.7102 32.1013 51.9198 32.1789 52.1385 32.2128C52.3572 32.2468 52.5806 32.2363 52.7952 32.1821C53.0097 32.1279 53.211 32.031 53.3869 31.8973C53.5628 31.7637 53.7097 31.596 53.8187 31.4043C53.9277 31.2127 53.9965 31.0011 54.0211 30.7823C54.0457 30.5635 54.0255 30.342 53.9617 30.1312C53.8979 29.9204 53.7918 29.7246 53.6499 29.5556C53.508 29.3866 53.3332 29.248 53.1359 29.148L47.6575 26.0648L48.5836 24.4692C48.9136 23.9178 49.0877 23.288 49.0877 22.6463C49.0877 22.0045 48.9136 21.3747 48.5836 20.8233C48.2683 20.2632 47.8068 19.7982 47.2478 19.4773C46.6888 19.1565 46.0531 18.9917 45.4078 19.0003H38.9873C38.3421 18.9916 37.7064 19.1564 37.1475 19.4773C36.5886 19.7981 36.1272 20.2632 35.8121 20.8233C35.482 21.3747 35.3077 22.0045 35.3077 22.6463C35.3077 23.288 35.482 23.9178 35.8121 24.4692L36.7927 26.1588C36.6335 26.331 36.5137 26.5354 36.4412 26.7579C36.3688 26.9804 36.3455 27.2159 36.373 27.4482C36.4005 27.6805 36.4781 27.9041 36.6004 28.1038C36.7228 28.3036 36.8871 28.4747 37.0821 28.6054C36.6852 29.0246 36.3393 29.4886 36.0513 29.988L29.2724 41.6636C28.6242 42.7118 28.2244 43.893 28.1032 45.1177C27.3874 45.3614 26.6562 45.6526 25.8512 45.9884V44.9771C25.8512 44.9015 25.8362 44.8266 25.8071 44.7568C25.778 44.687 25.7354 44.6235 25.6816 44.57C25.6279 44.5166 25.5641 44.4742 25.4939 44.4452C25.4236 44.4163 25.3484 44.4014 25.2724 44.4014H19.1784C19.1024 44.4014 19.0271 44.4163 18.9569 44.4452C18.8867 44.4742 18.8229 44.5166 18.7691 44.57C18.7154 44.6235 18.6728 44.687 18.6437 44.7568C18.6146 44.8266 18.5996 44.9015 18.5996 44.9771V60.4243C18.5996 60.577 18.6606 60.7234 18.7691 60.8314C18.8777 60.9393 19.0249 61 19.1784 61H25.2733C25.4268 61 25.5741 60.9393 25.6826 60.8314C25.7912 60.7234 25.8521 60.577 25.8521 60.4243V58.8086C27.6838 58.0172 29.6271 57.5111 31.6137 57.308C34.0669 57.1195 37.2345 57.7369 38.7568 58.0334C40.1113 58.1894 41.4744 58.2595 42.8379 58.2435C46.0836 58.2632 46.3267 58.0828 46.4878 57.9643C46.5018 57.9542 46.5153 57.9432 46.5278 57.9321L59.1349 50.577C59.8129 50.1805 60.3052 49.5327 60.5036 48.7757C60.702 48.0187 60.5903 47.2143 60.1931 46.5391ZM24.696 58.4498V59.8501H19.7563V45.5542H24.696V58.4498ZM38.0014 27.7357C37.8735 27.7357 37.7508 27.6851 37.6604 27.5952C37.5699 27.5052 37.5191 27.3832 37.5191 27.256C37.5191 27.1287 37.5699 27.0067 37.6604 26.9167C37.7508 26.8268 37.8735 26.7762 38.0014 26.7762H46.3942C46.5221 26.7762 46.6448 26.8268 46.7353 26.9167C46.8257 27.0067 46.8766 27.1287 46.8766 27.256C46.8766 27.3832 46.8257 27.5052 46.7353 27.5952C46.6448 27.6851 46.5221 27.7357 46.3942 27.7357H38.0014ZM52.7501 30.8031C52.7189 30.8581 52.6771 30.9066 52.6271 30.9455C52.5771 30.9845 52.5198 31.0133 52.4586 31.0302C52.3974 31.047 52.3334 31.0517 52.2704 31.044C52.2073 31.0362 52.1464 31.0161 52.0912 30.9849L47.5364 28.4212C47.7727 28.193 47.9344 27.8993 48.0004 27.5783L52.5673 30.1482C52.6226 30.1792 52.6712 30.2208 52.7103 30.2705C52.7495 30.3202 52.7784 30.3771 52.7953 30.4379C52.8123 30.4987 52.8171 30.5623 52.8093 30.625C52.8015 30.6876 52.7814 30.7482 52.7501 30.8031ZM36.8124 21.3966C37.0284 21.0132 37.3445 20.6949 37.7273 20.4753C38.1102 20.2558 38.5455 20.1431 38.9873 20.1493H45.4088C45.8496 20.1493 46.2826 20.2648 46.6644 20.484C47.0461 20.7033 47.3631 21.0186 47.5835 21.3983C47.8039 21.778 47.92 22.2087 47.92 22.6471C47.92 23.0855 47.804 23.5162 47.5837 23.8959L46.5732 25.6369C46.5139 25.6304 46.4543 25.627 46.3947 25.6268H38.0019C37.9423 25.627 37.8827 25.6304 37.8234 25.6369L36.8105 23.8959C36.5844 23.5178 36.4652 23.0859 36.4656 22.646C36.4659 22.206 36.5858 21.7744 36.8124 21.3966ZM30.2728 42.2379L37.0502 30.5627C37.4184 29.9209 37.9021 29.3517 38.477 28.8837H45.921C46.4952 29.3519 46.978 29.921 47.3454 30.5627L54.1228 42.2379C54.9679 43.6929 55.2148 45.0361 54.8627 46.2258L49.9771 49.0759C49.9162 48.4679 49.6499 47.8984 49.2216 47.4604C48.7933 47.0223 48.2283 46.7417 47.6189 46.6643C46.7753 46.5146 45.5448 46.2642 44.1219 45.9745C40.2337 45.1834 35.3948 44.1966 33.4645 44.2263C32.0619 44.2268 30.665 44.4041 29.3072 44.754C29.4737 43.8642 29.8009 43.0117 30.2728 42.2379ZM58.5503 49.5863L45.8685 56.9856L45.853 56.9952C43.5637 57.1555 41.2649 57.1255 38.9806 56.9055C37.4077 56.5995 34.135 55.9624 31.5264 56.1624C29.5784 56.3608 27.668 56.8302 25.8512 57.557V47.2376C28.6796 46.0445 30.3707 45.4194 33.4814 45.3753C35.2906 45.3503 40.2593 46.3616 43.8904 47.1023C45.3215 47.3935 46.5582 47.6453 47.4153 47.7974C48.4683 47.9845 48.8976 48.6302 48.8976 50.0267V50.0401C48.8912 50.2222 48.8447 50.4006 48.7613 50.5629C48.678 50.7251 48.5598 50.8671 48.4152 50.979C48.1863 51.1614 47.9213 51.2938 47.6375 51.3677C47.3537 51.4416 47.0575 51.4553 46.768 51.4078L38.6294 49.96C38.5527 49.9415 38.4729 49.9387 38.395 49.952C38.3171 49.9652 38.2428 49.9942 38.1766 50.0371C38.1104 50.08 38.0538 50.1359 38.0101 50.2014C37.9665 50.2669 37.9368 50.3406 37.9229 50.418C37.909 50.4953 37.9111 50.5747 37.9292 50.6512C37.9473 50.7277 37.9809 50.7997 38.0281 50.8627C38.0752 50.9258 38.1348 50.9786 38.2032 51.0179C38.2716 51.0572 38.3474 51.0822 38.4259 51.0912L46.5635 52.5376C47.0193 52.6144 47.4863 52.5935 47.9333 52.4764C48.3804 52.3593 48.7971 52.1485 49.1556 51.8583C49.617 51.4876 49.9258 50.9616 50.0239 50.3798L56.7135 46.4753C57.128 46.233 57.6223 46.1645 58.0877 46.2847C58.5531 46.405 58.9513 46.7042 59.1949 47.1164C59.4385 47.5287 59.5074 48.0204 59.3865 48.4832C59.2656 48.946 58.9648 49.3422 58.5503 49.5844V49.5863ZM43.2199 39.2482C43.2199 38.471 42.8673 38.3564 41.9981 38.1506C41.1579 37.9515 39.8888 37.6512 39.8888 35.9352C39.8893 35.4437 40.0528 34.966 40.3539 34.5763C40.655 34.1865 41.077 33.9064 41.5544 33.7793V33.2439C41.5544 33.0912 41.6154 32.9448 41.7239 32.8369C41.8324 32.7289 41.9797 32.6682 42.1332 32.6682C42.2867 32.6682 42.4339 32.7289 42.5425 32.8369C42.651 32.9448 42.712 33.0912 42.712 33.2439V33.7793C43.1894 33.9064 43.6113 34.1865 43.9125 34.5763C44.2136 34.966 44.377 35.4437 44.3775 35.9352C44.368 36.0811 44.3031 36.218 44.1958 36.318C44.0885 36.4181 43.947 36.4737 43.7999 36.4737C43.6529 36.4737 43.5113 36.4181 43.4041 36.318C43.2968 36.218 43.2318 36.0811 43.2223 35.9352C43.2254 35.7912 43.1995 35.648 43.1462 35.5141C43.0929 35.3802 43.0132 35.2581 42.9119 35.1552C42.8106 35.0523 42.6896 34.9705 42.5561 34.9147C42.4226 34.8589 42.2792 34.8301 42.1344 34.8301C41.9896 34.8301 41.8462 34.8589 41.7127 34.9147C41.5792 34.9705 41.4582 35.0523 41.3569 35.1552C41.2556 35.2581 41.1759 35.3802 41.1226 35.5141C41.0693 35.648 41.0434 35.7912 41.0465 35.9352C41.0465 36.7124 41.3991 36.827 42.2682 37.0328C43.1085 37.2319 44.3775 37.5322 44.3775 39.2482C44.3767 39.7403 44.2126 40.2183 43.9106 40.6081C43.6087 40.9979 43.1858 41.2777 42.7077 41.4041V41.9395C42.7077 42.0921 42.6467 42.2386 42.5381 42.3465C42.4296 42.4545 42.2824 42.5151 42.1288 42.5151C41.9753 42.5151 41.8281 42.4545 41.7196 42.3465C41.611 42.2386 41.55 42.0921 41.55 41.9395V41.4041C41.0727 41.2769 40.6508 40.9968 40.3497 40.6071C40.0486 40.2173 39.8851 39.7397 39.8845 39.2482C39.8845 39.0955 39.9455 38.9491 40.054 38.8411C40.1626 38.7332 40.3098 38.6725 40.4633 38.6725C40.6168 38.6725 40.764 38.7332 40.8726 38.8411C40.9811 38.9491 41.0421 39.0955 41.0421 39.2482C41.0391 39.3922 41.065 39.5354 41.1183 39.6693C41.1716 39.8032 41.2512 39.9252 41.3525 40.0282C41.4539 40.1311 41.5748 40.2128 41.7083 40.2687C41.8418 40.3245 41.9852 40.3532 42.13 40.3532C42.2749 40.3532 42.4182 40.3245 42.5518 40.2687C42.6853 40.2128 42.8062 40.1311 42.9076 40.0282C43.0089 39.9252 43.0885 39.8032 43.1418 39.6693C43.1951 39.5354 43.221 39.3922 43.218 39.2482H43.2199Z"/>
</mask>
<path d="M60.1931 46.5391C59.7972 45.8707 59.153 45.3839 58.3995 45.1835C57.646 44.9831 56.8436 45.0852 56.1651 45.4679C56.2069 44.1254 55.8442 42.8011 55.1237 41.6651L48.5262 30.2989L51.5225 31.9846C51.7102 32.1013 51.9198 32.1789 52.1385 32.2128C52.3572 32.2468 52.5806 32.2363 52.7952 32.1821C53.0097 32.1279 53.211 32.031 53.3869 31.8973C53.5628 31.7637 53.7097 31.596 53.8187 31.4043C53.9277 31.2127 53.9965 31.0011 54.0211 30.7823C54.0457 30.5635 54.0255 30.342 53.9617 30.1312C53.8979 29.9204 53.7918 29.7246 53.6499 29.5556C53.508 29.3866 53.3332 29.248 53.1359 29.148L47.6575 26.0648L48.5836 24.4692C48.9136 23.9178 49.0877 23.288 49.0877 22.6463C49.0877 22.0045 48.9136 21.3747 48.5836 20.8233C48.2683 20.2632 47.8068 19.7982 47.2478 19.4773C46.6888 19.1565 46.0531 18.9917 45.4078 19.0003H38.9873C38.3421 18.9916 37.7064 19.1564 37.1475 19.4773C36.5886 19.7981 36.1272 20.2632 35.8121 20.8233C35.482 21.3747 35.3077 22.0045 35.3077 22.6463C35.3077 23.288 35.482 23.9178 35.8121 24.4692L36.7927 26.1588C36.6335 26.331 36.5137 26.5354 36.4412 26.7579C36.3688 26.9804 36.3455 27.2159 36.373 27.4482C36.4005 27.6805 36.4781 27.9041 36.6004 28.1038C36.7228 28.3036 36.8871 28.4747 37.0821 28.6054C36.6852 29.0246 36.3393 29.4886 36.0513 29.988L29.2724 41.6636C28.6242 42.7118 28.2244 43.893 28.1032 45.1177C27.3874 45.3614 26.6562 45.6526 25.8512 45.9884V44.9771C25.8512 44.9015 25.8362 44.8266 25.8071 44.7568C25.778 44.687 25.7354 44.6235 25.6816 44.57C25.6279 44.5166 25.5641 44.4742 25.4939 44.4452C25.4236 44.4163 25.3484 44.4014 25.2724 44.4014H19.1784C19.1024 44.4014 19.0271 44.4163 18.9569 44.4452C18.8867 44.4742 18.8229 44.5166 18.7691 44.57C18.7154 44.6235 18.6728 44.687 18.6437 44.7568C18.6146 44.8266 18.5996 44.9015 18.5996 44.9771V60.4243C18.5996 60.577 18.6606 60.7234 18.7691 60.8314C18.8777 60.9393 19.0249 61 19.1784 61H25.2733C25.4268 61 25.5741 60.9393 25.6826 60.8314C25.7912 60.7234 25.8521 60.577 25.8521 60.4243V58.8086C27.6838 58.0172 29.6271 57.5111 31.6137 57.308C34.0669 57.1195 37.2345 57.7369 38.7568 58.0334C40.1113 58.1894 41.4744 58.2595 42.8379 58.2435C46.0836 58.2632 46.3267 58.0828 46.4878 57.9643C46.5018 57.9542 46.5153 57.9432 46.5278 57.9321L59.1349 50.577C59.8129 50.1805 60.3052 49.5327 60.5036 48.7757C60.702 48.0187 60.5903 47.2143 60.1931 46.5391ZM24.696 58.4498V59.8501H19.7563V45.5542H24.696V58.4498ZM38.0014 27.7357C37.8735 27.7357 37.7508 27.6851 37.6604 27.5952C37.5699 27.5052 37.5191 27.3832 37.5191 27.256C37.5191 27.1287 37.5699 27.0067 37.6604 26.9167C37.7508 26.8268 37.8735 26.7762 38.0014 26.7762H46.3942C46.5221 26.7762 46.6448 26.8268 46.7353 26.9167C46.8257 27.0067 46.8766 27.1287 46.8766 27.256C46.8766 27.3832 46.8257 27.5052 46.7353 27.5952C46.6448 27.6851 46.5221 27.7357 46.3942 27.7357H38.0014ZM52.7501 30.8031C52.7189 30.8581 52.6771 30.9066 52.6271 30.9455C52.5771 30.9845 52.5198 31.0133 52.4586 31.0302C52.3974 31.047 52.3334 31.0517 52.2704 31.044C52.2073 31.0362 52.1464 31.0161 52.0912 30.9849L47.5364 28.4212C47.7727 28.193 47.9344 27.8993 48.0004 27.5783L52.5673 30.1482C52.6226 30.1792 52.6712 30.2208 52.7103 30.2705C52.7495 30.3202 52.7784 30.3771 52.7953 30.4379C52.8123 30.4987 52.8171 30.5623 52.8093 30.625C52.8015 30.6876 52.7814 30.7482 52.7501 30.8031ZM36.8124 21.3966C37.0284 21.0132 37.3445 20.6949 37.7273 20.4753C38.1102 20.2558 38.5455 20.1431 38.9873 20.1493H45.4088C45.8496 20.1493 46.2826 20.2648 46.6644 20.484C47.0461 20.7033 47.3631 21.0186 47.5835 21.3983C47.8039 21.778 47.92 22.2087 47.92 22.6471C47.92 23.0855 47.804 23.5162 47.5837 23.8959L46.5732 25.6369C46.5139 25.6304 46.4543 25.627 46.3947 25.6268H38.0019C37.9423 25.627 37.8827 25.6304 37.8234 25.6369L36.8105 23.8959C36.5844 23.5178 36.4652 23.0859 36.4656 22.646C36.4659 22.206 36.5858 21.7744 36.8124 21.3966ZM30.2728 42.2379L37.0502 30.5627C37.4184 29.9209 37.9021 29.3517 38.477 28.8837H45.921C46.4952 29.3519 46.978 29.921 47.3454 30.5627L54.1228 42.2379C54.9679 43.6929 55.2148 45.0361 54.8627 46.2258L49.9771 49.0759C49.9162 48.4679 49.6499 47.8984 49.2216 47.4604C48.7933 47.0223 48.2283 46.7417 47.6189 46.6643C46.7753 46.5146 45.5448 46.2642 44.1219 45.9745C40.2337 45.1834 35.3948 44.1966 33.4645 44.2263C32.0619 44.2268 30.665 44.4041 29.3072 44.754C29.4737 43.8642 29.8009 43.0117 30.2728 42.2379ZM58.5503 49.5863L45.8685 56.9856L45.853 56.9952C43.5637 57.1555 41.2649 57.1255 38.9806 56.9055C37.4077 56.5995 34.135 55.9624 31.5264 56.1624C29.5784 56.3608 27.668 56.8302 25.8512 57.557V47.2376C28.6796 46.0445 30.3707 45.4194 33.4814 45.3753C35.2906 45.3503 40.2593 46.3616 43.8904 47.1023C45.3215 47.3935 46.5582 47.6453 47.4153 47.7974C48.4683 47.9845 48.8976 48.6302 48.8976 50.0267V50.0401C48.8912 50.2222 48.8447 50.4006 48.7613 50.5629C48.678 50.7251 48.5598 50.8671 48.4152 50.979C48.1863 51.1614 47.9213 51.2938 47.6375 51.3677C47.3537 51.4416 47.0575 51.4553 46.768 51.4078L38.6294 49.96C38.5527 49.9415 38.4729 49.9387 38.395 49.952C38.3171 49.9652 38.2428 49.9942 38.1766 50.0371C38.1104 50.08 38.0538 50.1359 38.0101 50.2014C37.9665 50.2669 37.9368 50.3406 37.9229 50.418C37.909 50.4953 37.9111 50.5747 37.9292 50.6512C37.9473 50.7277 37.9809 50.7997 38.0281 50.8627C38.0752 50.9258 38.1348 50.9786 38.2032 51.0179C38.2716 51.0572 38.3474 51.0822 38.4259 51.0912L46.5635 52.5376C47.0193 52.6144 47.4863 52.5935 47.9333 52.4764C48.3804 52.3593 48.7971 52.1485 49.1556 51.8583C49.617 51.4876 49.9258 50.9616 50.0239 50.3798L56.7135 46.4753C57.128 46.233 57.6223 46.1645 58.0877 46.2847C58.5531 46.405 58.9513 46.7042 59.1949 47.1164C59.4385 47.5287 59.5074 48.0204 59.3865 48.4832C59.2656 48.946 58.9648 49.3422 58.5503 49.5844V49.5863ZM43.2199 39.2482C43.2199 38.471 42.8673 38.3564 41.9981 38.1506C41.1579 37.9515 39.8888 37.6512 39.8888 35.9352C39.8893 35.4437 40.0528 34.966 40.3539 34.5763C40.655 34.1865 41.077 33.9064 41.5544 33.7793V33.2439C41.5544 33.0912 41.6154 32.9448 41.7239 32.8369C41.8324 32.7289 41.9797 32.6682 42.1332 32.6682C42.2867 32.6682 42.4339 32.7289 42.5425 32.8369C42.651 32.9448 42.712 33.0912 42.712 33.2439V33.7793C43.1894 33.9064 43.6113 34.1865 43.9125 34.5763C44.2136 34.966 44.377 35.4437 44.3775 35.9352C44.368 36.0811 44.3031 36.218 44.1958 36.318C44.0885 36.4181 43.947 36.4737 43.7999 36.4737C43.6529 36.4737 43.5113 36.4181 43.4041 36.318C43.2968 36.218 43.2318 36.0811 43.2223 35.9352C43.2254 35.7912 43.1995 35.648 43.1462 35.5141C43.0929 35.3802 43.0132 35.2581 42.9119 35.1552C42.8106 35.0523 42.6896 34.9705 42.5561 34.9147C42.4226 34.8589 42.2792 34.8301 42.1344 34.8301C41.9896 34.8301 41.8462 34.8589 41.7127 34.9147C41.5792 34.9705 41.4582 35.0523 41.3569 35.1552C41.2556 35.2581 41.1759 35.3802 41.1226 35.5141C41.0693 35.648 41.0434 35.7912 41.0465 35.9352C41.0465 36.7124 41.3991 36.827 42.2682 37.0328C43.1085 37.2319 44.3775 37.5322 44.3775 39.2482C44.3767 39.7403 44.2126 40.2183 43.9106 40.6081C43.6087 40.9979 43.1858 41.2777 42.7077 41.4041V41.9395C42.7077 42.0921 42.6467 42.2386 42.5381 42.3465C42.4296 42.4545 42.2824 42.5151 42.1288 42.5151C41.9753 42.5151 41.8281 42.4545 41.7196 42.3465C41.611 42.2386 41.55 42.0921 41.55 41.9395V41.4041C41.0727 41.2769 40.6508 40.9968 40.3497 40.6071C40.0486 40.2173 39.8851 39.7397 39.8845 39.2482C39.8845 39.0955 39.9455 38.9491 40.054 38.8411C40.1626 38.7332 40.3098 38.6725 40.4633 38.6725C40.6168 38.6725 40.764 38.7332 40.8726 38.8411C40.9811 38.9491 41.0421 39.0955 41.0421 39.2482C41.0391 39.3922 41.065 39.5354 41.1183 39.6693C41.1716 39.8032 41.2512 39.9252 41.3525 40.0282C41.4539 40.1311 41.5748 40.2128 41.7083 40.2687C41.8418 40.3245 41.9852 40.3532 42.13 40.3532C42.2749 40.3532 42.4182 40.3245 42.5518 40.2687C42.6853 40.2128 42.8062 40.1311 42.9076 40.0282C43.0089 39.9252 43.0885 39.8032 43.1418 39.6693C43.1951 39.5354 43.221 39.3922 43.218 39.2482H43.2199Z" fill="white"/>
<path d="M60.1931 46.5391C59.7972 45.8707 59.153 45.3839 58.3995 45.1835C57.646 44.9831 56.8436 45.0852 56.1651 45.4679C56.2069 44.1254 55.8442 42.8011 55.1237 41.6651L48.5262 30.2989L51.5225 31.9846C51.7102 32.1013 51.9198 32.1789 52.1385 32.2128C52.3572 32.2468 52.5806 32.2363 52.7952 32.1821C53.0097 32.1279 53.211 32.031 53.3869 31.8973C53.5628 31.7637 53.7097 31.596 53.8187 31.4043C53.9277 31.2127 53.9965 31.0011 54.0211 30.7823C54.0457 30.5635 54.0255 30.342 53.9617 30.1312C53.8979 29.9204 53.7918 29.7246 53.6499 29.5556C53.508 29.3866 53.3332 29.248 53.1359 29.148L47.6575 26.0648L48.5836 24.4692C48.9136 23.9178 49.0877 23.288 49.0877 22.6463C49.0877 22.0045 48.9136 21.3747 48.5836 20.8233C48.2683 20.2632 47.8068 19.7982 47.2478 19.4773C46.6888 19.1565 46.0531 18.9917 45.4078 19.0003H38.9873C38.3421 18.9916 37.7064 19.1564 37.1475 19.4773C36.5886 19.7981 36.1272 20.2632 35.8121 20.8233C35.482 21.3747 35.3077 22.0045 35.3077 22.6463C35.3077 23.288 35.482 23.9178 35.8121 24.4692L36.7927 26.1588C36.6335 26.331 36.5137 26.5354 36.4412 26.7579C36.3688 26.9804 36.3455 27.2159 36.373 27.4482C36.4005 27.6805 36.4781 27.9041 36.6004 28.1038C36.7228 28.3036 36.8871 28.4747 37.0821 28.6054C36.6852 29.0246 36.3393 29.4886 36.0513 29.988L29.2724 41.6636C28.6242 42.7118 28.2244 43.893 28.1032 45.1177C27.3874 45.3614 26.6562 45.6526 25.8512 45.9884V44.9771C25.8512 44.9015 25.8362 44.8266 25.8071 44.7568C25.778 44.687 25.7354 44.6235 25.6816 44.57C25.6279 44.5166 25.5641 44.4742 25.4939 44.4452C25.4236 44.4163 25.3484 44.4014 25.2724 44.4014H19.1784C19.1024 44.4014 19.0271 44.4163 18.9569 44.4452C18.8867 44.4742 18.8229 44.5166 18.7691 44.57C18.7154 44.6235 18.6728 44.687 18.6437 44.7568C18.6146 44.8266 18.5996 44.9015 18.5996 44.9771V60.4243C18.5996 60.577 18.6606 60.7234 18.7691 60.8314C18.8777 60.9393 19.0249 61 19.1784 61H25.2733C25.4268 61 25.5741 60.9393 25.6826 60.8314C25.7912 60.7234 25.8521 60.577 25.8521 60.4243V58.8086C27.6838 58.0172 29.6271 57.5111 31.6137 57.308C34.0669 57.1195 37.2345 57.7369 38.7568 58.0334C40.1113 58.1894 41.4744 58.2595 42.8379 58.2435C46.0836 58.2632 46.3267 58.0828 46.4878 57.9643C46.5018 57.9542 46.5153 57.9432 46.5278 57.9321L59.1349 50.577C59.8129 50.1805 60.3052 49.5327 60.5036 48.7757C60.702 48.0187 60.5903 47.2143 60.1931 46.5391ZM24.696 58.4498V59.8501H19.7563V45.5542H24.696V58.4498ZM38.0014 27.7357C37.8735 27.7357 37.7508 27.6851 37.6604 27.5952C37.5699 27.5052 37.5191 27.3832 37.5191 27.256C37.5191 27.1287 37.5699 27.0067 37.6604 26.9167C37.7508 26.8268 37.8735 26.7762 38.0014 26.7762H46.3942C46.5221 26.7762 46.6448 26.8268 46.7353 26.9167C46.8257 27.0067 46.8766 27.1287 46.8766 27.256C46.8766 27.3832 46.8257 27.5052 46.7353 27.5952C46.6448 27.6851 46.5221 27.7357 46.3942 27.7357H38.0014ZM52.7501 30.8031C52.7189 30.8581 52.6771 30.9066 52.6271 30.9455C52.5771 30.9845 52.5198 31.0133 52.4586 31.0302C52.3974 31.047 52.3334 31.0517 52.2704 31.044C52.2073 31.0362 52.1464 31.0161 52.0912 30.9849L47.5364 28.4212C47.7727 28.193 47.9344 27.8993 48.0004 27.5783L52.5673 30.1482C52.6226 30.1792 52.6712 30.2208 52.7103 30.2705C52.7495 30.3202 52.7784 30.3771 52.7953 30.4379C52.8123 30.4987 52.8171 30.5623 52.8093 30.625C52.8015 30.6876 52.7814 30.7482 52.7501 30.8031ZM36.8124 21.3966C37.0284 21.0132 37.3445 20.6949 37.7273 20.4753C38.1102 20.2558 38.5455 20.1431 38.9873 20.1493H45.4088C45.8496 20.1493 46.2826 20.2648 46.6644 20.484C47.0461 20.7033 47.3631 21.0186 47.5835 21.3983C47.8039 21.778 47.92 22.2087 47.92 22.6471C47.92 23.0855 47.804 23.5162 47.5837 23.8959L46.5732 25.6369C46.5139 25.6304 46.4543 25.627 46.3947 25.6268H38.0019C37.9423 25.627 37.8827 25.6304 37.8234 25.6369L36.8105 23.8959C36.5844 23.5178 36.4652 23.0859 36.4656 22.646C36.4659 22.206 36.5858 21.7744 36.8124 21.3966ZM30.2728 42.2379L37.0502 30.5627C37.4184 29.9209 37.9021 29.3517 38.477 28.8837H45.921C46.4952 29.3519 46.978 29.921 47.3454 30.5627L54.1228 42.2379C54.9679 43.6929 55.2148 45.0361 54.8627 46.2258L49.9771 49.0759C49.9162 48.4679 49.6499 47.8984 49.2216 47.4604C48.7933 47.0223 48.2283 46.7417 47.6189 46.6643C46.7753 46.5146 45.5448 46.2642 44.1219 45.9745C40.2337 45.1834 35.3948 44.1966 33.4645 44.2263C32.0619 44.2268 30.665 44.4041 29.3072 44.754C29.4737 43.8642 29.8009 43.0117 30.2728 42.2379ZM58.5503 49.5863L45.8685 56.9856L45.853 56.9952C43.5637 57.1555 41.2649 57.1255 38.9806 56.9055C37.4077 56.5995 34.135 55.9624 31.5264 56.1624C29.5784 56.3608 27.668 56.8302 25.8512 57.557V47.2376C28.6796 46.0445 30.3707 45.4194 33.4814 45.3753C35.2906 45.3503 40.2593 46.3616 43.8904 47.1023C45.3215 47.3935 46.5582 47.6453 47.4153 47.7974C48.4683 47.9845 48.8976 48.6302 48.8976 50.0267V50.0401C48.8912 50.2222 48.8447 50.4006 48.7613 50.5629C48.678 50.7251 48.5598 50.8671 48.4152 50.979C48.1863 51.1614 47.9213 51.2938 47.6375 51.3677C47.3537 51.4416 47.0575 51.4553 46.768 51.4078L38.6294 49.96C38.5527 49.9415 38.4729 49.9387 38.395 49.952C38.3171 49.9652 38.2428 49.9942 38.1766 50.0371C38.1104 50.08 38.0538 50.1359 38.0101 50.2014C37.9665 50.2669 37.9368 50.3406 37.9229 50.418C37.909 50.4953 37.9111 50.5747 37.9292 50.6512C37.9473 50.7277 37.9809 50.7997 38.0281 50.8627C38.0752 50.9258 38.1348 50.9786 38.2032 51.0179C38.2716 51.0572 38.3474 51.0822 38.4259 51.0912L46.5635 52.5376C47.0193 52.6144 47.4863 52.5935 47.9333 52.4764C48.3804 52.3593 48.7971 52.1485 49.1556 51.8583C49.617 51.4876 49.9258 50.9616 50.0239 50.3798L56.7135 46.4753C57.128 46.233 57.6223 46.1645 58.0877 46.2847C58.5531 46.405 58.9513 46.7042 59.1949 47.1164C59.4385 47.5287 59.5074 48.0204 59.3865 48.4832C59.2656 48.946 58.9648 49.3422 58.5503 49.5844V49.5863ZM43.2199 39.2482C43.2199 38.471 42.8673 38.3564 41.9981 38.1506C41.1579 37.9515 39.8888 37.6512 39.8888 35.9352C39.8893 35.4437 40.0528 34.966 40.3539 34.5763C40.655 34.1865 41.077 33.9064 41.5544 33.7793V33.2439C41.5544 33.0912 41.6154 32.9448 41.7239 32.8369C41.8324 32.7289 41.9797 32.6682 42.1332 32.6682C42.2867 32.6682 42.4339 32.7289 42.5425 32.8369C42.651 32.9448 42.712 33.0912 42.712 33.2439V33.7793C43.1894 33.9064 43.6113 34.1865 43.9125 34.5763C44.2136 34.966 44.377 35.4437 44.3775 35.9352C44.368 36.0811 44.3031 36.218 44.1958 36.318C44.0885 36.4181 43.947 36.4737 43.7999 36.4737C43.6529 36.4737 43.5113 36.4181 43.4041 36.318C43.2968 36.218 43.2318 36.0811 43.2223 35.9352C43.2254 35.7912 43.1995 35.648 43.1462 35.5141C43.0929 35.3802 43.0132 35.2581 42.9119 35.1552C42.8106 35.0523 42.6896 34.9705 42.5561 34.9147C42.4226 34.8589 42.2792 34.8301 42.1344 34.8301C41.9896 34.8301 41.8462 34.8589 41.7127 34.9147C41.5792 34.9705 41.4582 35.0523 41.3569 35.1552C41.2556 35.2581 41.1759 35.3802 41.1226 35.5141C41.0693 35.648 41.0434 35.7912 41.0465 35.9352C41.0465 36.7124 41.3991 36.827 42.2682 37.0328C43.1085 37.2319 44.3775 37.5322 44.3775 39.2482C44.3767 39.7403 44.2126 40.2183 43.9106 40.6081C43.6087 40.9979 43.1858 41.2777 42.7077 41.4041V41.9395C42.7077 42.0921 42.6467 42.2386 42.5381 42.3465C42.4296 42.4545 42.2824 42.5151 42.1288 42.5151C41.9753 42.5151 41.8281 42.4545 41.7196 42.3465C41.611 42.2386 41.55 42.0921 41.55 41.9395V41.4041C41.0727 41.2769 40.6508 40.9968 40.3497 40.6071C40.0486 40.2173 39.8851 39.7397 39.8845 39.2482C39.8845 39.0955 39.9455 38.9491 40.054 38.8411C40.1626 38.7332 40.3098 38.6725 40.4633 38.6725C40.6168 38.6725 40.764 38.7332 40.8726 38.8411C40.9811 38.9491 41.0421 39.0955 41.0421 39.2482C41.0391 39.3922 41.065 39.5354 41.1183 39.6693C41.1716 39.8032 41.2512 39.9252 41.3525 40.0282C41.4539 40.1311 41.5748 40.2128 41.7083 40.2687C41.8418 40.3245 41.9852 40.3532 42.13 40.3532C42.2749 40.3532 42.4182 40.3245 42.5518 40.2687C42.6853 40.2128 42.8062 40.1311 42.9076 40.0282C43.0089 39.9252 43.0885 39.8032 43.1418 39.6693C43.1951 39.5354 43.221 39.3922 43.218 39.2482H43.2199Z" stroke="white" stroke-width="0.6" mask="url(#path-3-outside-1_987_53339)"/>
</svg>
