<svg width="20" height="20" viewBox="0 0 20 20" fill="none" xmlns="http://www.w3.org/2000/svg">
<path d="M10 2.9248C10.5362 2.92485 11.0244 3.12413 11.3789 3.44629C11.7336 3.76879 11.9561 4.21676 11.9561 4.71094V5.51562C12.9537 5.88423 13.8 6.55302 14.2295 7.52637C14.5841 8.3296 14.5903 9.20252 14.5986 10.1025C14.6018 10.443 14.6046 10.7891 14.6289 11.1523C14.6827 11.9579 14.7792 12.4068 14.8984 12.6836C15.0152 12.9546 15.1548 13.0633 15.3145 13.1885L15.3438 13.2109C15.6909 13.4841 15.9133 13.8128 16.0137 14.1436C16.0866 14.3849 16.0948 14.6285 16.0381 14.8535L16.0098 14.9482C15.9191 15.2153 15.7383 15.4459 15.4746 15.6074C15.2307 15.7566 14.9229 15.8437 14.5596 15.8438H12.498C12.4836 16.4543 12.2049 17.007 11.7637 17.4082C11.3102 17.82 10.6858 18.0751 10 18.0752C9.314 18.0752 8.6884 17.8201 8.23535 17.4082C7.79415 17.007 7.51636 16.4543 7.50195 15.8438H5.44043C5.07747 15.8438 4.7689 15.7571 4.52539 15.6074C4.26165 15.4459 4.0814 15.2151 3.99023 14.9482C3.90507 14.6982 3.90367 14.4205 3.98633 14.1445V14.1436C4.08619 13.8127 4.30925 13.484 4.65625 13.2109L4.68555 13.1885L4.80078 13.0947C4.91267 12.9986 5.01309 12.8868 5.10059 12.6836C5.21972 12.4068 5.31608 11.9579 5.37012 11.1523C5.39444 10.7886 5.39824 10.4429 5.40137 10.1025C5.40967 9.20246 5.41586 8.32964 5.77051 7.52637C6.20052 6.55249 7.04608 5.88375 8.04395 5.51562V4.71094C8.04395 4.21676 8.26543 3.76879 8.62012 3.44629C8.9747 3.12392 9.46358 2.9248 10 2.9248ZM8.55176 15.8438C8.56587 16.1823 8.72205 16.4909 8.97266 16.7188C9.2355 16.9577 9.59928 17.1064 10 17.1064C10.4 17.1064 10.7636 16.9575 11.0264 16.7188C11.277 16.4909 11.4341 16.1823 11.4482 15.8438H8.55176ZM10 6.14258C9.57409 6.14261 9.15022 6.19827 8.75293 6.30859L8.75195 6.30762C8.73232 6.31435 8.71184 6.32156 8.69043 6.32617L8.44824 6.40625C7.68572 6.68452 7.05392 7.18065 6.74121 7.88965C6.46318 8.51936 6.45557 9.28325 6.44824 10.1104C6.44512 10.4738 6.44112 10.8479 6.41699 11.21C6.35113 12.1932 6.21398 12.7754 6.02832 13.1611C5.84078 13.5507 5.60625 13.7353 5.36621 13.9238L5.33691 13.9463C5.15048 14.0928 5.04076 14.2539 4.99609 14.4014C4.96628 14.5005 4.96705 14.5893 4.99121 14.6602L5.00879 14.7012C5.03032 14.7402 5.06317 14.7743 5.10742 14.8018L5.16797 14.832C5.23606 14.8589 5.32629 14.876 5.44141 14.876H14.5596C14.713 14.876 14.8219 14.8453 14.8936 14.8018C14.9527 14.7655 14.9911 14.7157 15.0098 14.6602C15.0339 14.5893 15.0347 14.5005 15.0049 14.4014C14.9602 14.2539 14.8505 14.0928 14.6641 13.9463L14.6357 13.9238H14.6348C14.3948 13.7356 14.1602 13.5515 13.9727 13.1621C13.7869 12.7763 13.6499 12.1935 13.584 11.21C13.5719 11.0288 13.5648 10.8445 13.5605 10.6602L13.5527 10.1104C13.5454 9.28331 13.5373 8.51939 13.2598 7.88965C12.9471 7.18079 12.3155 6.68405 11.5537 6.40625H11.5527C11.4736 6.37729 11.3927 6.35087 11.3105 6.32617L11.248 6.30762V6.30859C10.8506 6.19823 10.4265 6.14258 10 6.14258ZM10 3.89258C9.74931 3.89258 9.5218 3.98628 9.35742 4.13574C9.19319 4.28509 9.09283 4.48851 9.09277 4.70996V5.24512C9.39207 5.19844 9.69652 5.17383 10 5.17383C10.3032 5.17384 10.6072 5.19851 10.9062 5.24512V4.70996C10.9062 4.48861 10.8067 4.28507 10.6426 4.13574C10.4782 3.98632 10.2506 3.89263 10 3.89258Z" fill="#5B616E" stroke="#5B616E" stroke-width="0.15"/>
</svg>
