<svg width="25" height="19" viewBox="0 0 25 19" fill="none" xmlns="http://www.w3.org/2000/svg">
<path d="M22.8406 0H7.26745C6.55109 0 5.99045 0.363373 5.6167 0.913622L0 9.34386L5.6167 17.7637C5.99045 18.314 6.55109 18.6877 7.26745 18.6877H22.8406C23.9826 18.6877 24.917 17.7533 24.917 16.6113V2.07641C24.917 0.934386 23.9826 0 22.8406 0ZM22.8406 16.6113H7.34012L2.4917 9.34386L7.32974 2.07641H22.8406V16.6113ZM10.8077 14.5349L14.5349 10.8077L18.2621 14.5349L19.7259 13.071L15.9988 9.34386L19.7259 5.6167L18.2621 4.15283L14.5349 7.87999L10.8077 4.15283L9.34386 5.6167L13.071 9.34386L9.34386 13.071L10.8077 14.5349Z" fill="#46384E"/>
</svg>
